<?xml version="1.0" encoding="utf-8"?>
<!-- Generator: Adobe Illustrator 16.0.0, SVG Export Plug-In . SVG Version: 6.00 Build 0)  -->
<!DOCTYPE svg PUBLIC "-//W3C//DTD SVG 1.1//EN" "http://www.w3.org/Graphics/SVG/1.1/DTD/svg11.dtd">
<svg version="1.1" id="Putto" xmlns="http://www.w3.org/2000/svg" xmlns:xlink="http://www.w3.org/1999/xlink" x="0px" y="0px"
	 width="311.812px" height="311.812px" viewBox="0 0 311.812 311.812" enable-background="new 0 0 311.812 311.812"
	 xml:space="preserve">
<g id="Ali_-_Basso">
	<path fill="none" stroke="#134982" stroke-width="3" stroke-linejoin="round" stroke-miterlimit="10" d="M134.056,226.806
		c2.485-0.559,6.459-1.793,11.062-3.651c-1.142-0.678-2.107-1.282-2.867-1.767c-2.25-1.432-4.983-3.629-7.434-5.729
		c-0.186,3.424-3.013,6.146-6.482,6.146c-0.387,0-0.762-0.046-1.13-0.111c1.954,1.62,4.259,3.479,6.469,5.148
		C133.801,226.829,133.925,226.806,134.056,226.806z"/>
	<path fill="none" stroke="#134982" stroke-width="3" stroke-linejoin="round" stroke-miterlimit="10" d="M155.503,228.422
		c-1.948,0.86-4.016,1.696-6.166,2.459c2.272-0.741,4.395-1.549,6.359-2.377C155.631,228.477,155.567,228.449,155.503,228.422z"/>
	<path fill="none" stroke="#134982" stroke-width="3" stroke-linejoin="round" stroke-miterlimit="10" d="M186.729,243.526
		c0.895-0.462,1.629-1.194,2.082-2.097c0.324-0.642,0.523-1.356,0.523-2.125c0-1.552-0.755-2.916-1.905-3.783
		c-3.205,2.537-6.807,5.014-10.677,7.348C179.866,243.204,183.185,243.435,186.729,243.526z"/>
	<path fill="none" stroke="#134982" stroke-width="3" stroke-linejoin="round" stroke-miterlimit="10" d="M133.369,234.236
		c-1.742-0.323-3.063-1.845-3.063-3.681c0-0.139,0.026-0.271,0.041-0.405c0.191-1.751,1.575-3.128,3.327-3.309
		c-2.21-1.669-4.515-3.528-6.469-5.148c-0.237-0.043-0.475-0.088-0.703-0.155c0.158,0.196,0.296,0.407,0.425,0.624
		c0.103,0.166,0.193,0.338,0.279,0.514c0.392,0.796,0.629,1.682,0.629,2.629c0,3.313-2.687,6-6,6c-1.428,0-2.738-0.501-3.769-1.334
		c-0.024-0.02-0.051-0.041-0.074-0.061c-0.001-0.001-0.002-0.001-0.003-0.002c-0.621-0.5-1.439-1.232-2.389-2.135
		c0,0.001,0,0.001,0,0.001c2.293,2.577,5.131,5.19,8.362,7.747c0.794-0.599,1.772-0.966,2.843-0.966
		C129.056,234.556,131.243,234.438,133.369,234.236z"/>
	<path fill="none" stroke="#134982" stroke-width="3" stroke-linejoin="round" stroke-miterlimit="10" d="M192.584,243.555
		c-2.018,0.033-3.965,0.021-5.855-0.028c-3.544-0.092-6.862-0.322-9.977-0.657c-6.474,3.904-13.688,7.392-21.056,10.044
		c13.563,4.885,27.611,6.934,38.376,3.464c0.336-0.108,0.682-0.203,1.012-0.322c0,0,0.477-0.25,1.225-0.677
		c1.678-1.176,2.775-3.119,2.775-5.323C199.084,246.465,196.174,243.555,192.584,243.555z"/>
	<path fill="none" stroke="#134982" stroke-width="3" stroke-linejoin="round" stroke-miterlimit="10" d="M155.889,228.422
		c4.294-1.823,7.808-3.737,10.385-5.268c-0.083-0.033-0.166-0.067-0.249-0.102c-2.651,1.532-6.214,3.456-10.329,5.285
		C155.76,228.366,155.825,228.394,155.889,228.422z"/>
	<path fill="none" stroke="#134982" stroke-width="3" stroke-linejoin="round" stroke-miterlimit="10" d="M142.862,209.642
		c-0.718-0.243-1.392-0.584-1.998-1.014c0.129,0.456,0.221,0.929,0.221,1.427c0,2.899-2.351,5.25-5.25,5.25
		c-0.224,0-0.44-0.021-0.656-0.049c2.128,2.149,4.412,4.291,5.906,5.216c0.799,0.495,2.284,1.428,4.282,2.582
		c3.24-1.318,6.779-2.941,10.33-4.856C151.237,215.793,146.766,212.931,142.862,209.642z"/>
	<path fill="none" stroke="#134982" stroke-width="3" stroke-linejoin="round" stroke-miterlimit="10" d="M183.056,221.806
		c-3.47,0-6.297-2.722-6.482-6.146c-2.45,2.1-5.184,4.297-7.434,5.729c-0.76,0.483-1.725,1.088-2.865,1.766
		c-2.577,1.53-6.091,3.444-10.385,5.268c-0.064,0.027-0.128,0.055-0.193,0.082c-1.965,0.828-4.087,1.636-6.359,2.377
		c-2.026,0.719-4.122,1.373-6.261,1.915c-2.958,0.751-5.994,1.293-9.021,1.51c-0.235,0-0.464-0.027-0.687-0.069
		c-2.125,0.202-4.313,0.319-6.563,0.319c-1.071,0-2.049,0.367-2.843,0.966c-1.151,0.867-1.907,2.232-1.907,3.784
		c0,0.769,0.2,1.483,0.523,2.125c0.455,0.902,1.188,1.635,2.083,2.097c3.545-0.092,6.863-0.322,9.979-0.657
		c8.497-0.914,15.437-2.622,21.056-4.544c5.326-1.821,9.467-3.829,12.62-5.53c0.068-0.037,0.14-0.075,0.208-0.111
		c1.472-0.799,2.728-1.526,3.781-2.129c1.501-0.857,3.419-2.209,5.413-3.715c2.21-1.668,4.514-3.527,6.467-5.146
		C183.817,221.76,183.442,221.806,183.056,221.806z"/>
	<path fill="none" stroke="#134982" stroke-width="3" stroke-linejoin="round" stroke-miterlimit="10" d="M193.401,229.909
		c-0.001,0.001-0.002,0.001-0.003,0.002c-0.023,0.02-0.05,0.041-0.074,0.061c-1.03,0.833-2.341,1.334-3.769,1.334
		c-3.313,0-6-2.687-6-6c0-0.947,0.237-1.833,0.629-2.629c0.086-0.176,0.177-0.348,0.279-0.514c0.129-0.217,0.267-0.428,0.425-0.624
		c-0.229,0.067-0.466,0.112-0.703,0.155c-1.953,1.619-4.257,3.479-6.467,5.146c-1.994,1.506-3.912,2.857-5.413,3.715
		c-1.054,0.603-2.31,1.33-3.781,2.129c-0.068,0.036-0.14,0.074-0.208,0.111c-3.153,1.701-7.294,3.709-12.62,5.53
		c-5.619,1.922-12.559,3.63-21.056,4.544c-3.115,0.335-6.434,0.565-9.979,0.657c-1.89,0.049-3.839,0.062-5.856,0.028
		c-3.59,0-6.5,2.91-6.5,6.5c0,2.204,1.099,4.147,2.776,5.323c0.747,0.427,1.224,0.677,1.224,0.677
		c0.331,0.119,0.676,0.214,1.013,0.322c10.765,3.471,24.815,1.42,38.377-3.465c7.367-2.652,14.582-6.14,21.056-10.044
		c3.87-2.334,7.472-4.811,10.677-7.348c3.231-2.557,6.068-5.169,8.361-7.746c0,0,0,0,0-0.001
		C194.841,228.677,194.022,229.409,193.401,229.909z"/>
	<path fill="none" stroke="#134982" stroke-width="3" stroke-linejoin="round" stroke-miterlimit="10" d="M175.556,215.306
		c-2.899,0-5.25-2.351-5.25-5.25c0-0.498,0.092-0.971,0.221-1.427c-0.606,0.43-1.28,0.771-1.998,1.014
		c-3.903,3.289-8.374,6.15-12.833,8.555c-3.55,1.915-7.09,3.538-10.33,4.856c-0.083,0.033-0.166,0.067-0.249,0.101
		c-4.603,1.858-8.577,3.093-11.062,3.651c-0.131,0-0.255,0.023-0.382,0.036c-1.752,0.181-3.136,1.558-3.327,3.309
		c-0.015,0.135-0.041,0.267-0.041,0.405c0,1.836,1.321,3.357,3.063,3.681c0.223,0.042,0.452,0.069,0.687,0.069
		c3.027-0.217,6.062-0.759,9.021-1.51c2.139-0.542,4.235-1.196,6.261-1.915c2.15-0.763,4.218-1.599,6.166-2.459
		c0.064-0.028,0.129-0.056,0.193-0.084c4.115-1.829,7.678-3.753,10.329-5.285c1.998-1.153,3.481-2.085,4.28-2.58
		c1.494-0.925,3.778-3.066,5.906-5.216C175.996,215.285,175.779,215.306,175.556,215.306z"/>
	<path fill="none" stroke="#134982" stroke-width="3" stroke-linejoin="round" stroke-miterlimit="10" d="M211.306,205.056
		c-3.219,0-5.884-2.342-6.402-5.412c-0.734,0.262-1.522,0.412-2.348,0.412c-3.866,0-7-3.134-7-7c0-0.06,0.008-0.116,0.009-0.176
		c-0.485,0.111-0.989,0.176-1.509,0.176c-3.728,0-6.75-3.022-6.75-6.75c0-1.18,0.304-2.287,0.836-3.252
		c0.19-0.124,0.367-0.265,0.547-0.402c-1.815,1.247-4.61,1.358-7.319,0.972c-5.025,6.096-9.175,8.17-12.479,9.433
		c-3.439,1.314-6.005,2.509-7.806,3.31c-1.697,1.421-2.779,3.553-2.779,5.94c0,3.814,2.758,6.978,6.386,7.623
		c0.444,0.078,0.898,0.127,1.364,0.127c0.866,0,1.696-0.149,2.473-0.413c0.718-0.243,1.392-0.584,1.998-1.014
		c-0.129,0.456-0.221,0.929-0.221,1.427c0,2.899,2.351,5.25,5.25,5.25c0.224,0,0.44-0.021,0.656-0.049
		c0.116-0.016,0.234-0.03,0.349-0.053c0,0.034-0.005,0.067-0.005,0.102c0,0.12,0.012,0.236,0.018,0.354
		c0.186,3.424,3.013,6.146,6.482,6.146c0.387,0,0.762-0.046,1.13-0.111c0.237-0.043,0.475-0.088,0.703-0.155
		c-0.28,0.347-0.506,0.734-0.704,1.138c-0.392,0.796-0.629,1.682-0.629,2.629c0,3.313,2.687,6,6,6c1.428,0,2.738-0.501,3.769-1.334
		c0.024-0.02,0.051-0.041,0.074-0.061c0.001-0.001,0.002-0.001,0.003-0.002c0.621-0.5,1.439-1.232,2.389-2.135
		c5.817-5.525,16.765-17.648,20.332-24.864C214.933,204.225,213.218,205.056,211.306,205.056z"/>
	<path fill="none" stroke="#134982" stroke-width="3" stroke-linecap="round" stroke-linejoin="round" stroke-miterlimit="10" d="
		M180.986,190.049c-1.734,1.052-2.895,2.958-2.895,5.135c0,3.313,2.687,6,6,6c1.516,0,2.896-0.566,3.952-1.493
		c-0.501,0.936-0.786,2.003-0.786,3.139c0,3.682,2.985,6.667,6.667,6.667c0.54,0,1.062-0.071,1.564-0.192
		c-0.24,0.688-0.377,1.423-0.377,2.192c0,3.682,2.985,6.667,6.667,6.667c2.014,0,3.818-0.894,5.041-2.304"/>
	<path fill="none" stroke="#134982" stroke-width="3" stroke-linejoin="round" stroke-miterlimit="10" d="M91.834,177.221
		c1.5-4.5,6.416-10.584,17-8.417c6.53,1.337,8.425,7.353,11.602,11.509c0.677,0.886,1.416,1.683,2.266,2.337
		c0.18,0.138,0.356,0.278,0.547,0.402c0.532,0.965,0.836,2.072,0.836,3.252c0,3.728-3.022,6.75-6.75,6.75
		c-0.52,0-1.023-0.064-1.509-0.176c0.001,0.06,0.009,0.116,0.009,0.176c0,3.866-3.134,7-7,7c-0.825,0-1.613-0.15-2.348-0.412
		c-0.519,3.07-3.184,5.412-6.402,5.412c-1.912,0-3.627-0.831-4.816-2.146c-0.598-1.021-1.117-2.098-1.576-3.206
		C90.259,191.412,90.511,181.189,91.834,177.221z"/>
	<path fill="none" stroke="#134982" stroke-width="3" stroke-linejoin="round" stroke-miterlimit="10" d="M100.084,205.056
		c3.219,0,5.884-2.342,6.402-5.412c0.734,0.262,1.522,0.412,2.348,0.412c3.866,0,7-3.134,7-7c0-0.06-0.008-0.116-0.009-0.176
		c0.485,0.111,0.989,0.176,1.509,0.176c3.728,0,6.75-3.022,6.75-6.75c0-1.18-0.304-2.287-0.836-3.252
		c-0.19-0.124-0.367-0.265-0.547-0.402c1.815,1.247,4.61,1.358,7.319,0.972c5.025,6.096,9.175,8.17,12.479,9.433
		c3.439,1.314,6.005,2.509,7.806,3.31c1.697,1.421,2.779,3.553,2.779,5.94c0,3.814-2.758,6.978-6.386,7.623
		c-0.444,0.078-0.898,0.127-1.364,0.127c-0.866,0-1.696-0.149-2.473-0.413c-0.718-0.243-1.392-0.584-1.998-1.014
		c0.129,0.456,0.221,0.929,0.221,1.427c0,2.899-2.351,5.25-5.25,5.25c-0.224,0-0.44-0.021-0.656-0.049
		c-0.116-0.016-0.234-0.03-0.349-0.053c0,0.034,0.005,0.067,0.005,0.102c0,0.12-0.012,0.236-0.018,0.354
		c-0.186,3.424-3.013,6.146-6.482,6.146c-0.387,0-0.762-0.046-1.13-0.111c-0.237-0.043-0.475-0.088-0.703-0.155
		c0.28,0.347,0.506,0.734,0.704,1.138c0.392,0.796,0.629,1.682,0.629,2.629c0,3.313-2.687,6-6,6c-1.428,0-2.738-0.501-3.769-1.334
		c-0.024-0.02-0.051-0.041-0.074-0.061c-0.001-0.001-0.002-0.001-0.003-0.002c-0.621-0.5-1.439-1.232-2.389-2.135
		c-5.817-5.525-16.765-17.648-20.332-24.864C96.458,204.225,98.172,205.056,100.084,205.056z"/>
	<path fill="none" stroke="#134982" stroke-width="3" stroke-linecap="round" stroke-linejoin="round" stroke-miterlimit="10" d="
		M130.404,190.048c1.734,1.052,2.895,2.958,2.895,5.135c0,3.313-2.687,6-6,6c-1.516,0-2.896-0.566-3.952-1.493
		c0.501,0.936,0.786,2.003,0.786,3.139c0,3.682-2.985,6.667-6.667,6.667c-0.54,0-1.062-0.071-1.564-0.192
		c0.24,0.688,0.377,1.423,0.377,2.192c0,3.682-2.985,6.667-6.667,6.667c-2.014,0-3.818-0.894-5.041-2.304"/>
	<path fill="none" stroke="#134982" stroke-width="3" stroke-linejoin="round" stroke-miterlimit="10" d="M219.556,177.223
		c-1.5-4.5-6.416-10.584-17-8.417c-6.53,1.337-8.425,7.353-11.602,11.509c-0.677,0.886-1.416,1.683-2.266,2.337
		c-0.18,0.138-0.356,0.278-0.547,0.402c-0.532,0.965-0.836,2.072-0.836,3.252c0,3.728,3.022,6.75,6.75,6.75
		c0.52,0,1.023-0.064,1.509-0.176c-0.001,0.06-0.009,0.116-0.009,0.176c0,3.866,3.134,7,7,7c0.825,0,1.613-0.15,2.348-0.412
		c0.519,3.07,3.184,5.412,6.402,5.412c1.912,0,3.627-0.831,4.816-2.146c0.598-1.021,1.117-2.098,1.576-3.206
		C221.131,191.414,220.879,181.191,219.556,177.223z"/>
</g>
<g id="Ala_-_SX">
	<path fill="none" stroke="#134982" stroke-width="3" stroke-linejoin="round" stroke-miterlimit="10" d="M105.028,168.36
		c-2.436-8.513-2.104-18.459-2.08-26.546c-0.019,0.73-0.038,1.46-0.043,2.197c-1.28,2.482-3.864,4.183-6.85,4.183
		c-2.257,0-4.278-0.978-5.688-2.524c0.643,10.574,1.944,18.666,4.486,26.583C97.027,169.999,100.312,168.255,105.028,168.36z"/>
	<path fill="none" stroke="#134982" stroke-width="3" stroke-linejoin="round" stroke-miterlimit="10" d="M95.268,202.908
		c-0.598-1.021-1.117-2.098-1.576-3.206c-3.433-8.29-3.181-18.513-1.857-22.481c0.535-1.604,1.514-3.406,3.02-4.968
		c-2.542-7.917-3.843-16.009-4.486-26.583c-0.019-0.021-0.04-0.039-0.058-0.059c-1.206,2.878-4.047,4.9-7.362,4.9
		c-0.073,0-0.143-0.011-0.216-0.013c-2.427-0.066-4.573-1.217-5.993-2.984c1.167,31.316,5.798,43.629,26.882,67.567
		c0.038-0.042,0.075-0.091,0.112-0.135c-3.574-4.303-6.813-8.695-8.465-12.036V202.908z"/>
	<path fill="none" stroke="#134982" stroke-width="3" stroke-linejoin="round" stroke-miterlimit="10" d="M75.908,146.289
		c-1.143,2.003-3.166,3.437-5.544,3.769c-0.346,0.048-0.699,0.074-1.058,0.074c-3.442,0-6.337-2.294-7.272-5.432
		c-1.488,34.855,6.028,58.186,32.181,84.551c0.463,0.617,1.009,1.164,1.624,1.63c1.383,1.047,3.1,1.675,4.968,1.675
		c4.439,0,8.049-3.509,8.232-7.903c0.005-0.115,0.018-0.229,0.018-0.347c0-2.268-0.916-4.321-2.397-5.813
		c-0.002-0.003-0.005-0.006-0.007-0.009c-1.051-1.165-2.053-2.292-3.031-3.403c-21.083-23.938-25.714-36.251-26.882-67.567
		C76.429,147.13,76.143,146.727,75.908,146.289z"/>
	<path fill="none" stroke="#134982" stroke-width="3" stroke-linejoin="round" stroke-miterlimit="10" d="M100.817,138.392
		c-4.699,0-8.61-3.217-9.474-7.477c-0.913,2.942-3.754,5.089-7.123,5.089c-4.036,0-7.314-3.083-7.424-6.925
		c-0.376,0.356-0.796,0.668-1.246,0.94c-1.118,0.675-2.438,1.072-3.857,1.072c-1.738,0-3.329-0.59-4.578-1.566
		c-1.451-1.134-2.44-2.789-2.64-4.671c0.275-1.253,0.588-2.465,0.92-3.653l-0.009,0.003c-1.694,5.845-2.609,12.34-3.082,18.361
		c-0.136,1.729-0.237,3.417-0.307,5.039c0.009,0.033,0.026,0.063,0.036,0.097c0.936,3.138,3.83,5.432,7.272,5.432
		c0.359,0,0.712-0.026,1.058-0.074c2.378-0.332,4.402-1.766,5.544-3.769c0.234,0.438,0.521,0.841,0.83,1.225
		c1.42,1.767,3.566,2.918,5.993,2.984c0.073,0.002,0.143,0.013,0.216,0.013c3.315,0,6.157-2.022,7.362-4.9
		c0.019,0.021,0.04,0.039,0.058,0.059c1.41,1.546,3.431,2.524,5.688,2.524c2.985,0,5.569-1.7,6.85-4.183
		c0.005-0.736,0.024-1.467,0.043-2.197c0.032-1.263,0.078-2.512,0.159-3.702C102.371,138.285,101.608,138.392,100.817,138.392z"/>
	<path fill="none" stroke="#134982" stroke-width="3" stroke-linejoin="round" stroke-miterlimit="10" d="M106.056,99.891
		c-5.917-8.745-15.146-11.023-24.25-5.753c-4.108,2.377-11.969,11.83-16.166,26.174c-0.085,0.292-0.162,0.593-0.244,0.889
		c-0.332,1.188-0.645,2.4-0.92,3.653c0.2,1.882,1.189,3.538,2.64,4.671l0,0c0.001,0,0.002,0.001,0.002,0.002
		c0.307,0.239,0.634,0.455,0.979,0.644c0.012,0.007,0.024,0.013,0.036,0.02c0.338,0.183,0.691,0.341,1.06,0.471
		c0.025,0.009,0.051,0.016,0.076,0.025c0.364,0.124,0.738,0.224,1.126,0.291c0.028,0.005,0.056,0.007,0.084,0.012
		c0.396,0.064,0.8,0.103,1.214,0.103c0.321,0,0.634-0.027,0.943-0.065c0.073-0.009,0.145-0.021,0.217-0.032
		c0.289-0.044,0.573-0.103,0.85-0.179c0.013-0.003,0.027-0.006,0.041-0.01c0.317-0.089,0.624-0.201,0.922-0.33
		c0.009-0.003,0.017-0.008,0.025-0.012c0.786-0.343,1.5-0.81,2.105-1.384c0.11,3.841,3.388,6.925,7.424,6.925
		c3.368,0,6.209-2.147,7.123-5.089c0.864,4.26,4.775,7.477,9.474,7.477c0.791,0,1.554-0.106,2.29-0.279
		c0.037-0.009,0.076-0.012,0.113-0.021c1.574-0.387,2.99-1.142,4.147-2.167c0.386-1.316,1.105-2.285,1.105-2.285
		s0.183,0.216,0.463,0.499c0.969-1.442,1.538-3.154,1.538-4.996c0-1.155-0.231-2.255-0.634-3.275l1.692-1.389
		c0.004-0.164,0.011-0.325,0.024-0.475c0.196-2.136,1.632-4.427,4.107-5.556C105.856,112.404,110.827,106.942,106.056,99.891z"/>
	<path fill="none" stroke="#134982" stroke-width="3" stroke-linecap="round" stroke-linejoin="round" stroke-miterlimit="10" d="
		M71.377,106.714c-0.673,1.224-1.057,2.63-1.056,4.125c0,4.734,3.838,8.572,8.572,8.572c1.167,0,2.278-0.235,3.292-0.657
		c0.991,3.042,3.845,5.241,7.217,5.241c2.256,0,4.275-0.989,5.666-2.55c0.47,3.394,3.375,6.01,6.898,6.01
		c3.85,0,6.972-3.122,6.972-6.972"/>
</g>
<g id="Ala_-_DX">
	<path fill="none" stroke="#134982" stroke-width="3" stroke-linejoin="round" stroke-miterlimit="10" d="M206.362,168.358
		c2.436-8.512,2.104-18.458,2.08-26.544c0.018,0.73,0.037,1.46,0.043,2.197c1.279,2.482,3.863,4.183,6.85,4.183
		c2.256,0,4.277-0.978,5.688-2.524c-0.643,10.574-1.943,18.666-4.486,26.582C214.362,169.997,211.079,168.253,206.362,168.358z"/>
	<path fill="none" stroke="#134982" stroke-width="3" stroke-linejoin="round" stroke-miterlimit="10" d="M216.122,202.907
		c0.598-1.021,1.117-2.098,1.576-3.207c3.434-8.289,3.182-18.512,1.857-22.48c-0.534-1.605-1.514-3.406-3.02-4.969
		c2.543-7.916,3.844-16.008,4.486-26.582c0.019-0.021,0.039-0.039,0.059-0.059c1.205,2.878,4.047,4.9,7.361,4.9
		c0.074,0,0.144-0.011,0.217-0.013c2.426-0.066,4.572-1.217,5.992-2.984c-1.167,31.315-5.798,43.628-26.881,67.565
		c-0.038-0.041-0.075-0.09-0.113-0.135c3.574-4.303,6.813-8.695,8.465-12.035V202.907z"/>
	<path fill="none" stroke="#134982" stroke-width="3" stroke-linejoin="round" stroke-miterlimit="10" d="M235.481,146.289
		c1.143,2.003,3.166,3.437,5.545,3.769c0.346,0.048,0.699,0.074,1.059,0.074c3.441,0,6.336-2.294,7.271-5.432
		c1.488,34.854-6.027,58.184-32.18,84.549c-0.463,0.617-1.01,1.164-1.624,1.631c-1.383,1.047-3.101,1.674-4.968,1.674
		c-4.439,0-8.05-3.508-8.232-7.902c-0.006-0.115-0.018-0.23-0.018-0.348c0-2.268,0.916-4.32,2.396-5.813
		c0.002-0.002,0.005-0.006,0.008-0.008c1.051-1.166,2.053-2.293,3.031-3.404c21.083-23.938,25.714-36.25,26.881-67.565
		C234.961,147.129,235.247,146.727,235.481,146.289z"/>
	<path fill="none" stroke="#134982" stroke-width="3" stroke-linejoin="round" stroke-miterlimit="10" d="M210.573,138.391
		c4.698,0,8.609-3.217,9.474-7.477c0.913,2.942,3.755,5.089,7.122,5.089c4.037,0,7.314-3.083,7.424-6.925
		c0.377,0.356,0.797,0.668,1.246,0.94c1.119,0.675,2.438,1.072,3.857,1.072c1.738,0,3.328-0.59,4.578-1.566
		c1.451-1.134,2.439-2.789,2.641-4.671c-0.275-1.253-0.588-2.465-0.92-3.653l0.01,0.003c1.693,5.845,2.607,12.34,3.082,18.361
		c0.135,1.729,0.236,3.417,0.307,5.039c-0.01,0.033-0.027,0.063-0.037,0.097c-0.936,3.138-3.83,5.432-7.271,5.432
		c-0.359,0-0.713-0.026-1.059-0.074c-2.379-0.332-4.402-1.766-5.545-3.769c-0.234,0.438-0.521,0.841-0.83,1.225
		c-1.42,1.767-3.566,2.918-5.992,2.984c-0.073,0.002-0.143,0.013-0.217,0.013c-3.314,0-6.156-2.022-7.361-4.9
		c-0.02,0.021-0.04,0.039-0.059,0.059c-1.41,1.546-3.432,2.524-5.688,2.524c-2.986,0-5.57-1.7-6.85-4.183
		c-0.006-0.736-0.025-1.467-0.043-2.197c-0.033-1.263-0.078-2.512-0.159-3.702C209.019,138.285,209.782,138.391,210.573,138.391z"/>
	<path fill="none" stroke="#134982" stroke-width="3" stroke-linejoin="round" stroke-miterlimit="10" d="M205.335,99.89
		c5.916-8.745,15.146-11.023,24.25-5.753c4.107,2.377,11.969,11.83,16.166,26.174c0.086,0.292,0.162,0.593,0.244,0.889
		c0.332,1.188,0.645,2.4,0.92,3.653c-0.201,1.882-1.189,3.538-2.641,4.671l0,0c0,0-0.002,0.001-0.002,0.002
		c-0.308,0.239-0.635,0.455-0.98,0.644c-0.012,0.007-0.023,0.013-0.035,0.02c-0.338,0.183-0.691,0.341-1.061,0.471
		c-0.025,0.009-0.051,0.016-0.076,0.025c-0.363,0.124-0.738,0.224-1.125,0.291c-0.028,0.005-0.057,0.007-0.084,0.012
		c-0.396,0.064-0.801,0.103-1.215,0.103c-0.32,0-0.634-0.027-0.943-0.065c-0.073-0.009-0.145-0.021-0.217-0.032
		c-0.289-0.044-0.574-0.103-0.85-0.179c-0.014-0.003-0.027-0.006-0.041-0.01c-0.317-0.089-0.624-0.201-0.922-0.33
		c-0.009-0.003-0.018-0.008-0.025-0.012c-0.785-0.343-1.5-0.81-2.105-1.384c-0.109,3.841-3.387,6.925-7.424,6.925
		c-3.367,0-6.209-2.147-7.122-5.089c-0.864,4.26-4.775,7.477-9.474,7.477c-0.791,0-1.555-0.106-2.29-0.279
		c-0.037-0.009-0.076-0.012-0.113-0.021c-1.574-0.387-2.99-1.142-4.147-2.167c-0.385-1.316-1.104-2.285-1.104-2.285
		s-0.183,0.216-0.464,0.499c-0.969-1.442-1.537-3.154-1.537-4.996c0-1.155,0.23-2.255,0.635-3.275l-1.693-1.389
		c-0.004-0.164-0.01-0.325-0.023-0.475c-0.197-2.136-1.633-4.427-4.107-5.556C205.534,112.403,200.563,106.942,205.335,99.89z"/>
	<path fill="none" stroke="#134982" stroke-width="3" stroke-linecap="round" stroke-linejoin="round" stroke-miterlimit="10" d="
		M240.013,106.713c0.674,1.224,1.057,2.63,1.057,4.125c0,4.734-3.838,8.572-8.572,8.572c-1.166,0-2.277-0.235-3.292-0.657
		c-0.991,3.042-3.845,5.241-7.218,5.241c-2.256,0-4.274-0.989-5.665-2.55c-0.47,3.394-3.375,6.01-6.898,6.01
		c-3.851,0-6.972-3.122-6.972-6.972"/>
</g>
<g id="Ali_-_Alto">
	<path fill="none" stroke="#134982" stroke-width="3" stroke-linecap="round" stroke-linejoin="round" stroke-miterlimit="10" d="
		M127.344,63.488c1.974-0.773,4.02-1.467,6.097-2.098c0.003-0.01,0.007-0.024,0.007-0.024c4.543-1.641,12.861-3.507,22.542-4.531
		c-10.46-1.105-22.513-1.227-33.138,0.996c-0.849,0.178-1.691,0.365-2.521,0.573c-1.565,0.832-2.645,2.459-2.645,4.356
		c0,0.692,0.156,1.342,0.414,1.938c0.373,0.861,0.993,1.581,1.756,2.107c0.716-0.351,1.436-0.701,2.179-1.045
		C123.745,64.97,125.515,64.205,127.344,63.488z"/>
	<path fill="none" stroke="#134982" stroke-width="3" stroke-linecap="round" stroke-linejoin="round" stroke-miterlimit="10" d="
		M174.182,92.931c0-0.447,0.058-0.881,0.147-1.301c0.124-0.58,0.317-1.133,0.589-1.641c0.658-1.23,1.715-2.215,2.998-2.781
		c0.77-0.339,1.621-0.527,2.516-0.527c0.639,0,1.254,0.097,1.834,0.275c-0.127-0.51-0.201-1.039-0.201-1.588
		c0-0.123,0.012-0.244,0.019-0.365c0.123-2.227,1.354-4.152,3.153-5.24c0.988-0.597,2.142-0.947,3.38-0.947
		c1.25,0,2.414,0.356,3.408,0.964c-0.478-0.885-0.749-1.898-0.749-2.975c0-3.469,2.813-6.281,6.281-6.281
		c0.863,0,1.679,0.185,2.427,0.5c-2.328-1.368-4.983-2.814-7.855-4.221c-0.361,0.249-0.744,0.468-1.167,0.615
		c-1.143-0.151-2.533-0.291-4.117-0.411c-0.973-0.074-2.022-0.139-3.129-0.196c1.712,0.734,2.91,2.407,2.91,4.358
		c0,0.661-0.146,1.284-0.397,1.853c-0.33,0.75-0.847,1.403-1.497,1.898c-1.922-0.208-4.05-0.322-6.304-0.346
		c1.009,0.745,1.672,1.933,1.672,3.284c0,1.461-0.772,2.735-1.925,3.458c-1.38,0.025-2.702,0.09-3.999,0.174
		c0.078,0.268,0.168,0.53,0.282,0.779c-0.447-0.134-0.91-0.228-1.4-0.228c-0.51,0-0.994,0.092-1.453,0.242
		c-0.335,0.109-0.658,0.247-0.961,0.419c-1.471,0.843-2.474,2.41-2.474,4.227c0,0.394,0.061,0.771,0.149,1.137
		c0.066,0.275,0.158,0.54,0.266,0.796c0.125,0.297,0.273,0.581,0.455,0.843c0.789,0.533,1.574,1.129,2.291,1.783
		c1.332,1.215,2.395,2.621,2.75,4.154l0.223-1.497C174.225,93.753,174.182,93.347,174.182,92.931z"/>
	<path fill="none" stroke="#134982" stroke-width="3" stroke-linecap="round" stroke-linejoin="round" stroke-miterlimit="10" d="
		M174.175,81.492c-0.002,0-0.005,0-0.008,0c-4.916,0.321-9.263,1.051-13.274,2.02c-1.688,0.408-3.314,0.86-4.899,1.341
		c2.036,0.618,4.008,1.281,5.936,1.973c1.647,0.592,3.271,1.199,4.889,1.809c0.448,0.169,0.897,0.338,1.346,0.507
		c0.289,0.181,0.582,0.367,0.876,0.565c-0.182-0.262-0.33-0.546-0.455-0.843c-0.107-0.256-0.199-0.521-0.266-0.796
		c-0.089-0.365-0.149-0.743-0.149-1.137c0-1.816,1.003-3.384,2.474-4.227c0.303-0.172,0.626-0.31,0.961-0.419
		c0.459-0.15,0.943-0.242,1.453-0.242c0.49,0,0.953,0.094,1.4,0.228C174.343,82.021,174.253,81.759,174.175,81.492z"/>
	<path fill="none" stroke="#134982" stroke-width="3" stroke-linecap="round" stroke-linejoin="round" stroke-miterlimit="10" d="
		M210.035,78.587c-2.676-2.553-5.556-4.743-8.473-6.619c-0.42-0.348-0.888-0.637-1.389-0.867c-0.062-0.028-0.127-0.049-0.19-0.076
		c-0.748-0.315-1.563-0.5-2.427-0.5c-3.469,0-6.281,2.812-6.281,6.281c0,1.077,0.271,2.089,0.749,2.975
		c-0.994-0.607-2.158-0.964-3.408-0.964c-1.238,0-2.392,0.35-3.38,0.947c-1.8,1.088-3.03,3.013-3.153,5.24
		c-0.007,0.121-0.019,0.242-0.019,0.365c0,0.549,0.074,1.078,0.201,1.588c-0.58-0.179-1.195-0.275-1.834-0.275
		c-0.895,0-1.746,0.188-2.516,0.527c-1.283,0.566-2.34,1.551-2.998,2.781c-0.271,0.508-0.465,1.061-0.589,1.641
		c-0.09,0.42-0.147,0.854-0.147,1.301c0,0.416,0.043,0.822,0.121,1.216l-0.223,1.497l-0.59,3.983
		c1.105-0.288,2.269-0.321,3.691-0.321c3.942,0,6.474,2.645,7.837,6.523h0.001c0.973,0.01,1.809,0.122,2.545,0.311
		c-0.436-7.555,0.91-12.322,11.43-12.002C211.02,94.503,220.223,88.308,210.035,78.587z"/>
	<path fill="none" stroke="#134982" stroke-width="3" stroke-linecap="round" stroke-linejoin="round" stroke-miterlimit="10" d="
		M191.654,58.404c-0.829-0.208-1.672-0.396-2.521-0.573c-10.626-2.223-22.682-2.102-33.143-0.996c-9.682,1.023-18,2.89-22.542,4.531
		c0,0-0.004,0.014-0.007,0.024c0.44-0.133,0.871-0.284,1.314-0.409c0.152-0.043,0.303-0.088,0.456-0.13
		c0.465-0.115,0.948-0.183,1.448-0.183c3.107,0,5.664,2.358,5.979,5.382c0.021,0.197,0.031,0.397,0.032,0.599
		c0,0.011,0.001,0.021,0.001,0.032c0,1.463-0.524,2.804-1.393,3.847c0.379-0.143,0.782-0.231,1.194-0.29
		c0.03-0.01,0.056-0.017,0.086-0.027c3.682-1.253,8.379-2.118,13.432-2.689c4.316-0.488,8.889-0.76,13.325-0.873
		c3.547-0.09,6.994-0.081,10.15,0.003c0.265,0.007,0.539,0.012,0.8,0.02c1.201,0.037,2.354,0.084,3.448,0.141
		c1.106,0.057,2.156,0.123,3.129,0.196c1.584,0.12,2.975,0.259,4.117,0.411c0.423-0.146,0.806-0.366,1.167-0.615
		c0.764-0.527,1.384-1.246,1.757-2.107c0.258-0.595,0.414-1.245,0.414-1.938C194.299,60.863,193.22,59.235,191.654,58.404z"/>
	<path fill="none" stroke="#134982" stroke-width="3" stroke-linecap="round" stroke-linejoin="round" stroke-miterlimit="10" d="
		M141.344,82.705c-0.302-0.173-0.625-0.31-0.96-0.419c-0.459-0.15-0.943-0.242-1.453-0.242c-0.49,0-0.954,0.094-1.4,0.228
		c0.114-0.25,0.204-0.512,0.281-0.779c0.145-0.497,0.23-1.018,0.23-1.562c0-2.489-1.611-4.598-3.846-5.353
		c-0.568-0.192-1.175-0.301-1.808-0.301c-0.234,0-0.464,0.019-0.69,0.046c0.707-0.761,1.23-1.693,1.507-2.725
		c0.143-0.533,0.225-1.09,0.225-1.668c0-1.201-0.337-2.318-0.91-3.279c-0.415-0.696-0.949-1.313-1.586-1.809
		c-1.003-0.781-2.239-1.277-3.59-1.355c-1.829,0.717-3.599,1.482-5.307,2.272c-0.743,0.344-1.463,0.694-2.179,1.045
		c-2.872,1.406-5.526,2.852-7.854,4.22c0.748-0.315,1.564-0.5,2.427-0.5c3.469,0,6.281,2.812,6.281,6.281
		c0,1.077-0.271,2.089-0.749,2.975c0.994-0.607,2.158-0.964,3.408-0.964c1.238,0,2.392,0.35,3.379,0.947
		c1.8,1.088,3.031,3.014,3.154,5.24c0.007,0.122,0.019,0.242,0.019,0.365c0,0.548-0.075,1.078-0.202,1.587
		c0.58-0.178,1.196-0.275,1.834-0.275c0.895,0,1.746,0.188,2.516,0.527c1.284,0.566,2.34,1.551,2.998,2.781
		c0.271,0.508,0.466,1.061,0.589,1.641c0.09,0.42,0.147,0.854,0.147,1.301c0,0.416-0.042,0.822-0.12,1.216l0.222,1.497
		c0.356-1.533,1.418-2.94,2.75-4.155c0.717-0.654,1.502-1.25,2.291-1.782c0.182-0.262,0.33-0.546,0.455-0.843
		c0.108-0.256,0.2-0.521,0.266-0.795c0.089-0.366,0.149-0.744,0.149-1.137C143.818,85.114,142.815,83.547,141.344,82.705z"/>
	<path fill="none" stroke="#134982" stroke-width="3" stroke-linecap="round" stroke-linejoin="round" stroke-miterlimit="10" d="
		M151.095,83.512c-0.079-1.341-0.687-2.537-1.626-3.379c-0.528-0.474-1.163-0.829-1.859-1.043c-0.108-0.033-0.213-0.072-0.324-0.098
		c0.781-0.935,1.271-2.123,1.271-3.437c0-0.025-0.007-0.048-0.007-0.073c-0.01-0.591-0.127-1.153-0.311-1.684
		c-0.731-2.108-2.713-3.631-5.069-3.631c-0.238,0-0.466,0.036-0.695,0.069c-0.412,0.059-0.815,0.147-1.194,0.29
		c0.869-1.043,1.393-2.383,1.393-3.847c0-0.011-0.001-0.021-0.001-0.032c-0.001-0.202-0.011-0.402-0.032-0.599
		c-0.315-3.024-2.872-5.382-5.979-5.382c-0.5,0-0.983,0.068-1.448,0.183c-0.152,0.042-0.304,0.086-0.456,0.13
		c-0.443,0.125-0.874,0.276-1.314,0.409c-2.077,0.631-4.124,1.325-6.097,2.098c1.351,0.078,2.587,0.574,3.59,1.355
		c0.637,0.496,1.172,1.113,1.586,1.809c0.572,0.961,0.91,2.078,0.91,3.279c0,0.578-0.082,1.135-0.225,1.668
		c-0.277,1.032-0.8,1.964-1.507,2.725c0.227-0.028,0.456-0.046,0.69-0.046c0.633,0,1.24,0.108,1.808,0.301
		c2.235,0.754,3.846,2.863,3.846,5.353c0,0.543-0.085,1.065-0.23,1.562c-0.078,0.267-0.167,0.529-0.281,0.779
		c0.446-0.134,0.91-0.228,1.4-0.228c0.51,0,0.994,0.092,1.453,0.242c0.335,0.109,0.659,0.247,0.96,0.419
		c1.471,0.842,2.474,2.41,2.474,4.226c0,0.394-0.061,0.771-0.149,1.137c-0.066,0.275-0.158,0.54-0.266,0.795
		c-0.125,0.297-0.273,0.581-0.455,0.843c0.294-0.199,0.587-0.386,0.876-0.566c0.449-0.169,0.897-0.338,1.346-0.507
		c1.618-0.61,3.242-1.217,4.889-1.808c0.65-0.838,1.052-1.877,1.052-3.02C151.111,83.707,151.101,83.61,151.095,83.512z"/>
	<path fill="none" stroke="#134982" stroke-width="3" stroke-linecap="round" stroke-linejoin="round" stroke-miterlimit="10" d="
		M178.427,74.576c-0.01,0-0.02,0-0.029,0c-0.198-0.002-0.404,0.003-0.604,0.002c-1.398-0.004-2.835,0.02-4.297,0.077
		c-3.327,0.13-6.76,0.417-10.058,0.828c-2.611,0.325-5.133,0.729-7.446,1.197c-3.363,0.682-6.288,1.499-8.383,2.411
		c0.696,0.214,1.331,0.569,1.859,1.043c0.939,0.842,1.547,2.038,1.626,3.379c0.006,0.098,0.016,0.194,0.016,0.293
		c0,1.143-0.402,2.182-1.052,3.02c1.928-0.692,3.899-1.355,5.935-1.973c1.585-0.481,3.211-0.934,4.899-1.341
		c4.012-0.968,8.358-1.698,13.274-2.02c0.003,0,0.006,0,0.008,0c1.297-0.084,2.619-0.149,3.999-0.174
		c1.152-0.723,1.925-1.997,1.925-3.458C180.099,76.509,179.436,75.321,178.427,74.576z"/>
	<path fill="none" stroke="#134982" stroke-width="3" stroke-linecap="round" stroke-linejoin="round" stroke-miterlimit="10" d="
		M183.715,66.813c-1.094-0.057-2.247-0.104-3.448-0.141c-0.261-0.008-0.535-0.013-0.8-0.02c-3.156-0.084-6.604-0.094-10.15-0.003
		c-4.437,0.113-9.009,0.385-13.325,0.873c-5.053,0.572-9.75,1.436-13.432,2.689c-0.03,0.01-0.056,0.017-0.086,0.027
		c0.229-0.033,0.457-0.069,0.695-0.069c2.356,0,4.338,1.523,5.069,3.631c0.184,0.531,0.301,1.093,0.311,1.684
		c0,0.025,0.007,0.048,0.007,0.073c0,1.313-0.489,2.501-1.271,3.437c0.111,0.026,0.216,0.065,0.324,0.098
		c2.095-0.912,5.02-1.729,8.383-2.411c2.313-0.469,4.835-0.872,7.446-1.197c3.298-0.411,6.73-0.698,10.058-0.828
		c1.462-0.057,2.898-0.081,4.297-0.077c0.2,0,0.406-0.004,0.604-0.002c0.01,0,0.02,0,0.029,0c2.254,0.024,4.382,0.137,6.304,0.346
		c0.65-0.495,1.167-1.148,1.497-1.898c0.251-0.569,0.397-1.192,0.397-1.853C186.625,69.22,185.427,67.547,183.715,66.813z"/>
	<path fill="none" stroke="#134982" stroke-width="3" stroke-linecap="round" stroke-linejoin="round" stroke-miterlimit="10" d="
		M137.805,92.931c0-0.447-0.057-0.88-0.147-1.301c-0.124-0.58-0.318-1.132-0.589-1.641c-0.658-1.23-1.714-2.215-2.998-2.781
		c-0.77-0.339-1.621-0.527-2.516-0.527c-0.638,0-1.254,0.097-1.834,0.275c0.127-0.509,0.202-1.039,0.202-1.587
		c0-0.123-0.012-0.244-0.019-0.365c-0.123-2.226-1.354-4.152-3.154-5.24c-0.988-0.597-2.141-0.947-3.379-0.947
		c-1.25,0-2.414,0.356-3.408,0.964c0.478-0.885,0.749-1.898,0.749-2.975c0-3.469-2.812-6.281-6.281-6.281
		c-0.863,0-1.679,0.185-2.427,0.5c-0.063,0.027-0.129,0.048-0.191,0.076c-0.5,0.23-0.968,0.519-1.388,0.867
		c-2.917,1.876-5.798,4.066-8.473,6.619c-10.188,9.721-0.984,15.917,11.042,15.551c10.519-0.32,11.865,4.448,11.43,12.002
		c0.736-0.188,1.572-0.301,2.544-0.311h0.001c1.363-3.878,3.895-6.523,7.837-6.523c1.423,0,2.585,0.033,3.691,0.321l-0.59-3.983
		l-0.222-1.497C137.763,93.753,137.805,93.347,137.805,92.931z"/>
</g>
<g id="Faccia">
	<path id="Viso" fill="none" stroke="#134982" stroke-width="3" stroke-miterlimit="10" d="M185.86,156.5
		c0,0,0.953,0.359,1.803,0.141c0.325-0.786,0.797-1.66,1.278-2.466c-0.021-0.357-0.063-0.746-0.161-1.206
		c-0.551-2.596-4.07-5.363-4.628-9.906c-0.323-2.637-0.133-7.481,0.642-11.458c-1.893,0.529-4.003,0.303-5.309-0.292
		c-5.083-2.318-3.093-8.66-3.093-8.66s0.062,0.065,0.164,0.166c-0.1-0.513-0.156-1.052-0.156-1.611c0-0.203,0.007-0.402,0.021-0.6
		c-2.578,1.116-5.336,0.539-7.361-0.705c-0.61,1.042-1.611,2-3.247,2.6c-4.779,1.753-8.481-0.956-8.882-3.698
		c-0.168-1.151,0.208-2.649,0.896-3.875l-2.132,0.121l-1.199-0.068c0.797,1.276,1.257,2.925,1.075,4.17
		c-0.401,2.742-4.104,5.451-8.882,3.698c-1.913-0.702-2.957-1.892-3.52-3.134c-2.056,1.475-5.075,2.265-7.881,1.05
		c0.014,0.197,0.021,0.397,0.021,0.6c0,0.56-0.057,1.099-0.156,1.611c0.103-0.101,0.164-0.166,0.164-0.166s1.99,6.342-3.093,8.66
		c-1.305,0.595-3.416,0.821-5.308,0.292c0.774,3.977,0.965,8.822,0.642,11.458c-0.558,4.542-4.077,7.31-4.628,9.906
		c-0.13,0.614-0.184,1.127-0.18,1.562c0.385,0.674,0.74,1.368,0.999,2.003c0.907,0.416,2.101-0.035,2.101-0.035
		s0.008,2.871-1.805,4.252c-0.262,10.028,1.175,16.756,5.877,22.52c5.1,6.25,9.3,8.349,12.64,9.625
		c5.505,2.104,8.773,3.902,10.246,4.265c0.017,0.004,0.031,0.005,0.047,0.01c1.106,0.269,2.043,0.371,2.841,0.39
		c0.798-0.019,1.735-0.121,2.841-0.39c0.018-0.005,0.031-0.006,0.048-0.01c1.473-0.362,4.74-2.161,10.246-4.265
		c3.34-1.276,7.541-3.375,12.641-9.625c4.773-5.85,6.186-12.687,5.867-22.968C185.856,159.008,185.86,156.5,185.86,156.5z"/>
	<g id="Bocca">
		<g>
			<path fill="#134982" d="M144.556,179.993c0,0,0.354-0.126,0.975-0.435c0.311-0.155,0.687-0.34,1.119-0.596
				c0.432-0.236,0.919-0.521,1.451-0.899c0.532-0.388,1.108-0.891,1.717-1.384c0.609-0.499,1.251-0.907,1.917-1.133
				c0.665-0.248,1.351-0.244,2.049,0.129c0.698,0.346,1.407,0.802,2.116,0.811c0.709,0.071,1.418-0.35,2.116-0.75
				c0.697-0.423,1.385-0.45,2.049-0.186c0.665,0.23,1.308,0.658,1.917,1.162c0.609,0.505,1.186,1.004,1.717,1.395
				c0.531,0.372,1.02,0.65,1.451,0.887c0.432,0.257,0.809,0.431,1.119,0.584c0.62,0.3,0.975,0.415,0.975,0.415
				s-1.418,0.081-3.545,0.549c-0.531,0.107-1.107,0.265-1.717,0.42c-0.609,0.154-1.252,0.304-1.917,0.4
				c-0.664,0.116-1.352,0.169-2.049,0.169c-0.698-0.012-1.407-0.023-2.116-0.035c-0.709,0.011-1.418,0.041-2.116,0.036
				c-0.698,0.001-1.385-0.06-2.049-0.168c-0.665-0.094-1.308-0.238-1.917-0.391c-0.609-0.151-1.186-0.312-1.717-0.418
				c-1.063-0.258-1.95-0.333-2.57-0.451C144.91,180.013,144.556,179.993,144.556,179.993z"/>
		</g>
		<g>
			<path fill="#134982" d="M151.379,183.906c0,0,0.147,0.026,0.4,0.088c0.125,0.033,0.277,0.072,0.451,0.118
				c0.172,0.06,0.376,0.074,0.584,0.109c0.208,0.034,0.432,0.071,0.67,0.11c0.234,0.044,0.504,0.023,0.765,0.062
				c0.265,0.024,0.534,0.078,0.814,0.068c0.279,0.004,0.562,0.008,0.845,0.011c0.562-0.029,1.135,0.012,1.658-0.063
				c0.262-0.036,0.516-0.063,0.763-0.069c0.243-0.021,0.465-0.076,0.677-0.108c0.205-0.049,0.413-0.053,0.577-0.104
				c0.168-0.048,0.315-0.089,0.437-0.124c0.247-0.068,0.4-0.099,0.4-0.099s-0.066,0.161-0.238,0.413
				c-0.086,0.128-0.198,0.281-0.347,0.439c-0.143,0.18-0.327,0.293-0.535,0.442c-0.413,0.318-0.942,0.566-1.531,0.725
				c-0.294,0.111-0.601,0.16-0.916,0.181c-0.314,0.02-0.636,0.097-0.957,0.056c-0.319-0.028-0.639-0.058-0.953-0.085
				c-0.311-0.043-0.615-0.152-0.905-0.229c-0.295-0.088-0.554-0.191-0.825-0.318c-0.272-0.124-0.507-0.294-0.721-0.424
				c-0.445-0.259-0.647-0.596-0.843-0.815C151.472,184.057,151.379,183.906,151.379,183.906z"/>
		</g>
	</g>
	<g id="Occhio_SX">
		<g>
			<path fill="#134982" d="M134.717,149.98c0,0,0.012,0.157,0.035,0.451c0.023,0.109,0.052,0.122,0.066,0.227
				c0.068,0.118,0.109,0.265,0.237,0.417c0.219,0.312,0.618,0.684,1.195,1.022c0.573,0.346,1.315,0.635,2.146,0.923
				c0.418,0.128,0.865,0.257,1.326,0.339c0.437,0.084,0.967,0.126,1.502,0.17c1.035,0.083,2.176,0.1,3.328,0.053
				c1.144-0.057,2.388-0.142,3.392-0.694c0.543-0.292,1.039-0.604,1.373-1.043c0.346-0.423,0.298-0.978,0.047-1.524
				c-0.59-1.023-1.332-2.176-2.253-2.803c-0.25-0.16-0.488-0.333-0.741-0.481c-0.267-0.127-0.525-0.265-0.792-0.381
				c-0.559-0.178-1.096-0.382-1.664-0.462c-1.107-0.243-2.22-0.256-3.257-0.229c-1.048,0.02-1.917,0.223-2.708,0.556
				c-0.772,0.34-1.433,0.722-1.925,1.152c-0.495,0.425-0.82,0.869-1.01,1.241c-0.204,0.373-0.239,0.674-0.28,0.87
				c-0.001,0.197-0.013,0.3-0.013,0.3L134.717,149.98z M133.306,150.084c0,0,0.015-0.176,0.042-0.506
				c0.065-0.319,0.166-0.802,0.471-1.321c0.569-1.052,1.87-2.245,3.745-2.87c0.923-0.32,2.019-0.477,3.117-0.419
				c1.098,0.046,2.268,0.141,3.433,0.479c1.162,0.313,2.352,0.794,3.362,1.604c0.257,0.196,0.488,0.444,0.731,0.667
				c0.216,0.247,0.385,0.47,0.598,0.754c0.344,0.524,0.708,1.046,0.995,1.646c0.138,0.303,0.259,0.631,0.278,0.999
				c0.017,0.371-0.119,0.742-0.317,1.032c-0.404,0.576-0.989,0.944-1.52,1.254c-1.167,0.657-2.429,0.795-3.606,0.949
				c-1.191,0.128-2.336,0.187-3.44,0.175c-1.071,0.008-2.166-0.1-3.094-0.345c-1.875-0.469-3.382-1.291-4.131-2.279
				c-0.199-0.232-0.314-0.492-0.429-0.705c-0.084-0.238-0.155-0.47-0.185-0.626c-0.031-0.293-0.048-0.45-0.048-0.45L133.306,150.084
				z"/>
		</g>
		<circle fill="#134982" cx="141.756" cy="149.925" r="4.43"/>
		<g>
			<path fill="#FFFFFF" d="M141.761,147.449c0,0,0.237-0.029,0.593-0.073c0.175-0.025,0.415,0.02,0.667,0.06
				c0.129,0.019,0.241,0.087,0.37,0.134c0.126,0.053,0.259,0.103,0.367,0.198c0.243,0.157,0.468,0.354,0.617,0.593
				c0.067,0.12,0.095,0.25,0.116,0.373c0.029,0.121,0.027,0.237,0.011,0.344c-0.029,0.428-0.288,0.667-0.272,0.665h-0.1
				c-0.013,0.001-0.21-0.238-0.409-0.492c-0.085-0.136-0.206-0.258-0.269-0.408c-0.034-0.073-0.07-0.147-0.09-0.241
				c-0.03-0.086-0.09-0.152-0.137-0.236c-0.044-0.088-0.121-0.145-0.194-0.208c-0.075-0.057-0.141-0.144-0.224-0.182
				c-0.17-0.07-0.311-0.199-0.486-0.25c-0.342-0.105-0.57-0.176-0.57-0.176L141.761,147.449z"/>
		</g>
		<g>
			<path fill="#FFFFFF" d="M133.056,139.571c3.373-0.357,11.161-0.004,14.181,1.901"/>
			<path fill="#134982" d="M133.042,139.422c0,0,0.881-0.282,2.263-0.504c0.686-0.114,1.493-0.242,2.361-0.311
				c0.87-0.097,1.799-0.11,2.736-0.127c0.934,0.019,1.902-0.122,2.792,0.03c0.883,0.148,1.68,0.528,2.324,0.92
				c0.323,0.219,0.603,0.419,0.842,0.642c0.235,0.229,0.428,0.421,0.57,0.62c0.284,0.396,0.387,0.653,0.387,0.653l-0.16,0.254
				c0,0-0.293,0.04-0.705,0.056c-0.208,0.014-0.468,0.041-0.737,0.048c-0.268,0.004-0.589,0.037-0.905,0.03
				c-0.657,0.008-1.396-0.002-2.184-0.149c-0.775-0.173-1.605-0.53-2.468-0.716c-1.728-0.363-3.497-0.673-4.837-0.881
				c-1.333-0.19-2.252-0.266-2.252-0.266L133.042,139.422z"/>
		</g>
	</g>
	<g id="Occhio_DX">
		<g>
			<path fill="#134982" d="M179.051,150.188c0,0-0.019,0.156-0.055,0.45c-0.032,0.179-0.125,0.514-0.242,0.814
				c-0.137,0.258-0.286,0.57-0.52,0.838c-0.445,0.566-1.092,1.074-1.857,1.478c-0.768,0.401-1.652,0.743-2.65,0.929
				c-0.5,0.091-1.017,0.176-1.568,0.208c-0.575,0.037-1.1,0.013-1.646-0.006c-1.131-0.044-2.274-0.164-3.472-0.354
				c-0.596-0.09-1.2-0.229-1.807-0.384c-0.302-0.104-0.61-0.171-0.915-0.278c-0.298-0.142-0.625-0.247-0.896-0.426
				c-0.524-0.318-1.114-0.701-1.514-1.29c-0.197-0.296-0.33-0.675-0.308-1.05c0.023-0.371,0.15-0.698,0.293-0.999
				c0.277-0.604,0.634-1.134,0.97-1.664c0.212-0.291,0.374-0.513,0.588-0.766c0.241-0.229,0.473-0.484,0.729-0.686
				c1.014-0.818,2.188-1.355,3.351-1.742c1.169-0.404,2.354-0.561,3.475-0.664c1.113-0.117,2.306-0.006,3.296,0.287
				c2.03,0.577,3.46,1.885,4.134,3.066c0.354,0.586,0.484,1.154,0.563,1.531c0.037,0.393,0.057,0.603,0.057,0.603L179.051,150.188z
				 M177.64,150.084c0,0-0.01-0.138-0.027-0.397c-0.053-0.254-0.119-0.64-0.372-1.08c-0.46-0.887-1.602-1.991-3.323-2.589
				c-0.858-0.306-1.823-0.464-2.888-0.424c-1.059,0.03-2.188,0.106-3.298,0.415c-1.11,0.283-2.241,0.726-3.185,1.462
				c-0.925,0.658-1.64,1.816-2.215,2.852c-0.26,0.541-0.322,1.102,0.021,1.542c0.33,0.453,0.829,0.779,1.367,1.079
				c1.018,0.564,2.257,0.705,3.402,0.833c1.158,0.109,2.299,0.152,3.359,0.126c1.095-0.009,2.048-0.121,2.948-0.366
				c1.777-0.464,3.143-1.273,3.718-2.074c0.161-0.189,0.238-0.389,0.328-0.551c0.048-0.167,0.097-0.282,0.123-0.414
				c0.027-0.294,0.042-0.451,0.042-0.451L177.64,150.084z"/>
		</g>
		<circle fill="#134982" cx="169.938" cy="149.925" r="4.43"/>
		<g>
			<path fill="#FFFFFF" d="M169.75,147.449c0,0,0.237-0.029,0.594-0.073c0.174-0.025,0.414,0.02,0.666,0.06
				c0.13,0.019,0.241,0.086,0.37,0.133c0.126,0.053,0.26,0.103,0.367,0.198c0.244,0.157,0.469,0.354,0.618,0.592
				c0.067,0.12,0.095,0.25,0.115,0.373c0.029,0.121,0.027,0.237,0.012,0.344c-0.029,0.428-0.288,0.667-0.272,0.665h-0.1
				c-0.013,0.001-0.21-0.238-0.409-0.492c-0.085-0.136-0.206-0.257-0.27-0.408c-0.033-0.073-0.07-0.147-0.09-0.241
				c-0.03-0.086-0.091-0.152-0.137-0.236c-0.044-0.088-0.122-0.144-0.194-0.208c-0.074-0.058-0.141-0.144-0.224-0.182
				c-0.17-0.07-0.311-0.199-0.486-0.25c-0.342-0.105-0.57-0.176-0.57-0.176L169.75,147.449z"/>
		</g>
		<g>
			<path fill="#FFFFFF" d="M178.64,139.572c-3.373-0.357-11.161-0.004-14.182,1.901"/>
			<path fill="#134982" d="M178.627,139.721c0,0-0.92,0.076-2.253,0.266c-1.34,0.208-3.109,0.519-4.837,0.881
				c-0.863,0.187-1.693,0.543-2.469,0.716c-0.787,0.146-1.526,0.157-2.184,0.149c-0.316,0.007-0.638-0.026-0.905-0.029
				c-0.269-0.008-0.528-0.035-0.737-0.048c-0.41-0.017-0.704-0.057-0.704-0.057l-0.16-0.254c0,0,0.104-0.257,0.387-0.653
				c0.142-0.198,0.335-0.39,0.57-0.62c0.238-0.222,0.519-0.422,0.842-0.642c0.644-0.392,1.44-0.772,2.324-0.92
				c0.889-0.152,1.856-0.012,2.791-0.03c0.938,0.017,1.867,0.03,2.736,0.127c0.868,0.069,1.675,0.197,2.361,0.311
				c1.382,0.222,2.263,0.504,2.263,0.504L178.627,139.721z"/>
		</g>
	</g>
	<g id="Naso">
		<g>
			<line fill="#FFFFFF" x1="163.075" y1="167.431" x2="148.733" y2="167.431"/>
			<path fill="#134982" d="M163.075,167.431c0,0-0.224,0.254-0.616,0.555c-0.393,0.303-0.952,0.648-1.625,0.904
				c-0.336,0.132-0.7,0.225-1.085,0.306c-0.386,0.063-0.792,0.139-1.212,0.02c-0.42-0.098-0.854-0.355-1.295-0.582
				c-0.441-0.224-0.89-0.378-1.337-0.368c-0.448-0.004-0.896,0.188-1.338,0.455c-0.441,0.268-0.875,0.561-1.295,0.639
				c-0.42,0.103-0.827-0.007-1.211-0.076c-0.385-0.074-0.75-0.204-1.085-0.33c-0.672-0.278-1.233-0.642-1.625-0.949
				c-0.392-0.313-0.616-0.572-0.616-0.572s0.224-0.259,0.616-0.572c0.392-0.308,0.953-0.671,1.625-0.949
				c0.336-0.126,0.7-0.256,1.085-0.33c0.385-0.069,0.791-0.179,1.211-0.076c0.42,0.078,0.854,0.371,1.295,0.639
				c0.441,0.268,0.89,0.459,1.338,0.455c0.448,0.01,0.896-0.145,1.337-0.368c0.441-0.227,0.875-0.484,1.295-0.582
				c0.42-0.119,0.826-0.044,1.212,0.02c0.385,0.081,0.749,0.174,1.085,0.306c0.673,0.256,1.232,0.602,1.625,0.904
				C162.852,167.177,163.075,167.431,163.075,167.431z"/>
		</g>
		<g>
			<path fill="#134982" d="M152.155,160.734c0,0,0.011,0.133,0.029,0.366c-0.014,0.125-0.041,0.284-0.083,0.474
				c-0.052,0.162-0.109,0.351-0.183,0.549c-0.291,0.785-0.84,1.73-1.231,2.619c-0.088,0.222-0.167,0.451-0.195,0.662
				c-0.055,0.22-0.038,0.393-0.091,0.555c0,0.133-0.075,0.271-0.084,0.365c-0.05,0.113-0.051,0.219-0.074,0.349
				c-0.024,0.131,0.027,0.263,0.031,0.408c-0.002,0.153,0.077,0.268,0.1,0.391c0.07,0.236,0.11,0.417,0.11,0.417l0.003,0.013
				c0.015,0.069-0.029,0.138-0.098,0.153c-0.004,0.001-0.009,0.002-0.013,0.002c0,0-0.166,0.019-0.456-0.029
				c-0.141-0.033-0.333-0.04-0.511-0.16c-0.172-0.117-0.418-0.225-0.587-0.46c-0.177-0.232-0.376-0.511-0.433-0.857
				c-0.114-0.352-0.066-0.686-0.021-1.041c0.1-0.304,0.228-0.631,0.415-0.87c0.17-0.267,0.36-0.488,0.534-0.721
				c0.699-0.903,1.478-1.591,1.991-2.16c0.119-0.145,0.228-0.277,0.324-0.396c0.078-0.117,0.146-0.22,0.202-0.304
				c0.079-0.221,0.124-0.348,0.124-0.348c0.017-0.054,0.075-0.083,0.128-0.065C152.125,160.658,152.151,160.695,152.155,160.734z"/>
		</g>
	</g>
</g>
<g id="Capelli">
	<path fill="none" stroke="#134983" stroke-width="3" stroke-miterlimit="10" d="M117.219,135.741
		c-0.084,0.648-0.153,1.22-0.206,1.648c-0.082,0.667-0.307,1.24-0.619,1.741c0.218,0.121,0.425,0.269,0.623,0.441
		c0.227-0.529,0.355-1.188,0.427-1.957C117.385,137.029,117.304,136.398,117.219,135.741z"/>
	<path fill="none" stroke="#134983" stroke-width="3" stroke-miterlimit="10" d="M114.056,141.556c0,0,1.873-0.017,2.813-1.656
		c0.057-0.1,0.102-0.216,0.149-0.328c-0.198-0.172-0.405-0.32-0.623-0.441c-0.987,1.59-2.944,2.361-4.791,2.342
		c-0.395,0.91-0.626,1.988-0.626,3.146c0,2.487,1.054,4.608,2.541,5.466c0.978-1.469,2.039-3.675,3.1-6.977
		C115.169,142.734,114.056,141.556,114.056,141.556z"/>
	<path fill="none" stroke="#134983" stroke-width="3" stroke-miterlimit="10" d="M116.395,139.13
		c0.312-0.501,0.537-1.074,0.619-1.741c0.052-0.428,0.122-1,0.206-1.648c-0.407-3.114-0.919-6.811,0.223-8.961
		c0.219-0.413,0.501-0.767,0.806-1.09c-0.784-2.562-0.001-5.872,0.612-7.799c-0.555-0.083-0.945-0.085-0.945-0.085
		c-3.859,0.5-6.109,3.479-6.359,6.198s1.228,7.964,0.917,9.969c-0.583,3.75-4-0.333-4-0.333s-2.725,3.647-0.417,6.417
		c0.771,0.925,2.123,1.401,3.548,1.416C113.45,141.491,115.407,140.72,116.395,139.13z"/>
	<path fill="none" stroke="#134983" stroke-width="3" stroke-miterlimit="10" d="M117.563,133.324
		c-0.136,0.87-0.25,1.694-0.344,2.417c0.085,0.657,0.166,1.288,0.226,1.873C117.555,136.422,117.54,134.972,117.563,133.324z"/>
	<path fill="none" stroke="#134983" stroke-width="3" stroke-miterlimit="10" d="M117.116,151.273
		c0.073-0.717,0.239-1.447,0.454-2.186c0.355-1.22,0.855-2.467,1.373-3.731c0.655-1.602,1.321-3.231,1.728-4.87
		c-0.353,0.793-0.974,1.881-1.871,2.396c-0.119,0.068-0.24,0.129-0.369,0.175c-0.625,0.224-1.244,0.197-1.813,0.051
		c-1.062,3.302-2.122,5.508-3.1,6.977c-2.525,3.791-4.497,2.658-4.497,2.658s-0.467,2.396,1.078,3.986
		c1.51,1.556,3.813,0.593,3.813,0.593s-0.417,2.967,0.92,4.258c1.697,1.639,4.604,0.438,4.604,0.438s-1.7-0.787-1.88-2.668
		c-0.041-0.426,0.023-0.903,0.15-1.424C117.084,156.097,116.864,153.758,117.116,151.273z"/>
	<path fill="none" stroke="#134983" stroke-width="3" stroke-miterlimit="10" d="M118.306,125.88
		c-0.021-0.063-0.039-0.127-0.059-0.19c-0.304,0.324-0.587,0.678-0.806,1.09c-1.142,2.151-0.629,5.847-0.223,8.961
		c0.093-0.723,0.208-1.547,0.344-2.417C117.593,131.124,117.708,128.584,118.306,125.88z"/>
	<path fill="none" stroke="#134983" stroke-width="3" stroke-miterlimit="10" d="M124.142,130.166l0.007-0.044
		c-0.003-0.003-0.006-0.005-0.009-0.008C124.14,130.132,124.142,130.147,124.142,130.166z"/>
	<path fill="none" stroke="#134983" stroke-width="3" stroke-miterlimit="10" d="M124.149,130.122l0.202-1.239
		c-0.066,0.021-0.129,0.055-0.196,0.074c-0.013,0.406-0.017,0.79-0.015,1.157C124.143,130.116,124.146,130.119,124.149,130.122z"/>
	<path fill="none" stroke="#134983" stroke-width="3" stroke-miterlimit="10" d="M122.116,119.47
		c1.641,0.457,3.252-1.647,3.69-7.664c0.157-2.162,0.538-4.199,1.163-5.977h-0.001c-7.175,0.073-7.476,5.358-7.475,10.615
		c0.351,0.79,0.745,1.449,1.163,1.954C121.125,118.962,121.622,119.332,122.116,119.47z"/>
	<path fill="none" stroke="#134983" stroke-width="3" stroke-miterlimit="10" d="M194.69,139.413
		c0.197-0.172,0.405-0.32,0.623-0.441c-0.312-0.501-0.537-1.074-0.619-1.741c-0.052-0.428-0.121-1-0.205-1.648
		c-0.086,0.657-0.166,1.288-0.226,1.873C194.335,138.225,194.464,138.883,194.69,139.413z"/>
	<path fill="none" stroke="#134983" stroke-width="3" stroke-miterlimit="10" d="M195.313,138.971
		c-0.218,0.121-0.426,0.269-0.623,0.441c0.048,0.112,0.092,0.228,0.149,0.328c0.939,1.639,2.813,1.656,2.813,1.656
		s-1.113,1.179-2.563,1.551c1.062,3.302,2.122,5.508,3.101,6.977c1.486-0.857,2.54-2.979,2.54-5.466
		c0-1.159-0.231-2.236-0.626-3.146C198.258,141.332,196.301,140.562,195.313,138.971z"/>
	<path fill="none" stroke="#134983" stroke-width="3" stroke-miterlimit="10" d="M203.235,133.48c0,0-3.416,4.083-4,0.333
		c-0.311-2.005,1.167-7.25,0.917-9.969s-2.5-5.698-6.358-6.198c0,0-0.391,0.002-0.945,0.085c0.613,1.927,1.396,5.237,0.612,7.799
		c0.304,0.324,0.587,0.678,0.806,1.09c1.143,2.151,0.629,5.847,0.223,8.961c0.084,0.648,0.153,1.22,0.205,1.648
		c0.082,0.667,0.308,1.24,0.619,1.741c0.987,1.59,2.944,2.361,4.791,2.342c1.425-0.015,2.777-0.491,3.548-1.416
		C205.96,137.127,203.235,133.48,203.235,133.48z"/>
	<path fill="none" stroke="#134983" stroke-width="3" stroke-miterlimit="10" d="M194.264,137.456
		c0.06-0.585,0.14-1.216,0.226-1.873c-0.094-0.723-0.207-1.547-0.344-2.417C194.168,134.813,194.153,136.264,194.264,137.456z"/>
	<path fill="none" stroke="#134983" stroke-width="3" stroke-miterlimit="10" d="M193.277,142.897
		c-0.128-0.046-0.25-0.107-0.368-0.175c-0.898-0.514-1.519-1.602-1.871-2.396c0.406,1.639,1.072,3.269,1.727,4.87
		c0.519,1.265,1.019,2.512,1.373,3.731c0.215,0.739,0.381,1.469,0.454,2.186c0.252,2.485,0.032,4.824-0.591,6.652
		c0.127,0.52,0.19,0.998,0.15,1.424c-0.181,1.881-1.881,2.668-1.881,2.668s2.908,1.201,4.605-0.438
		c1.336-1.291,0.92-4.258,0.92-4.258s2.303,0.963,3.813-0.594c1.545-1.589,1.078-3.985,1.078-3.985s-1.972,1.132-4.496-2.658
		c-0.979-1.469-2.039-3.675-3.101-6.977C194.521,143.094,193.903,143.121,193.277,142.897z"/>
	<path fill="none" stroke="#134983" stroke-width="3" stroke-miterlimit="10" d="M194.146,133.166
		c0.137,0.87,0.25,1.694,0.344,2.417c0.406-3.114,0.92-6.811-0.223-8.961c-0.219-0.413-0.502-0.767-0.806-1.09
		c-0.02,0.063-0.037,0.128-0.059,0.19C194.001,128.426,194.114,130.965,194.146,133.166z"/>
	<path fill="none" stroke="#134983" stroke-width="3" stroke-miterlimit="10" d="M187.491,131.664
		c0.043-0.523,0.072-1.083,0.076-1.709c-0.096,0.106-0.204,0.197-0.307,0.293L187.491,131.664z"/>
	<path fill="none" stroke="#134983" stroke-width="3" stroke-miterlimit="10" d="M179.794,117.871
		c-0.018,0.024-0.039,0.047-0.058,0.071l0.177,0.103C179.873,117.988,179.835,117.925,179.794,117.871z"/>
	<path fill="none" stroke="#134983" stroke-width="3" stroke-miterlimit="10" d="M187.567,129.955
		c0.003-0.368-0.001-0.751-0.014-1.157c-0.192-0.054-0.377-0.138-0.564-0.213l0.271,1.664
		C187.363,130.151,187.472,130.061,187.567,129.955z"/>
	<path fill="none" stroke="#134983" stroke-width="3" stroke-miterlimit="10" d="M189.593,119.311
		c0.494-0.138,0.99-0.507,1.459-1.073c0.418-0.504,0.813-1.164,1.163-1.954c0.001-5.257-0.3-10.542-7.475-10.615h-0.001
		c0.625,1.778,1.006,3.815,1.163,5.977C186.34,117.664,187.951,119.768,189.593,119.311z"/>
	<path fill="none" stroke="#134983" stroke-width="3" stroke-miterlimit="10" d="M162.698,104.185
		c-0.052,0.864-0.39,1.768-0.361,2.841c0.045,1.752,1.919,2.011,3.475,1.925c-0.034-0.842-0.2-1.655-0.659-2.429
		C164.467,105.366,163.604,104.684,162.698,104.185z"/>
	<path fill="none" stroke="#134983" stroke-width="3" stroke-miterlimit="10" d="M146.19,113.986
		c-0.003,0.174-0.02,0.349-0.034,0.524l0.89,0.05C146.739,114.386,146.448,114.197,146.19,113.986z"/>
	<path fill="none" stroke="#134983" stroke-width="3" stroke-miterlimit="10" d="M156.778,111.064
		c0.845,0.735,1.934,1.346,3.299,1.719c0.307-0.097,0.622-0.131,0.943-0.076c0.405,0.07,0.729,0.187,1.001,0.339
		c1.527-0.022,2.718-0.619,3.617-1.366c0.101-0.937,0.208-1.849,0.173-2.729c-1.556,0.086-3.43-0.172-3.475-1.925
		c-0.028-1.073,0.31-1.977,0.361-2.841c-1.554-0.855-3.238-1.166-4.401-2.333c-1.397,0.583-2.736,1.681-3.308,2.813
		c-0.051,0.102-0.091,0.211-0.133,0.319C154.163,106.755,154.73,109.281,156.778,111.064z"/>
	<path fill="none" stroke="#134982" stroke-width="3" stroke-miterlimit="10" d="M127.556,143.223
		c0.324-2.637,0.133-7.481-0.642-11.458c-0.071-0.02-0.142-0.042-0.213-0.065c-0.967-0.303-1.862-0.812-2.552-1.578l-0.007,0.044
		c0.026,2.963,0.527,4.719,1.13,5.751c0.931,1.593,2.097,1.482,2.097,1.482s-0.563,2.375-2.625,3.188
		c-0.558,0.22-1.09,0.235-1.571,0.148c-0.257-0.047-0.495-0.128-0.717-0.222c-0.862-0.361-1.431-0.958-1.431-0.958
		s-0.117,0.398-0.354,0.93c-0.407,1.639-1.072,3.269-1.728,4.87c-0.518,1.265-1.018,2.512-1.373,3.731
		c-0.215,0.739-0.381,1.469-0.454,2.186c-0.252,2.485-0.032,4.824,0.591,6.652c0.764,2.242,2.137,3.714,4.015,3.714
		c0.996,0,1.747-0.291,2.32-0.728c1.813-1.382,1.805-4.252,1.805-4.252s-1.194,0.45-2.101,0.035c-0.548-0.251-0.99-0.82-0.999-2.003
		c-0.003-0.435,0.05-0.948,0.18-1.562C123.479,150.533,126.998,147.765,127.556,143.223z"/>
	<path fill="none" stroke="#134982" stroke-width="3" stroke-miterlimit="10" d="M131.914,118.029
		c-0.953,1.273-1.648,3.172-2.22,4.904c-0.066,0.202-0.144,0.402-0.223,0.602c0.173,0.566,0.447,1.023,0.938,1.229
		c1.909,0.801,4.138-1.192,4.744-1.787c0.1-0.513,0.156-1.052,0.156-1.611c0-0.203-0.007-0.402-0.021-0.6
		c-0.859-0.372-1.697-0.927-2.481-1.711C132.462,118.712,132.167,118.369,131.914,118.029z"/>
	<path fill="none" stroke="#134982" stroke-width="3" stroke-miterlimit="10" d="M130.408,124.764
		c-0.491-0.206-0.764-0.663-0.938-1.229c-0.269,0.673-0.613,1.33-1.016,1.946c-0.572,0.875-1.264,1.662-2.042,2.282
		c-0.162,0.129-0.328,0.248-0.497,0.362c-0.496,0.334-1.022,0.582-1.565,0.758l-0.202,1.239c0.69,0.766,1.585,1.275,2.552,1.578
		c0.071,0.022,0.142,0.045,0.213,0.065c1.893,0.529,4.003,0.303,5.308-0.292c5.083-2.318,3.093-8.66,3.093-8.66
		s-0.062,0.065-0.164,0.166C134.545,123.572,132.316,125.565,130.408,124.764z"/>
	<path fill="none" stroke="#134982" stroke-width="3" stroke-miterlimit="10" d="M125.271,135.917
		c-0.603-1.032-1.104-2.788-1.13-5.751c0-0.019-0.001-0.034-0.001-0.053c-0.002-0.368,0.001-0.751,0.015-1.157
		c-0.236,0.066-0.474,0.115-0.716,0.146c-0.201,0.026-0.404,0.039-0.609,0.039c-0.583,0-1.176-0.097-1.774-0.336
		c-0.909-0.364-1.576-0.91-2.057-1.571c-0.299-0.412-0.527-0.868-0.693-1.354c-0.598,2.705-0.712,5.244-0.743,7.444
		c-0.022,1.647-0.008,3.098-0.118,4.29c-0.071,0.77-0.2,1.428-0.427,1.957c-0.048,0.112-0.092,0.228-0.149,0.328
		c-0.939,1.639-2.813,1.656-2.813,1.656s1.113,1.179,2.563,1.551c0.568,0.146,1.187,0.172,1.813-0.051
		c0.128-0.046,0.25-0.107,0.369-0.175c0.897-0.514,1.518-1.602,1.871-2.396c0.237-0.531,0.354-0.93,0.354-0.93
		s0.569,0.597,1.431,0.958c0.223,0.093,0.46,0.175,0.717,0.222c0.48,0.087,1.013,0.072,1.571-0.148
		c2.063-0.813,2.625-3.188,2.625-3.188S126.203,137.511,125.271,135.917z"/>
	<path fill="none" stroke="#134982" stroke-width="3" stroke-miterlimit="10" d="M140.75,100.657
		c-1.886-1.276-3.548-1.351-5.945-1.351c-3.942,0-6.474,2.645-7.837,6.523c-0.625,1.778-1.006,3.815-1.163,5.977
		c-0.438,6.017-2.049,8.121-3.69,7.664c-0.494-0.138-0.991-0.507-1.459-1.073c-0.418-0.504-0.813-1.164-1.163-1.954
		c-0.021-0.046-0.042-0.09-0.063-0.138c0,0-0.264,0.619-0.571,1.585c-0.613,1.927-1.396,5.237-0.612,7.799
		c0.02,0.063,0.037,0.128,0.059,0.19c0.166,0.487,0.394,0.943,0.693,1.354c0.481,0.662,1.148,1.208,2.057,1.571
		c0.598,0.239,1.191,0.336,1.774,0.336c0.205,0,0.408-0.013,0.609-0.039c0.242-0.031,0.48-0.08,0.716-0.146
		c0.067-0.019,0.13-0.053,0.196-0.074c0.543-0.176,1.069-0.424,1.565-0.758c0.169-0.114,0.335-0.232,0.497-0.362
		c0.777-0.62,1.469-1.407,2.042-2.282c0.403-0.616,0.747-1.272,1.016-1.946c0.08-0.2,0.157-0.4,0.223-0.602
		c0.572-1.732,1.268-3.63,2.22-4.904c-0.043-0.058-0.075-0.115-0.116-0.172c-0.554-0.787-0.888-1.56-1.042-2.303
		c-0.853-4.116,3.55-7.348,3.55-7.348s-2.255,6.217,2.25,6.35c0.504,0.015,0.912-0.057,1.25-0.195l0.475-0.276
		c1.816-1.456,0.481-6.093,1.411-10.9C139.841,102.404,140.217,101.536,140.75,100.657z"/>
	<path fill="none" stroke="#134982" stroke-width="3" stroke-miterlimit="10" d="M137.805,114.361
		c0.178-0.073,0.336-0.165,0.475-0.276L137.805,114.361z"/>
	<path fill="none" stroke="#134982" stroke-width="3" stroke-miterlimit="10" d="M194.592,151.114
		c-0.073-0.717-0.239-1.447-0.454-2.186c-0.354-1.22-0.854-2.467-1.373-3.731c-0.654-1.602-1.32-3.231-1.727-4.87
		c-0.237-0.531-0.354-0.93-0.354-0.93s-0.713,0.753-1.757,1.079c-0.126,0.04-0.255,0.076-0.391,0.101
		c-0.48,0.087-1.014,0.072-1.571-0.148c-2.063-0.813-2.625-3.188-2.625-3.188s1.165,0.111,2.097-1.482
		c0.48-0.822,0.893-2.112,1.055-4.095l-0.23-1.416c-0.644,0.603-1.417,1.031-2.254,1.292c-0.07,0.022-0.142,0.045-0.213,0.065
		c-0.774,3.977-0.965,8.822-0.642,11.458c0.558,4.542,4.077,7.31,4.628,9.906c0.098,0.46,0.141,0.849,0.161,1.206
		c0.095,1.648-0.547,2.279-1.278,2.466c-0.85,0.218-1.803-0.141-1.803-0.141s-0.004,2.507,1.477,3.962
		c0.604,0.594,1.447,1.017,2.648,1.017c1.879,0,3.252-1.471,4.016-3.713C194.624,155.938,194.844,153.599,194.592,151.114z"/>
	<path fill="none" stroke="#134982" stroke-width="3" stroke-miterlimit="10" d="M181.3,124.605
		c0.491-0.206,0.765-0.663,0.938-1.229c-0.079-0.2-0.156-0.4-0.223-0.602c-0.548-1.657-1.211-3.461-2.102-4.729l-0.177-0.103
		c-0.24,0.316-0.515,0.635-0.834,0.955c-0.784,0.784-1.622,1.339-2.481,1.711c-0.014,0.197-0.021,0.397-0.021,0.6
		c0,0.56,0.057,1.099,0.156,1.611C177.163,123.414,179.392,125.407,181.3,124.605z"/>
	<path fill="none" stroke="#134982" stroke-width="3" stroke-miterlimit="10" d="M187.261,130.248l-0.271-1.664
		c-0.411-0.165-0.814-0.361-1.197-0.619c-0.169-0.114-0.335-0.232-0.497-0.362c-0.777-0.62-1.47-1.407-2.042-2.282
		c-0.402-0.616-0.746-1.272-1.016-1.946c-0.173,0.566-0.446,1.023-0.938,1.229c-1.908,0.801-4.137-1.192-4.743-1.787
		c-0.103-0.101-0.164-0.166-0.164-0.166s-1.99,6.342,3.093,8.66c1.306,0.595,3.416,0.821,5.309,0.292
		c0.071-0.02,0.143-0.042,0.213-0.065C185.844,131.279,186.617,130.851,187.261,130.248z"/>
	<path fill="none" stroke="#134982" stroke-width="3" stroke-miterlimit="10" d="M194.84,139.741
		c-0.058-0.1-0.102-0.216-0.149-0.328c-0.227-0.529-0.355-1.188-0.427-1.957c-0.11-1.192-0.096-2.643-0.118-4.29
		c-0.031-2.2-0.145-4.74-0.743-7.444c-0.166,0.487-0.394,0.943-0.692,1.354c-0.482,0.662-1.148,1.208-2.058,1.571
		c-0.598,0.239-1.191,0.336-1.774,0.336c-0.205,0-0.407-0.013-0.608-0.039c-0.242-0.031-0.48-0.08-0.716-0.146
		c0.013,0.406,0.017,0.79,0.014,1.157c-0.004,0.626-0.033,1.187-0.076,1.709c-0.162,1.982-0.574,3.273-1.055,4.095
		c-0.932,1.593-2.097,1.482-2.097,1.482s0.563,2.375,2.625,3.188c0.558,0.22,1.091,0.235,1.571,0.148
		c0.136-0.024,0.265-0.061,0.391-0.101c1.044-0.325,1.757-1.079,1.757-1.079s0.117,0.398,0.354,0.93
		c0.353,0.793,0.973,1.881,1.871,2.396c0.118,0.068,0.24,0.129,0.368,0.175c0.626,0.224,1.244,0.197,1.813,0.051
		c1.449-0.373,2.563-1.551,2.563-1.551S195.779,141.38,194.84,139.741z"/>
	<path fill="none" stroke="#134982" stroke-width="3" stroke-miterlimit="10" d="M192.849,117.732
		c-0.308-0.966-0.571-1.585-0.571-1.585c-0.021,0.047-0.042,0.091-0.063,0.138c-0.351,0.79-0.745,1.449-1.163,1.954
		c-0.469,0.565-0.965,0.935-1.459,1.073c-1.642,0.457-3.253-1.647-3.69-7.664c-0.157-2.162-0.538-4.199-1.163-5.977
		c-1.363-3.878-3.895-6.523-7.837-6.523c-2.396,0-4.059,0.075-5.944,1.351c0.533,0.879,0.908,1.748,1.06,2.527
		c1.135,5.872-1.115,11.497,3.135,11.372c4.505-0.132,2.25-6.35,2.25-6.35s4.403,3.231,3.55,7.348
		c-0.166,0.798-0.527,1.628-1.158,2.476c0.041,0.055,0.079,0.117,0.119,0.174c0.891,1.269,1.554,3.072,2.102,4.729
		c0.066,0.202,0.144,0.402,0.223,0.602c0.27,0.673,0.613,1.33,1.016,1.946c0.572,0.875,1.265,1.662,2.042,2.282
		c0.162,0.129,0.328,0.248,0.497,0.362c0.383,0.257,0.786,0.454,1.197,0.619c0.188,0.075,0.372,0.159,0.564,0.213
		c0.235,0.066,0.474,0.115,0.716,0.146c0.201,0.026,0.403,0.039,0.608,0.039c0.583,0,1.177-0.097,1.774-0.336
		c0.909-0.364,1.575-0.91,2.058-1.571c0.299-0.412,0.526-0.868,0.692-1.354c0.021-0.063,0.039-0.127,0.059-0.19
		C194.245,122.969,193.462,119.659,192.849,117.732z"/>
	<path fill="none" stroke="#134982" stroke-width="3" stroke-miterlimit="10" d="M165.56,114.491
		c-0.094-0.954-0.019-1.894,0.079-2.811c-0.899,0.747-2.09,1.344-3.617,1.366c0.646,0.362,0.976,0.931,1.276,1.573
		c0.279,0.6,0.535,1.264,1.001,1.89c0.562,0.757,1.309,0.856,2.069,0.636C165.872,116.253,165.646,115.366,165.56,114.491z"/>
	<path fill="none" stroke="#134982" stroke-width="3" stroke-miterlimit="10" d="M148.202,116.857
		c0.393-0.529,0.636-1.085,0.87-1.606c-0.777-0.102-1.442-0.359-2.026-0.69l-0.89-0.05c-0.07,0.882-0.278,1.776-0.755,2.678
		C146.395,117.703,147.459,117.857,148.202,116.857z"/>
	<path fill="none" stroke="#134982" stroke-width="3" stroke-miterlimit="10" d="M154.496,114.982
		c-0.178-0.285-0.367-0.558-0.576-0.796c-0.467,0.269-1.001,0.486-1.569,0.674c-0.335,0.111-0.67,0.224-1.042,0.3
		c-0.828,0.17-1.565,0.177-2.236,0.089c-0.234,0.521-0.477,1.078-0.87,1.606c-0.743,1-1.808,0.846-2.801,0.331
		c-0.197,0.372-0.423,0.745-0.72,1.118c-0.403,0.507-0.92,0.986-1.512,1.411c0.563,1.243,1.607,2.432,3.52,3.134
		c4.778,1.753,8.481-0.956,8.882-3.698C155.753,117.907,155.293,116.258,154.496,114.982z"/>
	<path fill="none" stroke="#134982" stroke-width="3" stroke-miterlimit="10" d="M153.556,96.181
		c-3.437-4.582-10.14,0.087-12.805,4.476c-0.534,0.879-0.909,1.748-1.06,2.527c-0.929,4.807,0.406,9.444-1.411,10.9
		c-0.139,0.111-0.296,0.204-0.475,0.276c-0.338,0.138-0.745,0.209-1.25,0.195c-4.505-0.132-2.25-6.35-2.25-6.35
		s-4.403,3.231-3.55,7.348c0.154,0.744,0.488,1.516,1.042,2.303c0.041,0.058,0.073,0.115,0.116,0.172
		c0.253,0.34,0.548,0.683,0.892,1.026c0.784,0.784,1.623,1.339,2.481,1.711c2.807,1.215,5.826,0.424,7.881-1.05
		c0.592-0.425,1.109-0.903,1.512-1.411c0.297-0.374,0.523-0.746,0.72-1.118c0.477-0.901,0.685-1.795,0.755-2.678
		c0.014-0.175,0.031-0.35,0.034-0.524c-1.713-1.402-2.372-3.421-2.372-3.421s1.003,0.316,2.163,0.435
		c-0.156-1.525-0.219-2.979,0.575-4.318c2-3.375,5.5-2.75,7.25-5.125C154.957,99.994,154.45,97.373,153.556,96.181z"/>
	<path fill="none" stroke="#134982" stroke-width="3" stroke-miterlimit="10" d="M169.764,114.654c0,0-1.731,2.011-3.396,2.492
		c-0.761,0.22-1.508,0.121-2.069-0.636c-0.466-0.626-0.722-1.291-1.001-1.89c-0.301-0.643-0.63-1.211-1.276-1.573
		c-0.271-0.152-0.596-0.269-1.001-0.339c-0.321-0.055-0.637-0.021-0.943,0.076c-0.881,0.277-1.675,1.117-2.251,2.146
		c-0.688,1.227-1.064,2.725-0.896,3.875c0.401,2.742,4.103,5.451,8.882,3.698c1.636-0.601,2.637-1.559,3.247-2.6
		C170.463,117.504,169.764,114.654,169.764,114.654z"/>
	<path fill="none" stroke="#134982" stroke-width="3" stroke-miterlimit="10" d="M154.856,104.983
		c-1.549-1.11-3.509-1.662-4.626-0.673c-1.726,1.528-0.62,2.996-0.788,4.958c-0.145,1.701-1.938,1.887-3.461,1.731
		c-1.159-0.118-2.163-0.435-2.163-0.435s0.659,2.02,2.372,3.421c0.258,0.211,0.549,0.4,0.855,0.574
		c0.583,0.332,1.249,0.589,2.026,0.69c0.671,0.088,1.408,0.081,2.236-0.089c0.373-0.077,0.707-0.189,1.042-0.3
		c0.568-0.188,1.102-0.406,1.569-0.674c1.406-0.809,2.35-1.938,2.858-3.122C154.73,109.281,154.163,106.755,154.856,104.983z"/>
	<path fill="none" stroke="#134982" stroke-width="3" stroke-miterlimit="10" d="M177.402,108.047c0,0,2.255,6.217-2.25,6.35
		c-4.25,0.125-2-5.5-3.135-11.372c-0.151-0.78-0.526-1.648-1.06-2.527c-2.666-4.389-9.369-9.058-12.806-4.476
		c-0.895,1.192-1.4,3.813-0.25,5.375c0.123,0.167,0.256,0.315,0.395,0.455c1.163,1.168,2.848,1.479,4.401,2.333
		c0.906,0.499,1.769,1.181,2.454,2.337c0.459,0.774,0.625,1.587,0.659,2.429c0.035,0.88-0.072,1.793-0.173,2.729
		c-0.098,0.917-0.173,1.857-0.079,2.811c0.086,0.875,0.313,1.762,0.809,2.654c1.664-0.481,3.396-2.492,3.396-2.492
		s0.699,2.85-0.704,5.249c2.025,1.244,4.783,1.821,7.361,0.705c0.859-0.372,1.697-0.927,2.481-1.711
		c0.319-0.32,0.594-0.639,0.834-0.955c0.019-0.024,0.04-0.047,0.058-0.071c0.631-0.847,0.992-1.678,1.158-2.476
		C181.806,111.279,177.402,108.047,177.402,108.047z"/>
</g>
<g id="Testo">
	<g>
		<path fill="#134982" d="M52.769,213.27l0.639-0.41l7.845,12.242l-0.639,0.409l-0.498-0.776c-0.436-0.68-0.907-1.148-1.414-1.408
			c-0.353-0.196-0.776-0.249-1.271-0.159c-0.357,0.05-1.123,0.451-2.297,1.204l-15.402,9.87c-1.197,0.767-1.905,1.31-2.123,1.628
			c-0.218,0.318-0.316,0.743-0.293,1.272c0.022,0.529,0.244,1.122,0.665,1.778l0.498,0.776l-0.639,0.41l-7.845-12.242l0.639-0.409
			l0.498,0.776c0.436,0.68,0.907,1.148,1.414,1.408c0.353,0.196,0.781,0.255,1.282,0.177c0.358-0.05,1.124-0.452,2.297-1.204
			l15.402-9.87c1.197-0.768,1.903-1.313,2.117-1.638c0.215-0.323,0.311-0.75,0.288-1.28c-0.023-0.529-0.245-1.122-0.665-1.778
			L52.769,213.27z"/>
		<path fill="#134982" d="M22.809,213.271l11.026-19.081l-11.126,4.377c-1.552,0.61-2.514,1.246-2.886,1.907
			c-0.498,0.9-0.451,2.065,0.14,3.492l-0.706,0.278l-3.364-8.55l0.706-0.277c0.571,1.039,1.041,1.702,1.411,1.99
			c0.371,0.287,0.848,0.438,1.433,0.449c0.585,0.013,1.488-0.222,2.71-0.702l21.545-8.477l0.255,0.648l-14.661,25.977l16.45-6.472
			c1.489-0.586,2.36-1.321,2.614-2.207s0.208-1.769-0.137-2.646l-0.24-0.61l0.706-0.277l3.611,9.179l-0.706,0.278
			c-0.573-1.42-1.256-2.297-2.049-2.632c-0.792-0.335-1.876-0.231-3.25,0.309l-18.263,7.186l-0.469,0.824
			c-0.472,0.817-0.733,1.479-0.785,1.983c-0.051,0.505,0.066,1.156,0.351,1.955l-0.706,0.278L22.809,213.271z"/>
		<path fill="#134982" d="M10.222,156.777l9.239-0.786l0.051,0.839c-2.296,0.537-4.103,1.623-5.422,3.256
			c-1.318,1.635-1.923,3.353-1.814,5.154c0.084,1.392,0.523,2.472,1.316,3.238s1.674,1.121,2.643,1.062
			c0.614-0.037,1.152-0.213,1.612-0.528c0.618-0.435,1.214-1.108,1.788-2.02c0.412-0.669,1.12-2.197,2.126-4.587
			c1.4-3.345,2.775-5.626,4.126-6.845c1.352-1.205,2.941-1.863,4.77-1.974c2.32-0.141,4.371,0.643,6.152,2.35
			c1.782,1.707,2.756,3.952,2.925,6.736c0.053,0.873,0.014,1.704-0.116,2.493c-0.13,0.788-0.405,1.784-0.826,2.988
			c-0.233,0.671-0.337,1.219-0.312,1.642c0.021,0.354,0.181,0.722,0.478,1.101c0.297,0.38,0.732,0.675,1.307,0.887l0.046,0.758
			l-10.48,0.635l-0.046-0.757c2.911-0.779,5.09-2.072,6.535-3.879c1.445-1.807,2.107-3.699,1.988-5.678
			c-0.093-1.528-0.583-2.722-1.47-3.578c-0.887-0.857-1.884-1.253-2.989-1.186c-0.655,0.04-1.279,0.252-1.872,0.638
			c-0.593,0.385-1.145,0.949-1.654,1.692s-1.153,2.042-1.931,3.897c-1.089,2.6-2.037,4.479-2.843,5.637
			c-0.806,1.159-1.731,2.067-2.773,2.727s-2.211,1.027-3.508,1.106c-2.211,0.134-4.144-0.564-5.797-2.094
			c-1.654-1.529-2.556-3.529-2.706-6c-0.054-0.9,0.002-1.78,0.169-2.64c0.125-0.651,0.381-1.451,0.769-2.399s0.57-1.606,0.548-1.975
			c-0.021-0.354-0.147-0.628-0.378-0.819c-0.23-0.191-0.768-0.351-1.611-0.478L10.222,156.777z"/>
		<path fill="#134982" d="M10.673,146.658l2.291-14.171l0.749,0.121l-0.114,0.708c-0.172,1.066-0.18,1.817-0.021,2.251
			c0.158,0.434,0.419,0.767,0.784,0.999s1.329,0.475,2.895,0.728l13.442,2.173c2.457,0.397,4.113,0.475,4.969,0.232
			c0.856-0.242,1.616-0.746,2.28-1.511c0.664-0.765,1.101-1.795,1.31-3.091c0.24-1.484,0.11-2.804-0.389-3.958
			c-0.499-1.154-1.293-2.085-2.384-2.795s-3.093-1.3-6.008-1.771l-11.195-1.81c-1.228-0.198-2.126-0.212-2.694-0.041
			s-0.984,0.437-1.25,0.795c-0.409,0.557-0.703,1.389-0.881,2.496l-0.749-0.121l1.535-9.495l0.749,0.121l-0.092,0.567
			c-0.124,0.769-0.072,1.436,0.155,1.999c0.228,0.563,0.633,1.009,1.217,1.339c0.403,0.245,1.166,0.458,2.286,0.639l10.426,1.686
			c3.226,0.521,5.52,1.11,6.882,1.767c1.362,0.657,2.51,1.905,3.445,3.746c0.935,1.841,1.172,4.185,0.712,7.033
			c-0.384,2.375-0.998,4.16-1.842,5.353c-1.149,1.628-2.458,2.698-3.925,3.208s-3.342,0.582-5.623,0.213l-13.442-2.173
			c-1.579-0.255-2.575-0.326-2.988-0.213c-0.413,0.114-0.769,0.368-1.068,0.762c-0.299,0.395-0.536,1.174-0.71,2.336L10.673,146.658
			z"/>
		<path fill="#134982" d="M35.583,107.621l7.121,2.958c1.389,0.577,2.298,0.855,2.729,0.834s0.844-0.205,1.239-0.551
			c0.396-0.346,0.834-1.1,1.317-2.262l0.701,0.291l-5.419,13.049l-0.701-0.291c0.493-1.187,0.716-2.038,0.671-2.552
			c-0.045-0.515-0.209-0.931-0.492-1.248s-1.119-0.765-2.507-1.341l-16.667-6.922c-1.389-0.577-2.298-0.854-2.729-0.833
			s-0.842,0.202-1.235,0.542c-0.393,0.34-0.833,1.097-1.321,2.271l-0.701-0.291l4.649-11.193c1.531-3.687,3.286-6.06,5.265-7.118
			c1.979-1.058,3.954-1.178,5.923-0.36c1.667,0.692,2.878,1.803,3.635,3.331c0.757,1.529,0.973,3.291,0.646,5.287
			C37.503,102.571,36.794,104.704,35.583,107.621z M23.007,102.398l11.099,4.609c0.199-0.406,0.342-0.716,0.431-0.931
			c0.64-1.541,0.675-2.917,0.105-4.131c-0.569-1.214-1.813-2.219-3.732-3.016c-1.906-0.792-3.475-0.955-4.705-0.488
			c-1.229,0.466-2.188,1.526-2.875,3.181L23.007,102.398z"/>
		<path fill="#134982" d="M48.367,83.292l6.316,4.565c1.219,0.881,2.04,1.361,2.464,1.439s0.866-0.002,1.327-0.243
			c0.46-0.24,1.063-0.876,1.808-1.906l0.615,0.444L52.56,99.125l-0.615-0.444c0.753-1.042,1.167-1.818,1.241-2.329
			c0.074-0.511,0.01-0.954-0.192-1.328c-0.202-0.374-0.913-1.001-2.131-1.882L36.236,82.57c-1.219-0.881-2.041-1.361-2.464-1.439
			s-0.866,0.002-1.327,0.243c-0.461,0.241-1.063,0.876-1.808,1.906l-0.615-0.444l7.568-10.471c1.97-2.726,3.6-4.584,4.89-5.575
			c1.29-0.991,2.73-1.519,4.32-1.583c1.591-0.065,3.067,0.395,4.43,1.38c1.662,1.201,2.604,2.793,2.825,4.774
			c0.135,1.261-0.123,2.703-0.773,4.325l11.545,0.096c1.499,0.004,2.479-0.056,2.938-0.179c0.672-0.206,1.241-0.596,1.707-1.171
			l0.615,0.445l-5.129,7.097l-15.521-0.161L48.367,83.292z M37.314,75.303l9.873,7.136l0.685-0.947
			c1.113-1.54,1.805-2.795,2.075-3.764s0.195-1.938-0.226-2.909c-0.42-0.97-1.223-1.884-2.409-2.741
			c-1.717-1.241-3.276-1.756-4.677-1.546c-1.4,0.211-2.746,1.208-4.035,2.992L37.314,75.303z"/>
		<path fill="#134982" d="M61.187,48.461l7.333,8.624l0.422-0.359c1.344-1.142,1.959-2.392,1.846-3.75
			c-0.114-1.357-0.787-2.93-2.019-4.717l0.593-0.505l9.433,11.092L78.2,59.351c-1.152-1.102-2.257-1.867-3.313-2.297
			c-1.056-0.43-1.963-0.551-2.72-0.365c-0.757,0.186-1.641,0.709-2.651,1.568l5.075,5.968c0.992,1.167,1.648,1.838,1.968,2.014
			c0.32,0.176,0.687,0.233,1.099,0.169c0.413-0.063,0.921-0.352,1.525-0.866l1.266-1.076c1.979-1.683,3.175-3.489,3.588-5.42
			c0.414-1.93,0.083-4.055-0.99-6.373l0.578-0.491l4.773,7.544l-18.31,15.57l-0.492-0.578l0.703-0.598
			c0.614-0.522,1.016-1.052,1.205-1.59c0.147-0.376,0.143-0.803-0.013-1.282c-0.098-0.347-0.599-1.052-1.502-2.114L58.139,55.198
			c-0.815-0.958-1.341-1.524-1.579-1.699c-0.415-0.276-0.846-0.393-1.296-0.352c-0.644,0.045-1.309,0.36-1.997,0.944l-0.703,0.598
			l-0.491-0.578l17.732-15.079l5.327,6.265l-0.594,0.505c-1.604-1.274-2.962-2.012-4.076-2.213s-2.303-0.034-3.569,0.504
			c-0.743,0.309-1.917,1.145-3.52,2.508L61.187,48.461z"/>
		<path fill="#134982" d="M103.853,40.622l-0.699-19.814l10.31-4.676l0.313,0.691l-0.822,0.373c-0.747,0.339-1.285,0.74-1.615,1.205
			c-0.232,0.316-0.349,0.721-0.349,1.217c-0.001,0.361,0.283,1.17,0.854,2.428l7.572,16.697c0.587,1.295,1.023,2.073,1.307,2.335
			s0.692,0.417,1.226,0.468c0.533,0.051,1.155-0.084,1.865-0.406l0.822-0.373l0.313,0.691l-13.224,5.997l-0.313-0.691l0.822-0.373
			c0.747-0.339,1.285-0.741,1.615-1.206c0.232-0.315,0.346-0.727,0.341-1.235c0.001-0.361-0.286-1.176-0.862-2.446l-8.513-18.771
			l0.766,27.508l-0.448,0.204L84.87,31.982l8.089,17.836c0.565,1.245,0.943,1.997,1.135,2.255c0.444,0.55,1.026,0.897,1.746,1.044
			c0.72,0.146,1.658-0.043,2.816-0.568l0.313,0.691l-8.666,3.93l-0.313-0.691l0.262-0.119c0.566-0.242,1.048-0.569,1.446-0.982
			c0.398-0.413,0.648-0.838,0.75-1.275c0.103-0.437,0.089-0.979-0.039-1.626c-0.038-0.148-0.313-0.789-0.827-1.922l-7.268-16.025
			c-0.582-1.282-1.013-2.051-1.293-2.307c-0.281-0.255-0.688-0.409-1.222-0.459c-0.534-0.051-1.155,0.084-1.865,0.407l-0.803,0.364
			l-0.313-0.691l10.347-4.692L103.853,40.622z"/>
		<path fill="#134982" d="M159.923,10.19l0.732,8.211l-0.797,0.071c-0.515-1.766-1.157-3.085-1.928-3.957
			c-0.771-0.871-1.677-1.446-2.717-1.724s-2.691-0.316-4.952-0.114l-2.165,0.193l1,11.214l0.736-0.065
			c1.28-0.114,2.298-0.661,3.055-1.642c0.757-0.98,1.193-2.745,1.309-5.295l0.715-0.064l1.293,14.503l-0.715,0.064
			c-0.335-1.604-0.825-2.939-1.469-4.007c-0.435-0.716-1.012-1.265-1.732-1.647s-1.496-0.536-2.327-0.462l-0.735,0.066l0.753,8.436
			c0.107,1.198,0.206,1.924,0.297,2.177c0.146,0.412,0.41,0.711,0.791,0.897c0.38,0.186,1.143,0.228,2.286,0.125l1.634-0.146
			c1.321-0.118,2.563-0.541,3.727-1.269c1.163-0.728,2.043-1.593,2.641-2.593c0.597-1,1.079-2.368,1.445-4.103l0.776-0.069
			l-0.488,8.835l-24.308,2.168l-0.067-0.756l1.552-0.139c1.198-0.107,2.008-0.34,2.429-0.7c0.42-0.36,0.675-0.812,0.764-1.355
			c0.035-0.222-0.007-1.008-0.128-2.356l-0.628-7.047l-8.967,0.8l-3.346,6.578c-0.527,1.022-0.826,1.673-0.896,1.954
			c-0.116,0.395-0.158,0.77-0.126,1.123c0.046,0.518,0.328,0.946,0.846,1.284c0.517,0.338,1.397,0.466,2.639,0.382l0.067,0.756
			l-8.988,0.802l-0.067-0.756c0.728-0.147,1.381-0.477,1.96-0.988c0.579-0.511,1.289-1.594,2.129-3.248l9.622-18.853
			c0.795-1.553,1.176-2.514,1.143-2.882c-0.029-0.327-0.163-0.627-0.399-0.901c-0.237-0.274-0.552-0.455-0.944-0.544
			c-0.392-0.088-1.229-0.076-2.508,0.039l-0.067-0.756L159.923,10.19z M142.567,26.13l-1.13-12.665l-6.918,13.383L142.567,26.13z"/>
		<path fill="#134982" d="M176.294,39.796l0.223-0.725l0.883,0.271c0.771,0.237,1.399,0.298,1.885,0.183
			c0.486-0.115,0.892-0.352,1.216-0.71c0.202-0.238,0.515-1.043,0.937-2.416l5.375-17.485c0.418-1.359,0.607-2.23,0.568-2.615
			c-0.04-0.384-0.239-0.771-0.599-1.16c-0.359-0.389-0.911-0.698-1.656-0.927l-0.882-0.271l0.223-0.725l11.898,3.658
			c3.176,0.977,5.598,2.193,7.267,3.65c2.04,1.786,3.342,3.938,3.904,6.457c0.563,2.519,0.429,5.131-0.402,7.836
			c-0.575,1.869-1.405,3.499-2.49,4.888c-1.085,1.39-2.263,2.451-3.531,3.184c-1.27,0.733-2.624,1.218-4.063,1.455
			c-1.439,0.237-3.112,0.249-5.021,0.034c-0.846-0.088-2.124-0.396-3.836-0.922L176.294,39.796z M194.136,17.84L187.76,38.58
			c-0.337,1.098-0.492,1.787-0.464,2.067s0.146,0.524,0.354,0.731c0.293,0.305,0.772,0.559,1.439,0.764
			c2.182,0.671,4.077,0.438,5.686-0.698c2.187-1.53,3.931-4.413,5.232-8.647c1.049-3.411,1.351-6.3,0.905-8.668
			c-0.359-1.855-1.116-3.275-2.272-4.26C197.824,19.174,196.322,18.498,194.136,17.84z"/>
		<path fill="#134982" d="M217.912,55.599l-0.359,0.668l-12.803-6.892l0.359-0.668l0.813,0.438c0.71,0.382,1.35,0.563,1.919,0.544
			c0.403,0,0.8-0.16,1.189-0.478c0.287-0.218,0.762-0.94,1.423-2.168l8.671-16.107c0.675-1.252,1.029-2.07,1.065-2.454
			s-0.084-0.803-0.361-1.254c-0.277-0.452-0.758-0.862-1.444-1.232l-0.813-0.438l0.359-0.668l12.803,6.892l-0.359,0.668
			l-0.813-0.437c-0.711-0.383-1.351-0.564-1.92-0.544c-0.404,0-0.806,0.156-1.207,0.468c-0.288,0.217-0.763,0.94-1.423,2.168
			l-8.672,16.107c-0.674,1.252-1.025,2.072-1.056,2.459s0.093,0.807,0.37,1.259c0.277,0.452,0.759,0.863,1.444,1.232L217.912,55.599
			z"/>
		<path fill="#134982" d="M258.857,52.512l-6.294,7.515l-0.582-0.487c1.019-2.643,1.273-5.086,0.765-7.332
			c-0.51-2.245-1.597-4.066-3.264-5.462c-1.593-1.334-3.294-1.997-5.104-1.987s-3.605,0.632-5.389,1.867s-3.382,2.696-4.795,4.383
			c-1.712,2.044-2.973,4.038-3.78,5.983c-0.809,1.944-0.979,3.728-0.51,5.351s1.441,3.054,2.92,4.292
			c0.513,0.43,1.086,0.816,1.718,1.158c0.632,0.342,1.318,0.646,2.061,0.91l3.713-4.434c0.702-0.838,1.099-1.429,1.19-1.772
			c0.091-0.343,0.039-0.765-0.156-1.267c-0.194-0.502-0.549-0.968-1.063-1.398l-0.55-0.461l0.487-0.582l10.36,8.678l-0.487,0.582
			c-0.83-0.605-1.468-0.957-1.913-1.054c-0.445-0.096-0.909-0.026-1.394,0.21c-0.261,0.121-0.716,0.568-1.366,1.344l-3.713,4.434
			c-1.872-0.533-3.674-1.262-5.405-2.187s-3.389-2.049-4.971-3.375c-2.023-1.694-3.473-3.376-4.348-5.046
			c-0.876-1.669-1.449-3.38-1.721-5.132c-0.271-1.752-0.226-3.431,0.138-5.035c0.478-2.061,1.468-3.988,2.969-5.78
			c2.687-3.207,6.082-4.973,10.188-5.297c4.106-0.324,7.867,0.945,11.284,3.807c1.059,0.887,1.942,1.77,2.65,2.648
			c0.391,0.47,0.938,1.334,1.642,2.592c0.703,1.257,1.149,1.965,1.338,2.124c0.293,0.246,0.655,0.367,1.087,0.362
			c0.432-0.004,1.003-0.217,1.713-0.639L258.857,52.512z"/>
		<path fill="#134982" d="M271.458,68.637l-6.176,21.155l9.768-6.896c1.362-0.962,2.146-1.808,2.35-2.538
			c0.27-0.993-0.053-2.113-0.966-3.359l0.62-0.438l5.299,7.505l-0.62,0.438c-0.801-0.874-1.416-1.406-1.844-1.598
			s-0.928-0.224-1.499-0.096c-0.571,0.127-1.393,0.569-2.465,1.326L257.011,97.49l-0.402-0.57l8.067-28.717L250.235,78.4
			c-1.308,0.923-1.979,1.845-2.015,2.766c-0.036,0.92,0.218,1.766,0.763,2.537l0.378,0.536l-0.62,0.438l-5.689-8.058l0.62-0.438
			c0.895,1.243,1.767,1.933,2.616,2.069c0.85,0.136,1.877-0.221,3.083-1.073l16.032-11.32l0.261-0.912
			c0.264-0.906,0.36-1.61,0.29-2.113c-0.07-0.502-0.339-1.108-0.806-1.816l0.62-0.438L271.458,68.637z"/>
		<path fill="#134982" d="M266.325,114.531l-0.692,0.31l-5.93-13.276l0.693-0.309l0.376,0.842c0.329,0.736,0.725,1.271,1.188,1.604
			c0.319,0.247,0.73,0.362,1.233,0.348c0.361,0.003,1.178-0.279,2.451-0.848l16.703-7.459c1.298-0.58,2.079-1.011,2.342-1.293
			c0.264-0.282,0.424-0.687,0.48-1.214s-0.074-1.146-0.392-1.857l-0.377-0.843l0.693-0.31l5.929,13.276l-0.692,0.31l-0.376-0.843
			c-0.329-0.737-0.726-1.271-1.188-1.604c-0.319-0.247-0.733-0.368-1.241-0.366c-0.361-0.003-1.178,0.279-2.451,0.848l-16.703,7.46
			c-1.299,0.58-2.078,1.014-2.338,1.303c-0.261,0.288-0.419,0.696-0.476,1.223c-0.057,0.527,0.073,1.146,0.392,1.857
			L266.325,114.531z"/>
		<path fill="#134982" d="M299.57,134.401l-7.321,1.745l-0.172-0.718c1.588-0.828,2.689-1.589,3.304-2.284
			c0.614-0.694,1.033-1.546,1.257-2.555c0.119-0.563,0.028-1.475-0.272-2.739l-0.48-2.015l-20.867,4.972
			c-1.383,0.33-2.229,0.612-2.539,0.847c-0.31,0.235-0.54,0.606-0.693,1.114s-0.138,1.146,0.046,1.918l0.214,0.898l-0.738,0.176
			l-3.374-14.164l0.737-0.176l0.214,0.897c0.188,0.785,0.478,1.383,0.871,1.795c0.269,0.302,0.652,0.498,1.152,0.59
			c0.354,0.07,1.209-0.056,2.565-0.379l20.867-4.972l-0.466-1.955c-0.434-1.822-1.135-3.053-2.103-3.694
			c-1.354-0.9-3.063-1.266-5.131-1.097l-0.181-0.758l7.321-1.744L299.57,134.401z"/>
		<path fill="#134982" d="M280.742,155.897l-0.179-9.822l-2.728-1.119c-0.909-0.367-1.658-0.544-2.245-0.534
			c-0.779,0.014-1.348,0.339-1.706,0.975c-0.212,0.373-0.359,1.285-0.442,2.736l-0.758,0.014l-0.169-9.248l0.759-0.014
			c0.168,0.995,0.597,1.808,1.285,2.438c0.688,0.63,2.101,1.397,4.236,2.302l22.367,9.541l0.007,0.39l-22.618,10.442
			c-2.143,0.996-3.488,1.807-4.037,2.432c-0.416,0.473-0.649,1.133-0.703,1.982l-0.758,0.014l-0.245-13.451l0.759-0.014l0.01,0.554
			c0.02,1.08,0.184,1.836,0.492,2.268c0.225,0.297,0.542,0.441,0.952,0.435c0.246-0.005,0.498-0.051,0.756-0.138
			c0.123-0.029,0.632-0.244,1.526-0.643L280.742,155.897z M282.247,155.172l9.5-4.316l-9.653-4.091L282.247,155.172z"/>
		<path fill="#134982" d="M295.369,196.608l-7.381-1.474l0.145-0.724c1.788-0.09,3.107-0.321,3.956-0.695
			c0.848-0.375,1.584-0.974,2.209-1.797c0.343-0.462,0.642-1.329,0.896-2.603l0.405-2.031l-21.036-4.197
			c-1.395-0.278-2.281-0.375-2.661-0.291c-0.379,0.085-0.744,0.325-1.096,0.723c-0.351,0.397-0.604,0.984-0.759,1.762l-0.181,0.905
			l-0.744-0.148l2.849-14.279l0.744,0.148l-0.181,0.905c-0.157,0.791-0.144,1.456,0.041,1.995c0.118,0.386,0.386,0.725,0.802,1.017
			c0.292,0.212,1.122,0.454,2.489,0.728l21.037,4.197l0.393-1.971c0.367-1.838,0.244-3.249-0.368-4.235
			c-0.853-1.383-2.254-2.43-4.204-3.139l0.152-0.765l7.381,1.473L295.369,196.608z"/>
		<path fill="#134982" d="M262.37,206.591l-0.703-0.284l5.438-13.484l0.704,0.283l-0.346,0.856
			c-0.302,0.747-0.411,1.403-0.329,1.968c0.045,0.4,0.247,0.777,0.606,1.129c0.248,0.262,1.019,0.653,2.312,1.175l16.966,6.842
			c1.318,0.531,2.171,0.794,2.558,0.788c0.386-0.007,0.788-0.173,1.206-0.498c0.419-0.325,0.773-0.849,1.065-1.571l0.345-0.856
			l0.704,0.284l-5.438,13.484l-0.704-0.283l0.345-0.856c0.302-0.748,0.412-1.403,0.329-1.968c-0.044-0.401-0.244-0.783-0.598-1.147
			c-0.248-0.263-1.02-0.654-2.313-1.176l-16.966-6.841c-1.318-0.532-2.172-0.792-2.561-0.778c-0.389,0.013-0.792,0.182-1.211,0.507
			c-0.418,0.325-0.773,0.849-1.064,1.571L262.37,206.591z"/>
		<path fill="#134982" d="M275.66,238.701l-8.02-4.654l0.439-0.717c2.188,0.877,4.292,1.024,6.309,0.441
			c2.018-0.583,3.498-1.644,4.441-3.182c0.729-1.189,0.989-2.325,0.779-3.408s-0.729-1.878-1.557-2.386
			c-0.524-0.321-1.065-0.485-1.623-0.49c-0.755,0.002-1.63,0.211-2.623,0.629c-0.721,0.312-2.178,1.158-4.372,2.539
			c-3.064,1.938-5.5,3.018-7.305,3.242c-1.799,0.212-3.479-0.16-5.04-1.118c-1.981-1.216-3.213-3.033-3.693-5.452
			c-0.48-2.421,0.009-4.819,1.467-7.196c0.457-0.746,0.966-1.404,1.524-1.977c0.559-0.571,1.355-1.229,2.39-1.975
			c0.576-0.416,0.976-0.805,1.196-1.166c0.187-0.304,0.266-0.695,0.24-1.176c-0.025-0.481-0.213-0.973-0.563-1.476l0.396-0.647
			l8.951,5.489l-0.396,0.647c-2.832-1.031-5.358-1.222-7.578-0.569c-2.22,0.65-3.848,1.821-4.884,3.512
			c-0.801,1.305-1.083,2.563-0.848,3.774s0.825,2.106,1.77,2.685c0.56,0.344,1.192,0.527,1.899,0.552
			c0.706,0.024,1.481-0.122,2.325-0.438s2.116-1.012,3.817-2.085c2.383-1.507,4.236-2.502,5.562-2.989
			c1.324-0.486,2.603-0.7,3.835-0.643c1.231,0.058,2.4,0.426,3.508,1.104c1.889,1.158,3.071,2.838,3.55,5.04
			c0.478,2.201,0.07,4.357-1.224,6.467c-0.472,0.769-1.022,1.457-1.652,2.065c-0.476,0.462-1.145,0.971-2.006,1.525
			c-0.861,0.554-1.388,0.988-1.581,1.304c-0.186,0.303-0.239,0.599-0.16,0.888s0.428,0.728,1.046,1.315L275.66,238.701z"/>
	</g>
	<g>
		<path fill="#134982" d="M108.743,290.851l0.442-1.462c3.44,0.806,3.893,0.474,4.745-2.343l3.53-11.675
			c0.624-2.063,0.539-2.324-1.078-2.954l-2.06-0.717l0.39-1.289c2.817,0.382,5.775,0.455,9.022,0.428l-5.311,17.565
			c-0.839,2.773-0.681,3.337,2.608,4.566l-0.442,1.462L108.743,290.851z"/>
		<path fill="#134982" d="M145.129,285.654c3.862,1.122,5.744,4.036,5.437,7.188c-0.666,6.818-9.465,9.119-12.461,8.826
			c-1.967-0.191-3.612-1.143-4.291-1.817c-0.589-0.667-0.765-1.181-0.662-1.78c0.061-0.626,0.822-1.251,1.304-1.565
			c0.462-0.338,0.918-0.384,1.319,0.129c0.995,0.91,2.572,2.553,5.053,2.795c2.526,0.247,4.484-1.548,4.864-5.438
			c0.384-3.935-2.24-5.725-4.587-5.954c-0.917-0.09-1.899,0.04-2.612,0.174l-0.16-1.596c3.777-0.782,6.688-2.168,6.966-5.007
			c0.255-2.615-1.283-3.961-3.34-4.162s-3.81,1.117-5.212,2.764l-1.033-1.207l2.227-2.468c1.313-1.203,3.441-2.191,5.922-1.949
			l0.045,0.004c4.158,0.406,6.363,3.014,6.04,6.321c-0.111,1.141-0.728,2.141-1.627,2.798c-0.756,0.581-1.729,1.072-3.183,1.855
			L145.129,285.654z"/>
		<path fill="#134982" d="M174.924,293.584l0.705,7.376l-4.493,0.43l-0.705-7.377l-10.797,1.032l-0.152-1.587
			c3.563-6.635,7.377-13.225,10.937-18.935l2.66-0.254l1.619,16.944l3.845-0.367l0.227,2.369L174.924,293.584z M169.102,280.108
			l-0.089,0.009c-2.011,3.508-4.255,7.647-6.498,12.261l7.689-0.734L169.102,280.108z"/>
		<path fill="#134982" d="M195.359,279.987c3.999-0.426,6.846,1.558,7.756,4.592c1.969,6.562-5.304,12.026-8.187,12.892
			c-1.894,0.567-3.776,0.312-4.66-0.057c-0.798-0.394-1.155-0.802-1.287-1.396c-0.181-0.603,0.287-1.47,0.613-1.943
			c0.3-0.488,0.704-0.703,1.27-0.381c1.266,0.465,3.348,1.388,5.736,0.672c2.431-0.729,3.563-3.133,2.439-6.877
			c-1.136-3.786-4.242-4.449-6.502-3.771c-0.882,0.265-1.742,0.758-2.352,1.151l-0.753-1.416c3.199-2.155,5.368-4.542,4.549-7.273
			c-0.756-2.518-2.689-3.181-4.669-2.587s-3.103,2.479-3.776,4.533l-1.413-0.725l1.125-3.128c0.76-1.612,2.354-3.333,4.742-4.05
			l0.043-0.013c4.002-1.2,7.031,0.377,7.986,3.561c0.329,1.098,0.138,2.257-0.445,3.206c-0.48,0.824-1.194,1.647-2.242,2.924
			L195.359,279.987z"/>
	</g>
	<circle fill="#134982" cx="73.132" cy="258.541" r="6.51"/>
	<circle fill="#134982" cx="238.676" cy="258.107" r="6.51"/>
</g>
</svg>
