<?xml version="1.0" encoding="utf-8"?>
<!-- Generator: Adobe Illustrator 16.0.0, SVG Export Plug-In . SVG Version: 6.00 Build 0)  -->
<!DOCTYPE svg PUBLIC "-//W3C//DTD SVG 1.1//EN" "http://www.w3.org/Graphics/SVG/1.1/DTD/svg11.dtd">
<svg version="1.1" id="Livello_1" xmlns="http://www.w3.org/2000/svg" xmlns:xlink="http://www.w3.org/1999/xlink" x="0px" y="0px"
	 width="793.7px" height="595.28px" viewBox="0 0 793.7 595.28" enable-background="new 0 0 793.7 595.28" xml:space="preserve">
<rect x="0.039" y="-0.098" display="none" fill="#F69799" width="793.946" height="595.492"/>
<linearGradient id="SVGID_1_" gradientUnits="userSpaceOnUse" x1="142.5005" y1="595.3936" x2="142.5005" y2="-0.0977">
	<stop  offset="0" style="stop-color:#EFF9FE"/>
	<stop  offset="1" style="stop-color:#E2ECF1"/>
</linearGradient>
<polygon fill="url(#SVGID_1_)" points="0.039,-0.098 284.962,-0.098 142.174,595.394 0.039,595.394 "/>
<g id="Ali_-_Basso">
	<path fill="none" stroke="#FFFFFF" stroke-width="5.9559" stroke-linejoin="round" stroke-miterlimit="10" d="M161.062,397.811
		c4.934-1.104,12.821-3.556,21.955-7.238c-2.267-1.357-4.181-2.54-5.689-3.517c-4.465-2.842-9.902-7.2-14.762-11.361
		c-0.365,6.78-5.978,12.191-12.875,12.191c-0.757,0-1.499-0.087-2.237-0.234c3.883,3.224,8.456,6.917,12.846,10.228
		C160.553,397.85,160.803,397.811,161.062,397.811z"/>
	<path fill="none" stroke="#FFFFFF" stroke-width="5.9559" stroke-linejoin="round" stroke-miterlimit="10" d="M203.634,401.035
		c-3.864,1.708-7.977,3.368-12.245,4.883c4.517-1.484,8.732-3.086,12.631-4.747C203.887,401.132,203.765,401.083,203.634,401.035z"
		/>
	<path fill="none" stroke="#FFFFFF" stroke-width="5.9559" stroke-linejoin="round" stroke-miterlimit="10" d="M265.631,431.005
		c1.767-0.919,3.238-2.373,4.132-4.162c0.645-1.259,1.036-2.685,1.036-4.219c0-3.087-1.49-5.774-3.781-7.513
		c-6.36,5.041-13.515,9.963-21.194,14.585C252.003,430.36,258.587,430.819,265.631,431.005z"/>
	<path fill="none" stroke="#FFFFFF" stroke-width="5.9559" stroke-linejoin="round" stroke-miterlimit="10" d="M159.694,412.563
		c-3.454-0.646-6.077-3.654-6.077-7.308c0-0.264,0.044-0.537,0.078-0.801c0.372-3.478,3.131-6.213,6.604-6.575
		c-4.391-3.311-8.963-7.004-12.846-10.228c-0.468-0.067-0.942-0.166-1.392-0.303c0.307,0.4,0.586,0.82,0.84,1.241
		c0.205,0.332,0.386,0.684,0.551,1.016c0.782,1.592,1.251,3.351,1.251,5.225c0,6.597-5.334,11.91-11.913,11.91
		c-2.829,0-5.437-0.978-7.479-2.629c-0.049-0.048-0.098-0.099-0.146-0.127c0,0,0,0-0.005,0c-1.241-0.996-2.853-2.461-4.748-4.249
		l0,0c4.557,5.11,10.194,10.306,16.606,15.376c1.572-1.192,3.522-1.915,5.641-1.915
		C151.132,413.196,155.474,412.963,159.694,412.563z"/>
	<path fill="none" stroke="#FFFFFF" stroke-width="5.9559" stroke-linejoin="round" stroke-miterlimit="10" d="M277.256,431.064
		c-4.005,0.068-7.878,0.038-11.625-0.06c-7.044-0.186-13.628-0.645-19.807-1.309c-12.856,7.756-27.181,14.683-41.805,19.958
		c26.928,9.7,54.817,13.763,76.186,6.886c0.674-0.233,1.358-0.42,2.019-0.663c0,0,0.942-0.509,2.427-1.34
		c3.326-2.324,5.509-6.192,5.509-10.559C290.16,436.847,284.382,431.064,277.256,431.064z"/>
	<path fill="none" stroke="#FFFFFF" stroke-width="5.9559" stroke-linejoin="round" stroke-miterlimit="10" d="M204.406,401.035
		c8.527-3.625,15.498-7.425,20.616-10.463c-0.166-0.077-0.336-0.136-0.493-0.204c-5.266,3.038-12.338,6.857-20.509,10.48
		C204.141,400.917,204.278,400.967,204.406,401.035z"/>
	<path fill="none" stroke="#FFFFFF" stroke-width="5.9559" stroke-linejoin="round" stroke-miterlimit="10" d="M178.538,363.728
		c-1.422-0.469-2.759-1.153-3.972-2.002c0.27,0.899,0.44,1.837,0.44,2.832c0,5.765-4.66,10.424-10.423,10.424
		c-0.435,0-0.875-0.039-1.295-0.099c4.225,4.271,8.753,8.529,11.718,10.354c1.592,0.988,4.542,2.824,8.509,5.131
		c6.433-2.619,13.461-5.842,20.504-9.651C195.173,375.958,186.289,370.272,178.538,363.728z"/>
	<path fill="none" stroke="#FFFFFF" stroke-width="5.9559" stroke-linejoin="round" stroke-miterlimit="10" d="M258.338,387.905
		c-6.897,0-12.504-5.421-12.871-12.211c-4.865,4.161-10.287,8.52-14.761,11.361c-1.508,0.977-3.419,2.159-5.685,3.517
		c-5.118,3.038-12.089,6.838-20.616,10.463c-0.128,0.048-0.25,0.097-0.386,0.136c-3.898,1.661-8.114,3.263-12.631,4.747
		c-4.016,1.408-8.186,2.707-12.426,3.792c-5.876,1.484-11.899,2.549-17.901,2.998c-0.474,0-0.919-0.058-1.367-0.146
		c-4.221,0.4-8.563,0.634-13.033,0.634c-2.119,0-4.069,0.723-5.641,1.915c-2.286,1.738-3.79,4.426-3.79,7.513
		c0,1.534,0.401,2.96,1.041,4.239c0.903,1.769,2.364,3.223,4.142,4.142c7.033-0.186,13.623-0.645,19.807-1.309
		c16.86-1.797,30.644-5.188,41.8-9.007c10.579-3.625,18.8-7.6,25.057-10.979c0.136-0.078,0.269-0.146,0.411-0.215
		c2.925-1.592,5.417-3.048,7.507-4.24c2.984-1.69,6.789-4.377,10.746-7.376c4.386-3.311,8.967-7.004,12.836-10.208
		C259.852,387.808,259.11,387.905,258.338,387.905z"/>
	<path fill="none" stroke="#FFFFFF" stroke-width="5.9559" stroke-linejoin="round" stroke-miterlimit="10" d="M278.872,403.984
		L278.872,403.984c-0.044,0.028-0.097,0.079-0.146,0.127c-2.047,1.651-4.655,2.629-7.484,2.629c-6.574,0-11.913-5.313-11.913-11.91
		c0-1.874,0.475-3.633,1.247-5.225c0.17-0.332,0.355-0.684,0.557-1.016c0.258-0.421,0.537-0.841,0.839-1.241
		c-0.454,0.156-0.923,0.235-1.396,0.322c-3.87,3.204-8.451,6.897-12.836,10.208c-3.957,2.999-7.762,5.686-10.746,7.376
		c-2.09,1.192-4.582,2.648-7.507,4.24c-0.142,0.068-0.274,0.137-0.411,0.215c-6.257,3.38-14.478,7.354-25.057,10.979
		c-11.156,3.819-24.94,7.21-41.8,9.007c-6.184,0.664-12.774,1.123-19.807,1.309c-3.756,0.098-7.629,0.128-11.634,0.06
		c-7.126,0-12.899,5.782-12.899,12.914c0,4.366,2.178,8.234,5.508,10.559c1.48,0.85,2.428,1.34,2.428,1.34
		c0.655,0.243,1.348,0.43,2.012,0.663c21.379,6.877,49.264,2.814,76.192-6.886c14.624-5.275,28.949-12.202,41.805-19.958
		c7.679-4.622,14.834-9.544,21.194-14.585c6.413-5.07,12.054-10.266,16.597-15.366c0,0,0,0,0-0.01
		C281.734,401.523,280.108,402.988,278.872,403.984z"/>
	<path fill="none" stroke="#FFFFFF" stroke-width="5.9559" stroke-linejoin="round" stroke-miterlimit="10" d="M243.45,374.981
		c-5.753,0-10.428-4.659-10.428-10.424c0-0.995,0.182-1.933,0.44-2.832c-1.206,0.869-2.545,1.533-3.97,2.002
		c-7.743,6.545-16.622,12.23-25.472,16.989c-7.043,3.81-14.072,7.032-20.504,9.651c-0.171,0.068-0.327,0.127-0.499,0.204
		c-9.134,3.683-17.021,6.135-21.955,7.238c-0.259,0-0.508,0.039-0.762,0.068c-3.473,0.362-6.232,3.098-6.604,6.575
		c-0.034,0.264-0.078,0.537-0.078,0.801c0,3.653,2.624,6.662,6.077,7.308c0.448,0.088,0.893,0.146,1.367,0.146
		c6.002-0.449,12.025-1.514,17.901-2.998c4.24-1.085,8.41-2.384,12.426-3.792c4.269-1.515,8.381-3.175,12.245-4.883
		c0.131-0.068,0.258-0.118,0.386-0.187c8.171-3.623,15.243-7.442,20.509-10.48c3.961-2.307,6.911-4.143,8.493-5.12
		c2.966-1.836,7.503-6.095,11.723-10.354C244.321,374.942,243.896,374.981,243.45,374.981z"/>
	<path fill="none" stroke="#FFFFFF" stroke-width="5.9559" stroke-linejoin="round" stroke-miterlimit="10" d="M314.416,354.633
		c-6.385,0-11.673-4.649-12.706-10.734c-1.459,0.517-3.023,0.8-4.664,0.8c-7.674,0-13.9-6.223-13.9-13.891
		c0-0.117,0.023-0.235,0.023-0.342c-0.957,0.225-1.963,0.342-2.998,0.342c-7.396,0-13.398-6.007-13.398-13.403
		c0-2.344,0.61-4.532,1.662-6.455c0.376-0.245,0.727-0.519,1.088-0.812c-3.608,2.49-9.152,2.716-14.531,1.935
		c-9.983,12.111-18.218,16.234-24.783,18.735c-6.824,2.618-11.923,4.981-15.488,6.585c-3.372,2.812-5.52,7.052-5.52,11.77
		c0,7.591,5.47,13.864,12.669,15.142c0.89,0.146,1.793,0.254,2.721,0.254c1.714,0,3.36-0.293,4.899-0.83
		c1.425-0.469,2.764-1.133,3.97-2.002c-0.258,0.899-0.44,1.837-0.44,2.832c0,5.765,4.675,10.424,10.428,10.424
		c0.445,0,0.871-0.039,1.294-0.087c0.23-0.04,0.47-0.069,0.699-0.119c0,0.079-0.009,0.138-0.009,0.206
		c0,0.234,0.023,0.479,0.033,0.713c0.366,6.79,5.974,12.211,12.871,12.211c0.772,0,1.514-0.098,2.238-0.234
		c0.473-0.087,0.942-0.166,1.396-0.322c-0.547,0.693-1.006,1.476-1.396,2.257c-0.772,1.592-1.247,3.351-1.247,5.225
		c0,6.597,5.338,11.91,11.913,11.91c2.829,0,5.437-0.978,7.484-2.629c0.049-0.048,0.102-0.099,0.146-0.127l0,0
		c1.236-0.996,2.862-2.461,4.743-4.249c11.552-10.97,33.283-35.04,40.375-49.37C321.615,352.992,318.226,354.633,314.416,354.633z"
		/>
	
		<path fill="none" stroke="#FFFFFF" stroke-width="5.9559" stroke-linecap="round" stroke-linejoin="round" stroke-miterlimit="10" d="
		M254.226,324.839c-3.443,2.08-5.734,5.87-5.734,10.198c0,6.585,5.323,11.918,11.903,11.918c2.998,0,5.753-1.143,7.849-2.97
		c-0.996,1.856-1.567,3.976-1.567,6.233c0,7.325,5.924,13.227,13.236,13.227c1.074,0,2.12-0.147,3.111-0.381
		c-0.479,1.366-0.752,2.813-0.752,4.365c0,7.298,5.93,13.229,13.237,13.229c4,0,7.585-1.77,10.003-4.581"/>
	<path fill="none" stroke="#FFFFFF" stroke-width="5.9559" stroke-linejoin="round" stroke-miterlimit="10" d="M77.232,299.374
		c2.983-8.931,12.743-21.025,33.75-16.707c12.963,2.638,16.725,14.595,23.041,22.842c1.338,1.758,2.807,3.32,4.498,4.629
		c0.357,0.293,0.699,0.566,1.084,0.812c1.055,1.904,1.655,4.111,1.655,6.455c0,7.396-5.993,13.403-13.397,13.403
		c-1.036,0-2.037-0.117-2.994-0.342c0,0.106,0.015,0.225,0.015,0.342c0,7.668-6.218,13.891-13.901,13.891
		c-1.636,0-3.204-0.302-4.66-0.829c-1.035,6.104-6.32,10.764-12.704,10.764c-3.805,0-7.2-1.641-9.568-4.268
		c-1.187-2.014-2.218-4.152-3.121-6.369C74.11,327.554,74.598,307.267,77.232,299.374z"/>
	<path fill="none" stroke="#FFFFFF" stroke-width="5.9559" stroke-linejoin="round" stroke-miterlimit="10" d="M93.618,354.633
		c6.384,0,11.669-4.649,12.704-10.734c1.456,0.517,3.023,0.8,4.66,0.8c7.683,0,13.901-6.223,13.901-13.891
		c0-0.117-0.015-0.235-0.015-0.342c0.957,0.225,1.958,0.342,2.994,0.342c7.405,0,13.397-6.007,13.397-13.403
		c0-2.344-0.601-4.532-1.655-6.455c-0.385-0.245-0.727-0.519-1.084-0.812c3.604,2.49,9.148,2.716,14.521,1.935
		c9.979,12.111,18.224,16.234,24.778,18.735c6.829,2.618,11.928,4.981,15.494,6.585c3.375,2.812,5.52,7.052,5.52,11.77
		c0,7.591-5.471,13.864-12.675,15.142c-0.88,0.146-1.783,0.254-2.707,0.254c-1.718,0-3.37-0.293-4.913-0.83
		c-1.422-0.469-2.759-1.133-3.972-2.002c0.27,0.899,0.44,1.837,0.44,2.832c0,5.765-4.66,10.424-10.423,10.424
		c-0.435,0-0.875-0.039-1.295-0.087c-0.234-0.04-0.468-0.069-0.692-0.119c0,0.079,0.009,0.138,0.009,0.206
		c0,0.234-0.023,0.479-0.039,0.713c-0.365,6.79-5.978,12.211-12.875,12.211c-0.757,0-1.499-0.098-2.237-0.234
		c-0.468-0.087-0.942-0.166-1.392-0.322c0.557,0.693,1.002,1.476,1.392,2.257c0.782,1.592,1.251,3.351,1.251,5.225
		c0,6.597-5.334,11.91-11.913,11.91c-2.829,0-5.437-0.978-7.479-2.629c-0.049-0.048-0.098-0.099-0.146-0.127c0,0,0,0-0.005,0
		c-1.241-0.996-2.853-2.461-4.748-4.249c-11.547-10.97-33.282-35.04-40.364-49.37C86.418,352.992,89.813,354.633,93.618,354.633z"/>
	
		<path fill="none" stroke="#FFFFFF" stroke-width="5.9559" stroke-linecap="round" stroke-linejoin="round" stroke-miterlimit="10" d="
		M153.803,324.839c3.449,2.08,5.749,5.87,5.749,10.198c0,6.565-5.328,11.898-11.912,11.898c-3.004,0-5.749-1.123-7.844-2.95
		c0.996,1.837,1.558,3.976,1.558,6.233c0,7.297-5.92,13.227-13.232,13.227c-1.074,0-2.109-0.147-3.105-0.381
		c0.473,1.366,0.743,2.813,0.743,4.347c0,7.298-5.92,13.237-13.232,13.237c-4,0-7.576-1.76-10.004-4.571"/>
	<path fill="none" stroke="#FFFFFF" stroke-width="5.9559" stroke-linejoin="round" stroke-miterlimit="10" d="M330.798,299.374
		c-2.979-8.931-12.748-21-33.751-16.707c-12.963,2.638-16.724,14.595-23.03,22.842c-1.343,1.758-2.804,3.359-4.494,4.629
		c-0.361,0.293-0.712,0.566-1.088,0.812c-1.052,1.923-1.662,4.111-1.662,6.455c0,7.396,6.003,13.403,13.398,13.403
		c1.035,0,2.041-0.117,2.998-0.342c0,0.106-0.023,0.225-0.023,0.342c0,7.668,6.227,13.891,13.9,13.891
		c1.641,0,3.204-0.283,4.664-0.8c1.032,6.085,6.321,10.734,12.706,10.734c3.81,0,7.199-1.641,9.573-4.268
		c1.173-2.014,2.207-4.152,3.126-6.369C333.924,327.554,333.425,307.267,330.798,299.374z"/>
</g>
<g id="Ala_-_SX">
	<path fill="none" stroke="#FFFFFF" stroke-width="5.9559" stroke-linejoin="round" stroke-miterlimit="10" d="M103.426,281.788
		c-4.835-16.91-4.171-36.657-4.133-52.708c-0.035,1.456-0.063,2.902-0.083,4.357c-2.535,4.933-7.664,8.309-13.593,8.309
		c-4.485,0-8.5-1.935-11.293-5.017c1.275,20.998,3.859,37.058,8.899,52.776C87.547,285.031,94.068,281.573,103.426,281.788z"/>
	<path fill="none" stroke="#FFFFFF" stroke-width="5.9559" stroke-linejoin="round" stroke-miterlimit="10" d="M84.05,350.365
		c-1.187-2.014-2.218-4.152-3.121-6.369c-6.818-16.442-6.331-36.729-3.697-44.622c1.063-3.177,3.013-6.763,5.992-9.869
		c-5.041-15.718-7.625-31.778-8.899-52.776c-0.034-0.034-0.087-0.073-0.121-0.112c-2.394,5.715-8.03,9.729-14.61,9.729
		c-0.147,0-0.283-0.025-0.43-0.025c-4.826-0.131-9.08-2.412-11.898-5.929c2.32,62.186,11.512,86.615,53.361,134.141
		c0.083-0.069,0.156-0.186,0.23-0.265C93.765,365.73,87.332,357.007,84.05,350.365L84.05,350.365z"/>
	<path fill="none" stroke="#FFFFFF" stroke-width="5.9559" stroke-linejoin="round" stroke-miterlimit="10" d="M45.62,237.96
		c-2.267,3.986-6.287,6.833-11.01,7.488c-0.684,0.092-1.392,0.146-2.1,0.146c-6.838,0-12.587-4.552-14.438-10.79
		c-2.955,69.2,11.966,115.521,63.882,167.851c0.923,1.24,2.008,2.335,3.224,3.262c2.754,2.063,6.159,3.322,9.871,3.322
		c8.811,0,15.978-6.975,16.348-15.698c0-0.225,0.024-0.459,0.024-0.694c0-4.502-1.812-8.575-4.752-11.527
		c-0.015-0.019-0.015-0.019-0.02-0.019c-2.085-2.335-4.073-4.571-6.022-6.769c-41.85-47.525-51.042-71.955-53.361-134.141
		C46.649,239.636,46.083,238.83,45.62,237.96z"/>
	<path fill="none" stroke="#FFFFFF" stroke-width="5.9559" stroke-linejoin="round" stroke-miterlimit="10" d="M95.064,222.281
		c-9.325,0-17.092-6.388-18.806-14.843c-1.811,5.842-7.453,10.11-14.134,10.11c-8.021,0-14.522-6.13-14.737-13.754
		c-0.756,0.713-1.587,1.329-2.481,1.865c-2.217,1.338-4.839,2.13-7.653,2.13c-3.454,0-6.614-1.177-9.095-3.107
		c-2.881-2.256-4.84-5.543-5.235-9.28c0.542-2.481,1.162-4.895,1.821-7.249l-0.015,0.005c-3.365,11.601-5.183,24.505-6.12,36.452
		c-0.273,3.434-0.464,6.78-0.61,10.003c0.015,0.074,0.054,0.127,0.074,0.191c1.851,6.237,7.6,10.79,14.438,10.79
		c0.708,0,1.417-0.054,2.1-0.146c4.723-0.655,8.743-3.502,11.01-7.488c0.463,0.869,1.029,1.675,1.646,2.432
		c2.818,3.517,7.072,5.798,11.898,5.929c0.147,0,0.283,0.025,0.43,0.025c6.58,0,12.216-4.015,14.61-9.729
		c0.034,0.039,0.087,0.078,0.121,0.112c2.794,3.082,6.809,5.017,11.293,5.017c5.929,0,11.058-3.375,13.593-8.309
		c0.02-1.456,0.048-2.902,0.083-4.357c0.063-2.505,0.161-4.987,0.323-7.351C98.151,222.067,96.637,222.281,95.064,222.281z"/>
	<path fill="none" stroke="#FFFFFF" stroke-width="5.9559" stroke-linejoin="round" stroke-miterlimit="10" d="M105.462,145.846
		c-11.741-17.358-30.063-21.887-48.139-11.419c-8.152,4.713-23.758,23.484-32.091,51.96c-0.176,0.582-0.327,1.183-0.489,1.768
		c-0.66,2.354-1.28,4.767-1.821,7.249c0.396,3.736,2.354,7.023,5.235,9.28l0,0c0,0,0,0,0.011,0c0.605,0.475,1.255,0.904,1.939,1.281
		c0.024,0.009,0.053,0.024,0.067,0.039c0.68,0.361,1.378,0.684,2.116,0.933c0.043,0.02,0.092,0.034,0.151,0.048
		c0.718,0.244,1.459,0.45,2.231,0.577c0.054,0.015,0.112,0.02,0.167,0.024c0.782,0.123,1.587,0.205,2.413,0.205
		c0.634,0,1.256-0.059,1.871-0.127c0.146-0.019,0.288-0.043,0.424-0.059c0.582-0.088,1.144-0.215,1.686-0.356
		c0.029-0.015,0.059-0.02,0.088-0.025c0.625-0.175,1.236-0.4,1.827-0.654c0.015-0.01,0.039-0.02,0.059-0.024
		c1.553-0.684,2.97-1.606,4.18-2.75c0.215,7.624,6.717,13.754,14.737,13.754c6.681,0,12.323-4.269,14.134-10.11
		c1.714,8.455,9.481,14.843,18.806,14.843c1.572,0,3.087-0.214,4.552-0.552c0.068-0.02,0.146-0.024,0.219-0.034
		c3.131-0.777,5.944-2.271,8.24-4.303c0.762-2.623,2.194-4.538,2.194-4.538s0.355,0.425,0.918,0.981
		c1.919-2.862,3.053-6.256,3.053-9.91c0-2.301-0.46-4.488-1.265-6.511l3.37-2.755c0.005-0.327,0.02-0.649,0.044-0.938
		c0.381-4.24,3.243-8.792,8.151-11.029C105.071,170.688,114.943,159.845,105.462,145.846z"/>
	
		<path fill="none" stroke="#FFFFFF" stroke-width="5.9559" stroke-linecap="round" stroke-linejoin="round" stroke-miterlimit="10" d="
		M36.628,159.396c-1.353,2.427-2.105,5.221-2.105,8.187c0,9.397,7.615,17.016,17.017,17.016c2.32,0,4.523-0.469,6.541-1.304
		c1.959,6.042,7.634,10.404,14.326,10.404c4.479,0,8.494-1.958,11.249-5.06c0.933,6.745,6.697,11.938,13.69,11.938
		c7.649,0,13.848-6.199,13.848-13.847"/>
</g>
<g id="Ala_-_DX">
	<path fill="none" stroke="#FFFFFF" stroke-width="5.9559" stroke-linejoin="round" stroke-miterlimit="10" d="M304.609,281.788
		c4.834-16.91,4.17-36.657,4.126-52.708c0.034,1.456,0.073,2.902,0.093,4.357c2.539,4.933,7.659,8.309,13.597,8.309
		c4.475,0,8.5-1.935,11.284-5.017c-1.27,20.998-3.858,37.058-8.91,52.776C320.492,285.031,313.976,281.573,304.609,281.788z"/>
	<path fill="none" stroke="#FFFFFF" stroke-width="5.9559" stroke-linejoin="round" stroke-miterlimit="10" d="M323.989,350.365
		c1.173-2.014,2.207-4.152,3.126-6.369c6.809-16.461,6.31-36.749,3.683-44.622c-1.065-3.177-2.999-6.763-5.999-9.869
		c5.051-15.718,7.64-31.778,8.91-52.776c0.029-0.034,0.078-0.073,0.117-0.117c2.394,5.71,8.04,9.734,14.614,9.734
		c0.146,0,0.293-0.025,0.429-0.025c4.817-0.136,9.076-2.417,11.898-5.929c-2.314,62.186-11.497,86.615-53.366,134.141
		c-0.073-0.069-0.146-0.186-0.219-0.265C314.269,365.73,320.688,357.007,323.989,350.365L323.989,350.365z"/>
	<path fill="none" stroke="#FFFFFF" stroke-width="5.9559" stroke-linejoin="round" stroke-miterlimit="10" d="M362.419,237.96
		c2.277,3.971,6.29,6.833,10.998,7.488c0.705,0.092,1.389,0.146,2.111,0.146c6.837,0,12.589-4.563,14.436-10.79
		c2.94,69.2-11.955,115.521-63.883,167.851c-0.918,1.24-2.013,2.335-3.234,3.243c-2.736,2.072-6.145,3.341-9.857,3.341
		c-8.806,0-15.972-6.975-16.348-15.698c-0.005-0.234-0.033-0.459-0.033-0.694c0-4.502,1.826-8.575,4.761-11.546
		c0.006,0,0.011,0,0.011,0c2.09-2.335,4.078-4.571,6.021-6.769c41.869-47.525,51.052-71.955,53.366-134.141
		C361.384,239.636,361.961,238.83,362.419,237.96z"/>
	<path fill="none" stroke="#FFFFFF" stroke-width="5.9559" stroke-linejoin="round" stroke-miterlimit="10" d="M312.97,222.281
		c9.32,0,17.085-6.388,18.805-14.843c1.817,5.842,7.463,10.11,14.146,10.11c8.011,0,14.517-6.13,14.741-13.754
		c0.743,0.713,1.582,1.329,2.472,1.865c2.217,1.338,4.844,2.13,7.667,2.13c3.448,0,6.594-1.177,9.064-3.107
		c2.892-2.256,4.854-5.543,5.256-9.28c-0.547-2.491-1.173-4.895-1.827-7.249l0.029,0.005c3.351,11.601,5.157,24.5,6.104,36.452
		c0.273,3.434,0.468,6.78,0.616,10.003c-0.02,0.074-0.059,0.127-0.079,0.191c-1.846,6.227-7.599,10.79-14.436,10.79
		c-0.723,0-1.407-0.054-2.111-0.146c-4.708-0.655-8.721-3.517-10.998-7.488c-0.458,0.869-1.035,1.675-1.652,2.432
		c-2.822,3.512-7.081,5.793-11.898,5.929c-0.136,0-0.283,0.025-0.429,0.025c-6.574,0-12.221-4.024-14.614-9.734
		c-0.04,0.044-0.088,0.083-0.117,0.117c-2.784,3.082-6.809,5.017-11.284,5.017c-5.938,0-11.058-3.375-13.597-8.309
		c-0.02-1.456-0.059-2.902-0.093-4.357c-0.063-2.505-0.151-4.997-0.308-7.351C309.883,222.067,311.396,222.281,312.97,222.281z"/>
	<path fill="none" stroke="#FFFFFF" stroke-width="5.9559" stroke-linejoin="round" stroke-miterlimit="10" d="M302.566,145.846
		c11.752-17.358,30.069-21.887,48.15-11.419c8.158,4.713,23.755,23.484,32.097,51.96c0.157,0.582,0.304,1.183,0.479,1.768
		c0.654,2.354,1.28,4.758,1.827,7.249c-0.402,3.736-2.364,7.023-5.256,9.28l0,0l0,0c-0.604,0.475-1.26,0.904-1.943,1.275
		c-0.019,0.015-0.049,0.029-0.079,0.044c-0.654,0.361-1.367,0.674-2.1,0.933c-0.038,0.02-0.077,0.034-0.146,0.048
		c-0.723,0.244-1.466,0.45-2.238,0.577c-0.04,0.015-0.117,0.02-0.157,0.024c-0.792,0.123-1.592,0.205-2.403,0.205
		c-0.655,0-1.27-0.059-1.895-0.127c-0.127-0.019-0.283-0.043-0.42-0.059c-0.576-0.098-1.143-0.215-1.689-0.356
		c-0.029-0.015-0.059-0.02-0.079-0.025c-0.626-0.175-1.241-0.4-1.817-0.654c-0.029-0.01-0.058-0.02-0.058-0.029
		c-1.563-0.679-2.989-1.602-4.181-2.745c-0.224,7.624-6.73,13.754-14.741,13.754c-6.683,0-12.328-4.269-14.146-10.11
		c-1.719,8.455-9.485,14.843-18.805,14.843c-1.573,0-3.087-0.214-4.542-0.552c-0.083-0.02-0.161-0.024-0.234-0.039
		c-3.13-0.772-5.93-2.267-8.23-4.298c-0.762-2.623-2.198-4.547-2.198-4.547s-0.361,0.43-0.918,0.991
		c-1.915-2.862-3.053-6.256-3.053-9.91c0-2.301,0.464-4.488,1.265-6.511l-3.37-2.755c0-0.327-0.01-0.649-0.039-0.938
		c-0.391-4.24-3.244-8.792-8.157-11.029C302.967,170.688,293.096,159.845,302.566,145.846z"/>
	
		<path fill="none" stroke="#FFFFFF" stroke-width="5.9559" stroke-linecap="round" stroke-linejoin="round" stroke-miterlimit="10" d="
		M371.414,159.396c1.339,2.427,2.092,5.221,2.092,8.187c0,9.397-7.619,17.016-17.017,17.016c-2.315,0-4.512-0.469-6.535-1.304
		c-1.963,6.042-7.619,10.404-14.321,10.404c-4.484,0-8.489-1.958-11.243-5.06c-0.938,6.745-6.712,11.938-13.707,11.938
		c-7.644,0-13.842-6.199-13.842-13.847"/>
</g>
<g id="Ali_-_Alto">
	
		<path fill="none" stroke="#FFFFFF" stroke-width="5.9559" stroke-linecap="round" stroke-linejoin="round" stroke-miterlimit="10" d="
		M147.732,73.572c3.912-1.529,7.98-2.907,12.107-4.162c0.006-0.009,0.015-0.048,0.015-0.048c9.017-3.263,25.531-6.96,44.751-8.992
		c-20.764-2.199-44.697-2.438-65.788,1.973c-1.69,0.356-3.361,0.733-5.006,1.143c-3.112,1.65-5.251,4.884-5.251,8.65
		c0,1.373,0.313,2.663,0.826,3.849c0.732,1.705,1.968,3.13,3.482,4.181c1.42-0.699,2.853-1.397,4.327-2.085
		C140.587,76.523,144.103,74.999,147.732,73.572z"/>
	
		<path fill="none" stroke="#FFFFFF" stroke-width="5.9559" stroke-linecap="round" stroke-linejoin="round" stroke-miterlimit="10" d="
		M240.72,132.038c0-0.898,0.118-1.753,0.298-2.593c0.239-1.143,0.626-2.243,1.168-3.249c1.299-2.447,3.399-4.401,5.949-5.529
		c1.523-0.669,3.218-1.045,4.992-1.045c1.265,0,2.491,0.195,3.643,0.551c-0.253-1.016-0.399-2.065-0.399-3.155
		c0-0.244,0.02-0.488,0.038-0.723c0.245-4.425,2.682-8.245,6.257-10.408c1.959-1.182,4.25-1.875,6.711-1.875
		c2.485,0,4.787,0.704,6.764,1.91c-0.952-1.754-1.49-3.766-1.49-5.9c0-6.893,5.588-12.464,12.48-12.464
		c1.705,0,3.327,0.361,4.811,0.986c-4.621-2.721-9.895-5.587-15.595-8.376c-0.718,0.493-1.476,0.928-2.316,1.207
		c-2.271-0.289-5.031-0.567-8.172-0.806c-1.934-0.146-4.02-0.279-6.212-0.391c3.395,1.46,5.783,4.782,5.783,8.655
		c0,1.31-0.292,2.555-0.796,3.683c-0.649,1.485-1.675,2.784-2.964,3.761c-3.825-0.41-8.044-0.639-12.523-0.684
		c1.998,1.48,3.321,3.834,3.321,6.516c0,2.901-1.539,5.431-3.82,6.867c-2.741,0.048-5.368,0.181-7.942,0.352
		c0.152,0.528,0.337,1.05,0.558,1.544c-0.885-0.27-1.808-0.45-2.779-0.45c-1.011,0-1.968,0.18-2.882,0.474
		c-0.665,0.22-1.309,0.494-1.905,0.835c-2.926,1.67-4.914,4.782-4.914,8.396c0,0.776,0.117,1.524,0.293,2.252
		c0.136,0.552,0.322,1.07,0.533,1.578c0.244,0.591,0.542,1.157,0.908,1.675c1.558,1.055,3.121,2.237,4.543,3.541
		c2.642,2.408,4.752,5.212,5.46,8.25l0.44-2.975C240.809,133.669,240.72,132.854,240.72,132.038z"/>
	
		<path fill="none" stroke="#FFFFFF" stroke-width="5.9559" stroke-linecap="round" stroke-linejoin="round" stroke-miterlimit="10" d="
		M240.706,109.326c-0.005,0-0.005,0-0.01,0c-9.763,0.635-18.394,2.081-26.36,4.01c-3.351,0.806-6.58,1.709-9.725,2.657
		c4.039,1.226,7.957,2.54,11.776,3.917c3.277,1.172,6.496,2.383,9.71,3.59c0.894,0.332,1.788,0.669,2.671,1.006
		c0.576,0.362,1.157,0.728,1.749,1.124c-0.366-0.518-0.664-1.084-0.908-1.675c-0.21-0.508-0.396-1.025-0.533-1.578
		c-0.176-0.728-0.293-1.476-0.293-2.252c0-3.614,1.988-6.726,4.914-8.396c0.596-0.342,1.24-0.615,1.905-0.835
		c0.914-0.293,1.871-0.474,2.882-0.474c0.972,0,1.895,0.18,2.779,0.45C241.042,110.376,240.857,109.854,240.706,109.326z"/>
	
		<path fill="none" stroke="#FFFFFF" stroke-width="5.9559" stroke-linecap="round" stroke-linejoin="round" stroke-miterlimit="10" d="
		M311.905,103.553c-5.314-5.07-11.034-9.412-16.822-13.14c-0.836-0.688-1.768-1.26-2.755-1.724
		c-0.126-0.059-0.259-0.098-0.386-0.147c-1.484-0.625-3.106-0.986-4.811-0.986c-6.892,0-12.48,5.572-12.48,12.464
		c0,2.134,0.538,4.146,1.49,5.9c-1.978-1.206-4.279-1.91-6.764-1.91c-2.462,0-4.752,0.693-6.711,1.875
		c-3.575,2.164-6.013,5.983-6.257,10.408c-0.019,0.235-0.038,0.479-0.038,0.723c0,1.09,0.146,2.139,0.399,3.155
		c-1.152-0.356-2.378-0.551-3.643-0.551c-1.773,0-3.468,0.376-4.992,1.045c-2.55,1.128-4.65,3.082-5.949,5.529
		c-0.542,1.006-0.929,2.105-1.168,3.249c-0.18,0.84-0.298,1.694-0.298,2.593c0,0.816,0.088,1.632,0.24,2.408l-0.44,2.975
		l-1.178,7.908c2.204-0.577,4.504-0.645,7.336-0.645c7.82,0,12.846,5.251,15.552,12.958l0,0c1.934,0.02,3.594,0.24,5.05,0.615
		c-0.86-15,1.807-24.466,22.703-23.831C313.858,135.155,332.126,122.855,311.905,103.553z"/>
	
		<path fill="none" stroke="#FFFFFF" stroke-width="5.9559" stroke-linecap="round" stroke-linejoin="round" stroke-miterlimit="10" d="
		M275.414,63.486c-1.655-0.41-3.321-0.787-5.006-1.143c-21.101-4.411-45.039-4.171-65.802-1.973
		c-19.22,2.031-35.734,5.729-44.751,8.992c0,0-0.009,0.039-0.015,0.048c0.87-0.264,1.724-0.566,2.604-0.806
		c0.308-0.088,0.605-0.18,0.903-0.259c0.924-0.234,1.886-0.361,2.877-0.361c6.174,0,11.248,4.68,11.874,10.677
		c0.034,0.391,0.059,0.792,0.063,1.187c0,0.024,0,0.039,0,0.068c0,2.907-1.041,5.563-2.765,7.64
		c0.757-0.289,1.558-0.464,2.369-0.586c0.059-0.01,0.117-0.024,0.177-0.044c7.306-2.49,16.63-4.2,26.663-5.348
		c8.567-0.957,17.647-1.505,26.454-1.729c7.049-0.176,13.881-0.151,20.157,0.005c0.523,0.02,1.071,0.029,1.583,0.049
		c2.384,0.069,4.674,0.161,6.848,0.273c2.193,0.112,4.279,0.245,6.212,0.391c3.141,0.239,5.901,0.518,8.172,0.806
		c0.84-0.279,1.598-0.714,2.316-1.207c1.514-1.051,2.75-2.477,3.491-4.191c0.509-1.176,0.816-2.466,0.816-3.839
		C280.655,68.371,278.51,65.137,275.414,63.486z"/>
	
		<path fill="none" stroke="#FFFFFF" stroke-width="5.9559" stroke-linecap="round" stroke-linejoin="round" stroke-miterlimit="10" d="
		M175.524,111.729c-0.596-0.352-1.24-0.615-1.905-0.835c-0.903-0.293-1.87-0.474-2.882-0.474c-0.977,0-1.895,0.18-2.783,0.45
		c0.229-0.494,0.406-1.016,0.557-1.544c0.297-0.996,0.459-2.018,0.459-3.101c0-4.948-3.19-9.134-7.629-10.634
		C160.206,95.214,159,95,157.745,95c-0.464,0-0.918,0.033-1.367,0.087c1.402-1.504,2.442-3.355,2.994-5.412
		c0.278-1.055,0.449-2.154,0.449-3.306c0-2.384-0.678-4.602-1.806-6.516c-0.826-1.377-1.891-2.603-3.151-3.585
		c-1.998-1.553-4.45-2.535-7.131-2.696c-3.63,1.426-7.146,2.951-10.536,4.509c-1.474,0.688-2.907,1.387-4.327,2.085
		c-5.701,2.789-10.976,5.655-15.596,8.371c1.49-0.62,3.107-0.996,4.821-0.996c6.891,0,12.47,5.587,12.47,12.474
		c0,2.14-0.542,4.152-1.485,5.906c1.974-1.206,4.289-1.91,6.761-1.91c2.466,0,4.752,0.693,6.715,1.875
		c3.575,2.159,6.022,5.983,6.267,10.398c0.005,0.245,0.034,0.489,0.034,0.733c0,1.09-0.152,2.139-0.405,3.155
		c1.147-0.356,2.369-0.551,3.638-0.551c1.783,0,3.473,0.376,5.002,1.045c2.54,1.123,4.64,3.082,5.95,5.529
		c0.532,1.006,0.918,2.105,1.171,3.249c0.177,0.84,0.284,1.694,0.284,2.593c0,0.816-0.079,1.632-0.24,2.408l0.455,2.97
		c0.698-3.033,2.807-5.836,5.456-8.249c1.421-1.3,2.979-2.482,4.546-3.537c0.358-0.523,0.654-1.089,0.9-1.675
		c0.219-0.508,0.4-1.036,0.532-1.578c0.17-0.728,0.293-1.476,0.293-2.252C180.438,116.511,178.449,113.399,175.524,111.729z"/>
	
		<path fill="none" stroke="#FFFFFF" stroke-width="5.9559" stroke-linecap="round" stroke-linejoin="round" stroke-miterlimit="10" d="
		M194.885,113.336c-0.151-2.667-1.368-5.041-3.233-6.711c-1.045-0.942-2.31-1.646-3.688-2.075c-0.214-0.059-0.419-0.142-0.644-0.195
		c1.548-1.852,2.524-4.21,2.524-6.819c0-0.043-0.015-0.087-0.015-0.146c-0.024-1.168-0.249-2.286-0.615-3.336
		c-1.451-4.187-5.388-7.209-10.063-7.209c-0.483,0-0.933,0.068-1.387,0.126c-0.811,0.122-1.611,0.297-2.369,0.586
		c1.724-2.077,2.765-4.733,2.765-7.64c0-0.029,0-0.044,0-0.068c-0.005-0.396-0.029-0.796-0.063-1.187
		c-0.625-5.998-5.7-10.677-11.874-10.677c-0.991,0-1.954,0.127-2.877,0.361c-0.298,0.079-0.595,0.171-0.903,0.259
		c-0.88,0.239-1.734,0.542-2.604,0.806c-4.127,1.255-8.195,2.633-12.107,4.162c2.681,0.161,5.133,1.143,7.131,2.696
		c1.26,0.982,2.325,2.208,3.151,3.585c1.128,1.915,1.806,4.132,1.806,6.516c0,1.152-0.17,2.251-0.449,3.306
		c-0.551,2.057-1.592,3.908-2.994,5.412c0.449-0.054,0.903-0.087,1.367-0.087c1.255,0,2.461,0.214,3.595,0.59
		c4.439,1.5,7.629,5.686,7.629,10.634c0,1.083-0.162,2.105-0.459,3.101c-0.151,0.528-0.328,1.05-0.557,1.544
		c0.888-0.27,1.806-0.45,2.783-0.45c1.012,0,1.979,0.18,2.882,0.474c0.666,0.22,1.309,0.483,1.905,0.835
		c2.925,1.67,4.915,4.782,4.915,8.396c0,0.776-0.123,1.524-0.293,2.252c-0.132,0.542-0.313,1.07-0.532,1.578
		c-0.246,0.586-0.542,1.152-0.9,1.675c0.587-0.396,1.163-0.767,1.734-1.124c0.899-0.337,1.792-0.674,2.676-1.006
		c3.209-1.207,6.433-2.418,9.705-3.59c1.291-1.661,2.086-3.732,2.086-5.993C194.915,113.717,194.9,113.531,194.885,113.336z"/>
	
		<path fill="none" stroke="#FFFFFF" stroke-width="5.9559" stroke-linecap="round" stroke-linejoin="round" stroke-miterlimit="10" d="
		M249.146,95.591c-0.02,0-0.034,0-0.054,0c-0.396,0-0.802,0-1.207,0c-2.77,0-5.623,0.044-8.528,0.152
		c-6.604,0.263-13.422,0.83-19.962,1.646c-5.187,0.645-10.193,1.446-14.79,2.374c-6.677,1.358-12.484,2.98-16.642,4.787
		c1.378,0.429,2.643,1.133,3.688,2.075c1.865,1.67,3.082,4.044,3.233,6.711c0.015,0.195,0.029,0.381,0.029,0.581
		c0,2.261-0.795,4.332-2.086,5.993c3.83-1.377,7.738-2.691,11.782-3.917c3.146-0.948,6.375-1.851,9.725-2.657
		c7.966-1.929,16.597-3.375,26.36-4.01c0.005,0,0.005,0,0.01,0c2.575-0.17,5.202-0.303,7.942-0.352
		c2.281-1.436,3.82-3.966,3.82-6.867C252.468,99.425,251.144,97.071,249.146,95.591z"/>
	
		<path fill="none" stroke="#FFFFFF" stroke-width="5.9559" stroke-linecap="round" stroke-linejoin="round" stroke-miterlimit="10" d="
		M259.647,80.176c-2.174-0.112-4.464-0.205-6.848-0.273c-0.512-0.02-1.06-0.029-1.583-0.049c-6.276-0.156-13.108-0.181-20.157-0.005
		c-8.806,0.224-17.886,0.772-26.454,1.729c-10.033,1.148-19.357,2.858-26.663,5.348c-0.06,0.02-0.118,0.034-0.177,0.044
		c0.455-0.059,0.904-0.126,1.387-0.126c4.674,0,8.611,3.022,10.063,7.209c0.366,1.05,0.59,2.167,0.615,3.336
		c0,0.059,0.015,0.103,0.015,0.146c0,2.609-0.977,4.968-2.524,6.819c0.225,0.054,0.429,0.136,0.644,0.195
		c4.158-1.807,9.965-3.429,16.642-4.787c4.597-0.928,9.603-1.729,14.79-2.374c6.541-0.816,13.359-1.383,19.962-1.646
		c2.906-0.107,5.759-0.152,8.528-0.152c0.405,0,0.811,0,1.207,0c0.02,0,0.034,0,0.054,0c4.479,0.044,8.698,0.274,12.523,0.684
		c1.289-0.977,2.315-2.275,2.964-3.761c0.504-1.128,0.796-2.374,0.796-3.683C265.43,84.958,263.042,81.636,259.647,80.176z"/>
	
		<path fill="none" stroke="#FFFFFF" stroke-width="5.9559" stroke-linecap="round" stroke-linejoin="round" stroke-miterlimit="10" d="
		M168.496,132.038c0-0.898-0.107-1.753-0.284-2.593c-0.253-1.143-0.639-2.243-1.171-3.249c-1.31-2.447-3.41-4.406-5.95-5.529
		c-1.529-0.669-3.219-1.045-5.002-1.045c-1.27,0-2.491,0.195-3.638,0.551c0.253-1.016,0.405-2.065,0.405-3.155
		c0-0.244-0.029-0.488-0.034-0.733c-0.245-4.415-2.692-8.24-6.267-10.398c-1.963-1.182-4.25-1.875-6.715-1.875
		c-2.472,0-4.787,0.704-6.761,1.91c0.944-1.754,1.485-3.766,1.485-5.906c0-6.887-5.579-12.474-12.47-12.474
		c-1.714,0-3.332,0.376-4.821,0.996c-0.123,0.054-0.254,0.093-0.372,0.152c-0.991,0.454-1.919,1.036-2.754,1.724
		c-5.798,3.728-11.512,8.069-16.827,13.14c-20.231,19.298-1.949,31.602,21.927,30.874c20.875-0.635,23.552,8.831,22.682,23.831
		c1.466-0.375,3.126-0.605,5.056-0.615l0,0c2.706-7.707,7.741-12.958,15.562-12.958c2.823,0,5.133,0.068,7.326,0.645l-1.162-7.913
		l-0.455-2.97C168.417,133.669,168.496,132.854,168.496,132.038z"/>
</g>
<g id="Faccia">
	<path id="Viso" fill="none" stroke="#FFFFFF" stroke-width="5.9559" stroke-miterlimit="10" d="M263.912,258.24
		c0,0,1.885,0.708,3.575,0.273c0.649-1.558,1.572-3.296,2.536-4.894c-0.039-0.713-0.132-1.485-0.323-2.388
		c-1.089-5.158-8.084-10.648-9.183-19.674c-0.64-5.231-0.269-14.844,1.27-22.747c-3.755,1.049-7.947,0.61-10.536-0.577
		c-10.085-4.601-6.138-17.198-6.138-17.198s0.122,0.127,0.322,0.332c-0.201-1.016-0.313-2.09-0.313-3.204
		c0-0.4,0.02-0.796,0.049-1.187c-5.124,2.217-10.604,1.069-14.619-1.397c-1.211,2.066-3.199,3.971-6.453,5.163
		c-9.476,3.483-16.832-1.899-17.627-7.352c-0.332-2.281,0.416-5.255,1.778-7.687l-4.235,0.244l-2.374-0.136
		c1.583,2.53,2.491,5.802,2.129,8.278c-0.796,5.441-8.147,10.824-17.632,7.341c-3.8-1.396-5.872-3.755-6.985-6.222
		c-4.083,2.92-10.077,4.498-15.649,2.085c0.023,0.391,0.038,0.786,0.038,1.187c0,1.119-0.107,2.183-0.312,3.204
		c0.209-0.206,0.328-0.328,0.328-0.328s3.955,12.587-6.14,17.193c-2.599,1.187-6.786,1.622-10.536,0.576
		c1.534,7.894,1.91,17.515,1.264,22.747c-1.103,9.021-8.088,14.512-9.182,19.665c-0.254,1.221-0.367,2.246-0.357,3.111
		c0.757,1.328,1.465,2.71,1.979,3.966c1.801,0.826,4.175-0.059,4.175-0.059s0.015,5.69-3.589,8.43
		c-0.514,19.899,2.339,33.285,11.668,44.722c10.13,12.396,18.467,16.558,25.101,19.098c10.926,4.171,17.417,7.757,20.337,8.48
		c0.039,0,0.068,0,0.098,0.009c2.194,0.527,4.054,0.743,5.637,0.771c1.582-0.028,3.443-0.244,5.642-0.771
		c0.038-0.009,0.063-0.009,0.087-0.009c2.931-0.724,9.417-4.31,20.349-8.48c6.633-2.54,14.975-6.702,25.101-19.098
		c9.475-11.623,12.279-25.204,11.644-45.61C263.896,263.218,263.912,258.24,263.912,258.24z"/>
	<g id="Bocca">
		<g>
			<path fill="#FFFFFF" d="M181.897,304.883c0,0,0.176-0.06,0.506-0.202c0.33-0.153,0.814-0.336,1.43-0.661
				c0.616-0.307,1.364-0.674,2.222-1.183c0.429-0.244,0.885-0.504,1.367-0.777c0.481-0.313,0.987-0.637,1.515-1.009
				c1.056-0.77,2.199-1.767,3.409-2.746c1.21-0.996,2.486-1.807,3.806-2.249c0.66-0.212,1.331-0.383,2.01-0.341
				c0.679,0.034,1.367,0.249,2.06,0.598c1.386,0.686,2.793,1.59,4.201,1.608c0.704,0.04,1.408-0.093,2.109-0.384
				c0.701-0.307,1.399-0.731,2.092-1.104c0.693-0.398,1.38-0.648,2.06-0.704c0.679-0.065,1.35,0.115,2.01,0.335
				c1.32,0.451,2.596,1.301,3.806,2.306c1.21,1.002,2.354,1.995,3.409,2.77c0.528,0.346,1.034,0.702,1.515,0.988
				c0.481,0.272,0.938,0.53,1.367,0.772c0.858,0.509,1.605,0.854,2.222,1.158c0.616,0.32,1.1,0.484,1.43,0.635
				c0.33,0.135,0.506,0.189,0.506,0.189s-0.176,0.017-0.506,0.047c-0.33,0.037-0.814,0.058-1.43,0.151
				c-0.616,0.084-1.364,0.174-2.222,0.333c-0.858,0.14-1.826,0.309-2.882,0.559c-1.056,0.213-2.199,0.525-3.409,0.834
				c-1.21,0.291-2.486,0.621-3.806,0.81c-1.32,0.201-2.684,0.326-4.069,0.32c-1.386-0.023-2.793-0.048-4.201-0.071
				c-1.408,0.008-2.815,0.08-4.201,0.072c-0.693-0.003-1.38-0.012-2.06-0.093c-0.679-0.058-1.35-0.112-2.01-0.225
				c-1.32-0.181-2.596-0.503-3.806-0.791c-1.21-0.3-2.354-0.618-3.409-0.83c-1.056-0.246-2.024-0.429-2.882-0.564
				c-0.858-0.159-1.605-0.258-2.222-0.341c-0.616-0.095-1.1-0.123-1.43-0.161C182.073,304.9,181.897,304.883,181.897,304.883z"/>
		</g>
		<g>
			<path fill="#FFFFFF" d="M195.442,312.647c0,0,0.291,0.064,0.786,0.206c0.244,0.086,0.549,0.139,0.888,0.212
				c0.333,0.086,0.729,0.125,1.145,0.215c0.413,0.096,0.876,0.144,1.356,0.211c0.481,0.069,0.999,0.075,1.521,0.141
				c0.529,0.031,1.069,0.091,1.625,0.09c0.552,0.04,1.114,0.045,1.676,0.043c1.124,0.001,2.246-0.043,3.295-0.121
				c1.048-0.09,2.033-0.162,2.869-0.317c0.406-0.104,0.801-0.149,1.139-0.228c0.335-0.084,0.645-0.136,0.881-0.219
				c0.476-0.159,0.775-0.232,0.775-0.232s-0.121,0.337-0.461,0.86c-0.168,0.268-0.403,0.54-0.699,0.843
				c-0.288,0.33-0.649,0.598-1.064,0.902c-0.409,0.297-0.878,0.579-1.391,0.824c-0.512,0.23-1.069,0.457-1.651,0.617
				c-0.585,0.17-1.195,0.281-1.821,0.364c-0.625,0.062-1.263,0.111-1.899,0.079c-2.548-0.041-5.062-0.892-6.678-2.066
				c-0.412-0.255-0.76-0.573-1.073-0.86c-0.312-0.271-0.549-0.552-0.71-0.78C195.613,312.962,195.442,312.647,195.442,312.647z"/>
		</g>
	</g>
	<g id="Occhio_SX">
		<g>
			<path fill="#FFFFFF" d="M162.372,245.286c0,0,0.027,0.312,0.078,0.896c0.05,0.218,0.111,0.24,0.142,0.444
				c0.139,0.23,0.224,0.517,0.48,0.814c0.442,0.606,1.235,1.319,2.36,2.017c1.125,0.697,2.588,1.305,4.24,1.868
				c0.832,0.255,1.717,0.512,2.634,0.674c0.231,0.052,0.457,0.074,0.689,0.113l0.174,0.027c0.017,0.003,0.087,0.011,0.059,0.011
				l0.097,0.009l0.389,0.038c0.515,0.045,1.061,0.113,1.573,0.141c2.054,0.164,4.32,0.198,6.606,0.105
				c2.271-0.12,4.733-0.281,6.755-1.342c0.563-0.287,1.054-0.579,1.532-0.907c0.454-0.355,0.914-0.727,1.209-1.174
				c0.308-0.439,0.499-0.92,0.487-1.442c-0.015-0.523-0.191-1.071-0.425-1.607c-0.529-1.06-1.255-2.074-1.959-3.099
				c-0.332-0.421-0.76-0.969-1.155-1.397c-0.455-0.367-0.853-0.767-1.332-1.101c-0.502-0.313-0.979-0.651-1.486-0.938
				c-0.533-0.248-1.053-0.509-1.58-0.742c-1.109-0.354-2.176-0.759-3.302-0.917c-0.557-0.094-1.095-0.231-1.646-0.289
				c-0.553-0.045-1.1-0.09-1.641-0.134l-0.803-0.067c-0.268-0.008-0.538,0.006-0.803,0.007c-0.531,0.008-1.055,0.017-1.572,0.025
				c-2.08,0.039-3.806,0.442-5.377,1.102c-1.537,0.667-2.834,1.457-3.795,2.318c-0.958,0.863-1.611,1.721-2,2.448
				c-0.414,0.729-0.493,1.322-0.579,1.71c-0.01,0.39-0.035,0.595-0.035,0.595L162.372,245.286z M159.569,245.492
				c0,0,0.029-0.349,0.082-1.004c0.131-0.634,0.329-1.592,0.936-2.622c0.579-1.037,1.488-2.162,2.744-3.167
				c1.252-1.007,2.841-1.903,4.693-2.527c1.834-0.634,4.009-0.945,6.188-0.83c0.546,0.028,1.1,0.057,1.661,0.086
				c0.28,0.018,0.563,0.024,0.845,0.051l0.85,0.127c0.569,0.086,1.145,0.173,1.727,0.261c0.579,0.101,1.15,0.285,1.732,0.425
				c2.307,0.622,4.669,1.578,6.675,3.185c0.51,0.389,0.969,0.882,1.452,1.325c0.429,0.491,0.764,0.934,1.186,1.497
				c0.684,1.041,1.406,2.077,1.975,3.268c0.274,0.601,0.514,1.254,0.55,1.984c0.035,0.736-0.237,1.474-0.631,2.047
				c-0.802,1.143-1.966,1.875-3.019,2.487c-0.54,0.342-1.181,0.537-1.765,0.805c-0.604,0.194-1.21,0.337-1.811,0.506
				c-1.208,0.244-2.404,0.455-3.584,0.573c-2.364,0.254-4.637,0.372-6.829,0.347c-1.077-0.019-2.125-0.028-3.183-0.148
				c-1.04-0.11-2.021-0.322-2.959-0.54c-1.867-0.472-3.537-1.104-4.937-1.872c-1.4-0.763-2.524-1.688-3.263-2.653
				c-0.396-0.46-0.623-0.977-0.85-1.4c-0.166-0.473-0.308-0.934-0.366-1.244c-0.062-0.583-0.095-0.894-0.095-0.894L159.569,245.492z
				"/>
		</g>
		<path fill="#FFFFFF" d="M185.142,245.18c0,4.855-3.937,8.796-8.798,8.796c-4.855,0-8.796-3.941-8.796-8.796
			s3.941-8.792,8.796-8.792C181.205,236.388,185.142,240.325,185.142,245.18z"/>
		<g>
			<path fill="#FFFFFF" d="M176.353,240.265c0,0,0.473-0.077,1.179-0.151c0.347-0.047,0.821,0.049,1.326,0.118
				c0.258,0.034,0.484,0.163,0.737,0.263c0.248,0.109,0.512,0.21,0.724,0.401c0.219,0.175,0.476,0.33,0.689,0.521
				c0.199,0.202,0.387,0.422,0.537,0.653c0.136,0.237,0.185,0.497,0.234,0.737c0.06,0.239,0.048,0.473,0.02,0.685
				c-0.034,0.423-0.16,0.757-0.303,0.982c-0.127,0.224-0.236,0.339-0.236,0.339h-0.198c0,0-0.124-0.116-0.277-0.297
				c-0.079-0.09-0.16-0.197-0.244-0.313c-0.093-0.115-0.206-0.235-0.292-0.365c-0.086-0.132-0.184-0.265-0.288-0.392
				c-0.108-0.125-0.163-0.28-0.248-0.417c-0.082-0.136-0.134-0.296-0.18-0.479c-0.063-0.168-0.172-0.31-0.272-0.469
				c-0.09-0.172-0.246-0.279-0.391-0.402c-0.151-0.107-0.278-0.285-0.442-0.362c-0.333-0.15-0.614-0.4-0.962-0.498
				c-0.68-0.196-1.131-0.355-1.131-0.355L176.353,240.265z"/>
		</g>
		<g>
			<path fill="#FFFFFF" d="M159.048,224.329c0,0,0.44-0.121,1.21-0.333c0.779-0.204,1.923-0.442,3.282-0.684
				c1.363-0.217,2.964-0.457,4.688-0.599c0.862-0.083,1.756-0.16,2.666-0.184c0.91-0.047,1.836-0.043,2.766-0.067
				c0.931,0.014,1.869-0.052,2.803-0.065c0.933-0.033,1.858-0.026,2.738,0.126c0.875,0.129,1.715,0.422,2.484,0.733
				c0.776,0.323,1.492,0.699,2.129,1.093c0.643,0.429,1.202,0.818,1.67,1.273c0.468,0.455,0.852,0.836,1.132,1.229
				c0.282,0.393,0.475,0.714,0.593,0.945c0.114,0.229,0.175,0.352,0.175,0.352l-0.317,0.504c0,0-0.136,0.015-0.391,0.042
				c-0.252,0.03-0.601,0.054-1.008,0.071c-0.194-0.004-0.444,0.039-0.689,0.057c-0.239,0.012-0.498,0.025-0.774,0.039
				c-0.537,0.021-1.17,0.078-1.797,0.06c-0.654,0.019-1.346,0.005-2.067-0.04c-0.741-0.011-1.481-0.116-2.268-0.255
				c-0.773-0.167-1.567-0.429-2.385-0.703c-0.812-0.29-1.665-0.51-2.515-0.721c-0.859-0.171-1.718-0.371-2.573-0.519
				c-0.857-0.161-1.701-0.32-2.517-0.474c-0.82-0.163-1.616-0.267-2.373-0.409c-0.759-0.118-1.478-0.23-2.14-0.334
				c-0.666-0.092-1.276-0.176-1.816-0.25c-0.542-0.066-1.015-0.124-1.405-0.172c-0.795-0.078-1.25-0.123-1.25-0.123L159.048,224.329
				z"/>
		</g>
	</g>
	<g id="Occhio_DX">
		<g>
			<path fill="#FFFFFF" d="M250.388,245.697c0,0-0.035,0.311-0.1,0.893c-0.06,0.354-0.24,1.021-0.468,1.623
				c-0.268,0.515-0.561,1.141-1.021,1.68c-0.876,1.137-2.155,2.171-3.696,2.948c-1.537,0.786-3.305,1.429-5.282,1.809
				c-0.991,0.181-2.017,0.349-3.111,0.413c-0.269,0.026-0.554,0.024-0.833,0.037l-0.211,0.006l-0.134,0.003l-0.097-0.002
				l-0.391-0.008c-0.528-0.017-1.041-0.011-1.604-0.046c-2.244-0.087-4.514-0.325-6.891-0.703c-1.183-0.18-2.382-0.454-3.585-0.762
				c-0.6-0.204-1.209-0.354-1.812-0.57c-0.587-0.288-1.231-0.505-1.762-0.862c-0.515-0.307-1.065-0.686-1.583-1.095
				c-0.507-0.417-1.025-0.848-1.412-1.451c-0.394-0.579-0.663-1.321-0.624-2.06c0.04-0.732,0.283-1.384,0.561-1.984
				c0.562-1.193,1.279-2.235,1.957-3.279c0.422-0.569,0.753-1.01,1.18-1.504c0.472-0.454,0.922-0.964,1.425-1.37
				c1.984-1.653,4.316-2.729,6.626-3.49c0.583-0.173,1.159-0.389,1.742-0.522c0.587-0.119,1.168-0.237,1.744-0.354l0.863-0.173
				c0.287-0.043,0.573-0.063,0.857-0.096c0.571-0.059,1.135-0.117,1.691-0.174c2.211-0.233,4.576-0.013,6.543,0.568
				c2.012,0.555,3.74,1.5,5.139,2.563c1.41,1.059,2.438,2.317,3.102,3.503c0.694,1.173,0.946,2.305,1.096,3.056
				c0.079,0.779,0.101,1.198,0.101,1.198L250.388,245.697z M247.586,245.492c0,0-0.019-0.274-0.054-0.788
				c-0.105-0.504-0.238-1.27-0.74-2.144c-0.474-0.876-1.245-1.868-2.357-2.784c-1.107-0.917-2.545-1.757-4.241-2.354
				c-1.705-0.607-3.622-0.919-5.733-0.84c-0.527,0.021-1.061,0.042-1.602,0.063c-0.271,0.013-0.543,0.014-0.816,0.038l-0.815,0.113
				c-0.547,0.075-1.1,0.15-1.659,0.227c-0.556,0.089-1.098,0.258-1.656,0.385c-2.204,0.561-4.449,1.44-6.321,2.904
				c-1.837,1.306-3.255,3.605-4.396,5.661c-0.237,0.535-0.417,1.082-0.436,1.607c-0.015,0.524,0.173,1.01,0.481,1.454
				c0.294,0.453,0.753,0.828,1.208,1.187c0.47,0.341,0.955,0.653,1.509,0.953c2.02,1.12,4.479,1.398,6.754,1.653
				c2.299,0.217,4.563,0.303,6.669,0.251c1.07-0.032,2.117-0.058,3.066-0.182c0.971-0.116,1.902-0.33,2.786-0.548
				c1.762-0.471,3.323-1.09,4.585-1.805c1.266-0.711,2.213-1.533,2.792-2.312c0.321-0.376,0.472-0.773,0.651-1.095
				c0.093-0.332,0.192-0.561,0.244-0.822c0.054-0.583,0.083-0.895,0.083-0.895L247.586,245.492z"/>
		</g>
		<path fill="#FFFFFF" d="M223.498,245.18c0,4.865,3.938,8.796,8.802,8.796c4.86,0,8.792-3.932,8.792-8.796
			c0-4.855-3.932-8.792-8.792-8.792C227.435,236.388,223.498,240.325,223.498,245.18z"/>
		<g>
			<path fill="#FFFFFF" d="M231.918,240.265c0,0,0.473-0.078,1.179-0.151c0.347-0.048,0.821,0.048,1.326,0.117
				c0.259,0.033,0.484,0.163,0.737,0.263c0.248,0.109,0.512,0.209,0.724,0.4c0.22,0.175,0.476,0.33,0.69,0.522
				c0.199,0.202,0.386,0.422,0.537,0.654c0.136,0.237,0.185,0.498,0.234,0.738c0.06,0.239,0.047,0.473,0.019,0.685
				c-0.035,0.423-0.16,0.757-0.304,0.982c-0.127,0.224-0.236,0.339-0.236,0.339h-0.198c0,0-0.124-0.116-0.276-0.297
				c-0.079-0.09-0.161-0.197-0.244-0.313c-0.093-0.115-0.205-0.235-0.292-0.366c-0.086-0.132-0.184-0.265-0.288-0.392
				c-0.108-0.125-0.162-0.281-0.248-0.417c-0.082-0.136-0.134-0.296-0.179-0.479c-0.063-0.167-0.172-0.31-0.272-0.469
				c-0.089-0.172-0.247-0.279-0.391-0.402c-0.151-0.107-0.278-0.285-0.442-0.362c-0.333-0.15-0.614-0.4-0.963-0.498
				c-0.68-0.196-1.131-0.355-1.131-0.355L231.918,240.265z"/>
		</g>
		<g>
			<path fill="#FFFFFF" d="M249.54,224.923c0,0-0.454,0.044-1.25,0.123c-0.39,0.047-0.862,0.105-1.404,0.171
				c-0.541,0.075-1.151,0.159-1.816,0.25c-0.663,0.104-1.38,0.216-2.14,0.334c-0.757,0.142-1.553,0.246-2.373,0.409
				c-0.816,0.153-1.659,0.313-2.516,0.474c-0.855,0.147-1.714,0.347-2.573,0.519c-0.851,0.21-1.703,0.431-2.515,0.721
				c-0.818,0.273-1.611,0.536-2.385,0.703c-0.787,0.14-1.526,0.246-2.267,0.256c-0.721,0.046-1.413,0.059-2.067,0.041
				c-0.627,0.019-1.261-0.038-1.797-0.059c-0.276-0.014-0.535-0.026-0.774-0.039c-0.245-0.017-0.495-0.06-0.688-0.056
				c-0.408-0.016-0.756-0.041-1.008-0.07c-0.254-0.027-0.391-0.042-0.391-0.042l-0.317-0.504c0,0,0.061-0.122,0.175-0.352
				c0.118-0.231,0.311-0.552,0.592-0.945c0.281-0.394,0.664-0.774,1.131-1.23c0.468-0.456,1.028-0.844,1.67-1.274
				c0.638-0.395,1.354-0.771,2.129-1.094c0.768-0.311,1.607-0.604,2.483-0.734c0.879-0.152,1.805-0.16,2.737-0.126
				c0.935,0.012,1.872,0.078,2.803,0.064c0.93,0.023,1.856,0.019,2.766,0.066c0.909,0.024,1.803,0.101,2.666,0.184
				c1.724,0.142,3.325,0.382,4.688,0.599c1.358,0.242,2.502,0.479,3.282,0.684c0.77,0.212,1.21,0.333,1.21,0.333L249.54,224.923z"/>
		</g>
	</g>
	<g id="Naso">
		<g>
			<path fill="#FFFFFF" d="M218.672,279.932c0,0-0.111,0.128-0.32,0.326c-0.208,0.212-0.515,0.468-0.904,0.775
				c-0.39,0.286-0.862,0.64-1.405,0.937c-0.542,0.319-1.154,0.602-1.822,0.858c-0.667,0.256-1.391,0.457-2.155,0.608
				c-0.765,0.137-1.571,0.268-2.406,0.038c-0.834-0.194-1.697-0.706-2.573-1.156c-0.876-0.452-1.766-0.753-2.656-0.73
				c-0.89-0.009-1.78,0.359-2.656,0.902c-0.876,0.534-1.738,1.109-2.573,1.274c-0.834,0.19-1.641-0.011-2.406-0.151
				c-0.765-0.158-1.488-0.407-2.155-0.661c-0.667-0.281-1.28-0.582-1.822-0.909c-0.542-0.317-1.015-0.687-1.405-0.975
				c-0.389-0.326-0.695-0.581-0.904-0.802c-0.208-0.202-0.32-0.334-0.32-0.334s0.111-0.132,0.32-0.334
				c0.208-0.221,0.515-0.476,0.904-0.802c0.39-0.288,0.862-0.657,1.405-0.975c0.542-0.328,1.154-0.628,1.822-0.909
				c0.667-0.254,1.391-0.503,2.155-0.661c0.765-0.141,1.571-0.341,2.406-0.151c0.834,0.165,1.697,0.74,2.573,1.274
				c0.876,0.543,1.766,0.911,2.656,0.902c0.89,0.023,1.78-0.278,2.656-0.73c0.876-0.45,1.738-0.961,2.573-1.156
				c0.834-0.23,1.641-0.1,2.406,0.038c0.765,0.151,1.488,0.352,2.155,0.608c0.667,0.257,1.28,0.54,1.822,0.858
				c0.542,0.297,1.015,0.651,1.405,0.937c0.389,0.307,0.695,0.563,0.904,0.775C218.561,279.803,218.672,279.932,218.672,279.932z"/>
		</g>
		<g>
			<path fill="#FFFFFF" d="M196.989,266.632c-0.015,0.017,0.081,0.22,0.05,0.785c-0.019,0.254-0.065,0.559-0.155,0.895
				c-0.091,0.332-0.211,0.703-0.361,1.09c-0.298,0.777-0.699,1.646-1.149,2.524c-0.427,0.891-0.929,1.789-1.299,2.677
				c-0.195,0.443-0.314,0.894-0.398,1.318c-0.075,0.424-0.101,0.797-0.165,1.099c-0.046,0.294-0.115,0.521-0.193,0.738
				c-0.042,0.206-0.129,0.43-0.129,0.679c-0.02,0.251,0.003,0.534,0.055,0.814c0.029,0.289,0.139,0.54,0.187,0.79
				c0.154,0.461,0.243,0.807,0.244,0.807l0.001,0.007c0.037,0.141-0.048,0.285-0.189,0.321c-0.009,0.002-0.019,0.004-0.028,0.006
				c0,0-0.339,0.049-0.917-0.029c-0.28-0.066-0.637-0.129-1.009-0.334c-0.383-0.18-0.803-0.472-1.174-0.916
				c-0.396-0.429-0.691-1.041-0.871-1.714c-0.167-0.675-0.164-1.396-0.016-2.06c0.164-0.648,0.468-1.231,0.815-1.742
				c0.352-0.503,0.712-0.979,1.065-1.421c0.7-0.899,1.42-1.69,2.12-2.393c0.684-0.71,1.332-1.333,1.836-1.897
				c0.513-0.56,0.847-1.065,1.05-1.435c0.186-0.324,0.227-0.651,0.234-0.631c0.006-0.11,0.1-0.193,0.209-0.188
				C196.911,266.429,196.995,266.522,196.989,266.632z"/>
		</g>
	</g>
</g>
<g id="Capelli">
	<path fill="none" stroke="#FFFFFF" stroke-width="5.9559" stroke-miterlimit="10" d="M127.628,217.021
		c-0.161,1.289-0.303,2.427-0.406,3.277c-0.166,1.318-0.61,2.456-1.23,3.453c0.438,0.234,0.849,0.527,1.24,0.874
		c0.45-1.05,0.708-2.354,0.851-3.878C127.96,219.576,127.798,218.32,127.628,217.021z"/>
	<path fill="none" stroke="#FFFFFF" stroke-width="5.9559" stroke-miterlimit="10" d="M121.352,228.568c0,0,3.717-0.039,5.583-3.287
		c0.112-0.201,0.206-0.435,0.297-0.655c-0.391-0.347-0.801-0.64-1.24-0.874c-1.955,3.155-5.842,4.679-9.511,4.649
		c-0.781,1.807-1.24,3.947-1.24,6.237c0,4.944,2.091,9.159,5.046,10.854c1.934-2.911,4.044-7.292,6.149-13.847
		C123.559,230.903,121.352,228.568,121.352,228.568z"/>
	<path fill="none" stroke="#FFFFFF" stroke-width="5.9559" stroke-miterlimit="10" d="M125.992,223.752
		c0.62-0.997,1.064-2.135,1.23-3.453c0.103-0.851,0.245-1.989,0.406-3.277c-0.806-6.184-1.821-13.52,0.44-17.79
		c0.435-0.82,1.001-1.519,1.606-2.168c-1.558-5.08-0.005-11.653,1.212-15.479c-1.099-0.166-1.876-0.166-1.876-0.166
		c-7.659,0.991-12.123,6.896-12.621,12.303c-0.499,5.387,2.436,15.811,1.817,19.792c-1.153,7.444-7.937-0.66-7.937-0.66
		s-5.408,7.234-0.831,12.733c1.534,1.841,4.215,2.785,7.042,2.813C120.15,228.431,124.038,226.907,125.992,223.752z"/>
	<path fill="none" stroke="#FFFFFF" stroke-width="5.9559" stroke-miterlimit="10" d="M128.307,212.229
		c-0.263,1.725-0.488,3.36-0.679,4.792c0.17,1.299,0.332,2.555,0.455,3.727C128.297,218.379,128.268,215.498,128.307,212.229z"/>
	<path fill="none" stroke="#FFFFFF" stroke-width="5.9559" stroke-miterlimit="10" d="M127.433,247.855
		c0.146-1.421,0.46-2.872,0.898-4.336c0.704-2.422,1.69-4.895,2.721-7.41c1.304-3.18,2.627-6.408,3.434-9.671
		c-0.708,1.578-1.938,3.741-3.717,4.757c-0.234,0.142-0.479,0.259-0.728,0.352c-1.241,0.445-2.477,0.386-3.604,0.098
		c-2.105,6.554-4.215,10.936-6.149,13.847c-5.012,7.527-8.933,5.281-8.933,5.281s-0.919,4.757,2.144,7.913
		c3,3.091,7.565,1.181,7.565,1.181s-0.83,5.886,1.833,8.456c3.36,3.248,9.138,0.865,9.138,0.865s-3.375-1.558-3.731-5.29
		c-0.079-0.85,0.049-1.802,0.298-2.833C127.359,257.434,126.93,252.789,127.433,247.855z"/>
	<path fill="none" stroke="#FFFFFF" stroke-width="5.9559" stroke-miterlimit="10" d="M129.787,197.444
		c-0.04-0.122-0.074-0.253-0.113-0.381c-0.605,0.65-1.171,1.348-1.606,2.168c-2.261,4.27-1.246,11.605-0.44,17.79
		c0.191-1.432,0.416-3.067,0.679-4.792C128.38,207.858,128.6,202.812,129.787,197.444z"/>
	<path fill="none" stroke="#FFFFFF" stroke-width="5.9559" stroke-miterlimit="10" d="M141.373,205.953l0.015-0.088
		c-0.005-0.005-0.01-0.01-0.015-0.01C141.373,205.885,141.373,205.919,141.373,205.953z"/>
	<path fill="none" stroke="#FFFFFF" stroke-width="5.9559" stroke-miterlimit="10" d="M141.387,205.865l0.4-2.461
		c-0.122,0.049-0.254,0.107-0.386,0.146c-0.029,0.812-0.029,1.573-0.029,2.305C141.377,205.855,141.382,205.86,141.387,205.865z"/>
	<path fill="none" stroke="#FFFFFF" stroke-width="5.9559" stroke-miterlimit="10" d="M137.348,184.721
		c3.262,0.909,6.462-3.272,7.327-15.219c0.317-4.293,1.069-8.338,2.31-11.86l0,0c-14.243,0.146-14.849,10.633-14.839,21.063
		c0.699,1.572,1.479,2.881,2.31,3.887C135.39,183.715,136.366,184.443,137.348,184.721z"/>
	<path fill="none" stroke="#FFFFFF" stroke-width="5.9559" stroke-miterlimit="10" d="M281.442,224.309
		c0.391-0.342,0.801-0.63,1.23-0.88c-0.62-0.991-1.064-2.125-1.23-3.448c-0.103-0.85-0.235-1.987-0.406-3.268
		c-0.171,1.3-0.327,2.555-0.455,3.712C280.733,221.95,280.987,223.253,281.442,224.309z"/>
	<path fill="none" stroke="#FFFFFF" stroke-width="5.9559" stroke-miterlimit="10" d="M282.672,223.429
		c-0.429,0.25-0.839,0.538-1.23,0.88c0.092,0.229,0.175,0.454,0.292,0.654c1.861,3.257,5.583,3.287,5.583,3.287
		s-2.212,2.339-5.09,3.082c2.105,6.556,4.215,10.941,6.154,13.848c2.95-1.705,5.046-5.91,5.046-10.849
		c0-2.305-0.464-4.439-1.246-6.247C288.514,228.118,284.64,226.589,282.672,223.429z"/>
	<path fill="none" stroke="#FFFFFF" stroke-width="5.9559" stroke-miterlimit="10" d="M298.404,212.537c0,0-6.784,8.108-7.946,0.665
		c-0.617-3.985,2.315-14.399,1.816-19.801c-0.493-5.393-4.957-11.303-12.616-12.304c0,0-0.782,0.01-1.881,0.176
		c1.217,3.824,2.779,10.394,1.217,15.479c0.605,0.649,1.163,1.343,1.597,2.169c2.276,4.268,1.25,11.6,0.445,17.793
		c0.17,1.281,0.303,2.418,0.406,3.268c0.166,1.324,0.61,2.457,1.23,3.448c1.968,3.16,5.842,4.689,9.51,4.655
		c2.828-0.029,5.514-0.967,7.043-2.813C303.811,219.776,298.404,212.537,298.404,212.537z"/>
	<path fill="none" stroke="#FFFFFF" stroke-width="5.9559" stroke-miterlimit="10" d="M280.582,220.425
		c0.127-1.157,0.283-2.412,0.455-3.712c-0.18-1.441-0.411-3.072-0.684-4.806C280.392,215.175,280.372,218.057,280.582,220.425z"/>
	<path fill="none" stroke="#FFFFFF" stroke-width="5.9559" stroke-miterlimit="10" d="M278.628,231.23
		c-0.253-0.093-0.494-0.21-0.732-0.347c-1.778-1.021-3.009-3.185-3.712-4.762c0.811,3.262,2.13,6.491,3.429,9.67
		c1.03,2.516,2.022,4.987,2.73,7.415c0.419,1.465,0.757,2.911,0.898,4.337c0.503,4.933,0.059,9.573-1.177,13.212
		c0.254,1.021,0.381,1.968,0.308,2.823c-0.372,3.731-3.736,5.3-3.736,5.3s5.768,2.374,9.138-0.879c2.653-2.56,1.833-8.45,1.833-8.45
		s4.566,1.91,7.57-1.172c3.058-3.166,2.135-7.913,2.135-7.913s-3.913,2.247-8.929-5.284c-1.939-2.907-4.049-7.292-6.154-13.848
		C281.1,231.625,279.878,231.674,278.628,231.23z"/>
	<path fill="none" stroke="#FFFFFF" stroke-width="5.9559" stroke-miterlimit="10" d="M280.353,211.907
		c0.273,1.734,0.503,3.365,0.684,4.806c0.805-6.193,1.831-13.525-0.445-17.793c-0.434-0.826-0.991-1.52-1.597-2.169
		c-0.039,0.122-0.073,0.253-0.123,0.386C280.064,202.5,280.289,207.536,280.353,211.907z"/>
	<path fill="none" stroke="#FFFFFF" stroke-width="5.9559" stroke-miterlimit="10" d="M267.145,208.927
		c0.088-1.04,0.137-2.144,0.157-3.394c-0.2,0.215-0.41,0.391-0.621,0.591L267.145,208.927z"/>
	<path fill="none" stroke="#FFFFFF" stroke-width="5.9559" stroke-miterlimit="10" d="M251.857,181.546
		c-0.029,0.039-0.073,0.087-0.112,0.141l0.347,0.2C252.018,181.775,251.939,181.658,251.857,181.546z"/>
	<path fill="none" stroke="#FFFFFF" stroke-width="5.9559" stroke-miterlimit="10" d="M267.301,205.533
		c0.005-0.733-0.01-1.485-0.034-2.296c-0.381-0.107-0.743-0.273-1.119-0.425l0.532,3.313
		C266.891,205.924,267.102,205.748,267.301,205.533z"/>
	<path fill="none" stroke="#FFFFFF" stroke-width="5.9559" stroke-miterlimit="10" d="M271.316,184.403
		c0.977-0.279,1.968-1.012,2.897-2.135c0.83-0.996,1.611-2.305,2.31-3.874c0-10.433-0.601-20.924-14.844-21.07l0,0
		c1.236,3.526,1.998,7.575,2.305,11.864C264.859,181.131,268.063,185.312,271.316,184.403z"/>
	<path fill="none" stroke="#FFFFFF" stroke-width="5.9559" stroke-miterlimit="10" d="M217.92,154.369
		c-0.097,1.724-0.776,3.512-0.712,5.642c0.087,3.482,3.81,4,6.891,3.825c-0.068-1.675-0.391-3.287-1.304-4.826
		C221.432,156.714,219.723,155.366,217.92,154.369z"/>
	<path fill="none" stroke="#FFFFFF" stroke-width="5.9559" stroke-miterlimit="10" d="M185.146,173.828
		c-0.005,0.352-0.035,0.694-0.064,1.046l1.764,0.097C186.235,174.629,185.659,174.253,185.146,173.828z"/>
	<path fill="none" stroke="#FFFFFF" stroke-width="5.9559" stroke-miterlimit="10" d="M206.169,168.026
		c1.675,1.461,3.838,2.671,6.554,3.415c0.606-0.186,1.227-0.254,1.871-0.152c0.801,0.146,1.451,0.376,1.988,0.679
		c3.028-0.044,5.393-1.226,7.18-2.706c0.191-1.866,0.41-3.678,0.337-5.426c-3.081,0.175-6.804-0.342-6.891-3.825
		c-0.064-2.129,0.615-3.917,0.712-5.642c-3.086-1.69-6.428-2.31-8.737-4.625c-2.775,1.157-5.437,3.331-6.565,5.583
		c-0.098,0.2-0.181,0.415-0.264,0.63C200.98,159.478,202.105,164.495,206.169,168.026z"/>
	<path fill="none" stroke="#FFFFFF" stroke-width="5.9559" stroke-miterlimit="10" d="M148.146,231.875
		c0.646-5.231,0.27-14.853-1.264-22.747c-0.137-0.039-0.289-0.088-0.425-0.127c-1.914-0.61-3.697-1.612-5.07-3.136l-0.015,0.088
		c0.054,5.881,1.045,9.368,2.247,11.419c1.846,3.165,4.163,2.936,4.163,2.936s-1.12,4.718-5.217,6.339
		c-1.104,0.43-2.159,0.469-3.111,0.293c-0.513-0.088-0.986-0.258-1.426-0.439c-1.71-0.718-2.843-1.905-2.843-1.905
		s-0.234,0.787-0.699,1.841c-0.806,3.263-2.13,6.491-3.434,9.671c-1.03,2.515-2.017,4.988-2.721,7.41
		c-0.438,1.465-0.752,2.916-0.898,4.336c-0.503,4.934-0.073,9.579,1.167,13.208c1.515,4.445,4.245,7.38,7.972,7.38
		c1.983,0,3.468-0.59,4.602-1.456c3.604-2.74,3.589-8.43,3.589-8.43s-2.374,0.885-4.175,0.059c-1.086-0.498-1.964-1.627-1.979-3.966
		c-0.01-0.865,0.103-1.891,0.357-3.111C140.059,246.386,147.044,240.896,148.146,231.875z"/>
	<path fill="none" stroke="#FFFFFF" stroke-width="5.9559" stroke-miterlimit="10" d="M156.802,181.863
		c-1.89,2.531-3.267,6.292-4.4,9.735c-0.142,0.39-0.293,0.796-0.445,1.191c0.337,1.124,0.885,2.028,1.856,2.447
		c3.786,1.583,8.216-2.374,9.417-3.551c0.205-1.021,0.312-2.085,0.312-3.204c0-0.401-0.015-0.796-0.038-1.187
		c-1.7-0.738-3.376-1.841-4.929-3.4C157.891,183.211,157.306,182.533,156.802,181.863z"/>
	<path fill="none" stroke="#FFFFFF" stroke-width="5.9559" stroke-miterlimit="10" d="M153.813,195.237
		c-0.972-0.419-1.52-1.324-1.856-2.447c-0.537,1.333-1.215,2.638-2.017,3.859c-1.143,1.738-2.515,3.307-4.054,4.538
		c-0.322,0.254-0.654,0.488-0.982,0.708c-0.996,0.669-2.036,1.162-3.116,1.509l-0.4,2.461c1.373,1.524,3.156,2.526,5.07,3.136
		c0.137,0.039,0.288,0.088,0.425,0.127c3.75,1.045,7.937,0.611,10.536-0.576c10.095-4.606,6.14-17.193,6.14-17.193
		s-0.118,0.122-0.328,0.328C162.029,192.863,157.599,196.819,153.813,195.237z"/>
	<path fill="none" stroke="#FFFFFF" stroke-width="5.9559" stroke-miterlimit="10" d="M143.619,217.373
		c-1.201-2.051-2.193-5.539-2.247-11.419c0-0.034,0-0.068,0-0.098c0-0.732,0-1.494,0.029-2.305
		c-0.469,0.137-0.938,0.229-1.426,0.293c-0.391,0.058-0.801,0.083-1.206,0.083c-1.158,0-2.334-0.2-3.527-0.674
		c-1.802-0.718-3.121-1.808-4.073-3.116c-0.596-0.821-1.055-1.725-1.382-2.692c-1.188,5.368-1.407,10.414-1.48,14.785
		c-0.039,3.268-0.01,6.149-0.224,8.519c-0.142,1.524-0.4,2.828-0.851,3.878c-0.092,0.22-0.185,0.454-0.297,0.655
		c-1.866,3.249-5.583,3.287-5.583,3.287s2.208,2.335,5.085,3.077c1.128,0.288,2.364,0.347,3.604-0.098
		c0.249-0.093,0.494-0.21,0.728-0.352c1.778-1.016,3.008-3.18,3.717-4.757c0.465-1.055,0.699-1.841,0.699-1.841
		s1.133,1.187,2.843,1.905c0.439,0.181,0.913,0.352,1.426,0.439c0.953,0.176,2.008,0.137,3.111-0.293
		c4.097-1.622,5.217-6.339,5.217-6.339S145.465,220.538,143.619,217.373z"/>
	<path fill="none" stroke="#FFFFFF" stroke-width="5.9559" stroke-miterlimit="10" d="M174.347,147.37
		c-3.736-2.535-7.044-2.686-11.8-2.686c-7.82,0-12.856,5.251-15.562,12.958c-1.241,3.522-1.993,7.566-2.31,11.86
		c-0.865,11.947-4.064,16.128-7.327,15.219c-0.982-0.278-1.958-1.006-2.892-2.129c-0.831-1.006-1.611-2.315-2.31-3.887
		c-0.044-0.089-0.083-0.177-0.127-0.265c0,0-0.522,1.231-1.132,3.146c-1.217,3.825-2.77,10.399-1.212,15.479
		c0.039,0.127,0.073,0.259,0.113,0.381c0.327,0.967,0.787,1.871,1.382,2.692c0.952,1.308,2.271,2.397,4.073,3.116
		c1.192,0.474,2.369,0.674,3.527,0.674c0.405,0,0.815-0.024,1.206-0.083c0.489-0.064,0.957-0.156,1.426-0.293
		c0.131-0.039,0.264-0.098,0.386-0.146c1.08-0.347,2.12-0.84,3.116-1.509c0.328-0.22,0.66-0.455,0.982-0.708
		c1.539-1.231,2.911-2.799,4.054-4.538c0.802-1.221,1.48-2.525,2.017-3.859c0.152-0.396,0.304-0.801,0.445-1.191
		c1.133-3.444,2.511-7.205,4.4-9.735c-0.083-0.116-0.151-0.229-0.22-0.346c-1.109-1.563-1.768-3.097-2.081-4.571
		c-1.685-8.177,7.053-14.59,7.053-14.59s-4.479,12.343,4.464,12.612c1.007,0.024,1.812-0.117,2.477-0.391l0.942-0.557
		c3.615-2.877,0.957-12.083,2.809-21.633C172.544,150.838,173.292,149.113,174.347,147.37z"/>
	<path fill="none" stroke="#FFFFFF" stroke-width="5.9559" stroke-miterlimit="10" d="M168.496,174.576
		c0.356-0.142,0.674-0.327,0.942-0.557L168.496,174.576z"/>
	<path fill="none" stroke="#FFFFFF" stroke-width="5.9559" stroke-miterlimit="10" d="M281.241,247.543
		c-0.142-1.426-0.479-2.872-0.898-4.337c-0.708-2.428-1.7-4.899-2.73-7.415c-1.299-3.179-2.618-6.408-3.429-9.67
		c-0.475-1.051-0.704-1.842-0.704-1.842s-1.412,1.494-3.487,2.144c-0.249,0.078-0.504,0.151-0.772,0.201
		c-0.962,0.171-2.013,0.141-3.125-0.293c-4.094-1.611-5.208-6.331-5.208-6.331s2.316,0.22,4.162-2.935
		c0.958-1.641,1.769-4.206,2.096-8.138l-0.464-2.803c-1.275,1.196-2.808,2.041-4.469,2.563c-0.137,0.044-0.279,0.083-0.425,0.123
		c-1.539,7.902-1.91,17.515-1.27,22.747c1.099,9.026,8.094,14.516,9.183,19.674c0.19,0.903,0.284,1.675,0.323,2.388
		c0.185,3.278-1.085,4.523-2.536,4.894c-1.69,0.435-3.575-0.273-3.575-0.273s-0.016,4.978,2.925,7.859
		c1.202,1.182,2.872,2.021,5.256,2.021c3.731,0,6.457-2.92,7.972-7.365C281.3,257.117,281.744,252.476,281.241,247.543z"/>
	<path fill="none" stroke="#FFFFFF" stroke-width="5.9559" stroke-miterlimit="10" d="M254.851,194.915
		c0.977-0.411,1.52-1.319,1.861-2.432c-0.157-0.401-0.313-0.806-0.44-1.207c-1.089-3.292-2.408-6.872-4.181-9.388l-0.347-0.2
		c-0.475,0.625-1.021,1.261-1.651,1.896c-1.559,1.553-3.219,2.657-4.924,3.395c-0.029,0.39-0.049,0.786-0.049,1.187
		c0,1.114,0.113,2.188,0.313,3.204C246.635,192.551,251.061,196.502,254.851,194.915z"/>
	<path fill="none" stroke="#FFFFFF" stroke-width="5.9559" stroke-miterlimit="10" d="M266.681,206.125l-0.532-3.313
		c-0.816-0.327-1.622-0.718-2.379-1.226c-0.337-0.224-0.669-0.464-0.981-0.713c-1.544-1.236-2.93-2.799-4.059-4.533
		c-0.796-1.236-1.48-2.525-2.017-3.858c-0.342,1.113-0.885,2.021-1.861,2.432c-3.791,1.587-8.216-2.364-9.417-3.546
		c-0.201-0.205-0.322-0.332-0.322-0.332s-3.947,12.597,6.138,17.198c2.589,1.187,6.781,1.626,10.536,0.577
		c0.146-0.039,0.289-0.078,0.425-0.123C263.873,208.166,265.406,207.32,266.681,206.125z"/>
	<path fill="none" stroke="#FFFFFF" stroke-width="5.9559" stroke-miterlimit="10" d="M281.734,224.963
		c-0.117-0.2-0.201-0.424-0.292-0.654c-0.455-1.056-0.708-2.359-0.86-3.884c-0.209-2.369-0.19-5.25-0.229-8.518
		c-0.063-4.372-0.288-9.407-1.48-14.77c-0.322,0.957-0.781,1.865-1.368,2.681c-0.957,1.31-2.281,2.393-4.088,3.116
		c-1.183,0.474-2.369,0.674-3.527,0.674c-0.401,0-0.806-0.03-1.201-0.079c-0.474-0.068-0.948-0.162-1.421-0.293
		c0.024,0.811,0.039,1.563,0.034,2.296c-0.02,1.25-0.068,2.354-0.157,3.394c-0.327,3.932-1.137,6.497-2.096,8.138
		c-1.845,3.155-4.162,2.935-4.162,2.935s1.114,4.719,5.208,6.331c1.112,0.435,2.163,0.464,3.125,0.293
		c0.268-0.049,0.523-0.123,0.772-0.201c2.076-0.65,3.487-2.144,3.487-2.144s0.229,0.791,0.704,1.842
		c0.703,1.577,1.934,3.741,3.712,4.762c0.239,0.137,0.479,0.254,0.732,0.347c1.25,0.444,2.472,0.396,3.6,0.102
		c2.877-0.742,5.09-3.082,5.09-3.082S283.595,228.22,281.734,224.963z"/>
	<path fill="none" stroke="#FFFFFF" stroke-width="5.9559" stroke-miterlimit="10" d="M277.778,181.272
		c-0.61-1.925-1.133-3.15-1.133-3.15c-0.039,0.098-0.087,0.181-0.122,0.273c-0.699,1.568-1.48,2.877-2.31,3.874
		c-0.929,1.123-1.92,1.856-2.897,2.135c-3.252,0.908-6.457-3.272-7.332-15.215c-0.308-4.289-1.069-8.337-2.305-11.864
		c-2.706-7.698-7.728-12.953-15.557-12.953c-4.762,0-8.059,0.156-11.8,2.687c1.054,1.743,1.802,3.468,2.1,5.016
		c2.257,11.649-2.217,22.825,6.228,22.58c8.934-0.264,4.46-12.611,4.46-12.611s8.747,6.413,7.052,14.589
		c-0.327,1.587-1.045,3.229-2.305,4.914c0.083,0.112,0.161,0.229,0.234,0.341c1.773,2.516,3.092,6.096,4.181,9.388
		c0.126,0.401,0.283,0.806,0.44,1.207c0.537,1.333,1.221,2.623,2.017,3.858c1.128,1.734,2.515,3.297,4.059,4.533
		c0.313,0.249,0.645,0.489,0.981,0.713c0.757,0.508,1.563,0.898,2.379,1.226c0.376,0.152,0.738,0.318,1.119,0.425
		c0.473,0.131,0.947,0.225,1.421,0.293c0.396,0.049,0.8,0.079,1.201,0.079c1.158,0,2.344-0.2,3.527-0.674
		c1.807-0.723,3.131-1.807,4.088-3.116c0.587-0.816,1.045-1.724,1.368-2.681c0.049-0.133,0.083-0.265,0.123-0.386
		C280.557,191.666,278.995,185.097,277.778,181.272z"/>
	<path fill="none" stroke="#FFFFFF" stroke-width="5.9559" stroke-miterlimit="10" d="M223.606,174.835
		c-0.191-1.891-0.044-3.761,0.156-5.573c-1.787,1.48-4.152,2.662-7.18,2.706c1.279,0.713,1.93,1.846,2.531,3.122
		c0.551,1.187,1.06,2.505,1.982,3.75c1.124,1.509,2.604,1.7,4.118,1.26C224.216,178.337,223.771,176.569,223.606,174.835z"/>
	<path fill="none" stroke="#FFFFFF" stroke-width="5.9559" stroke-miterlimit="10" d="M189.146,179.534
		c0.781-1.05,1.26-2.149,1.724-3.19c-1.544-0.2-2.867-0.712-4.024-1.372l-1.764-0.097c-0.136,1.753-0.557,3.526-1.503,5.313
		C185.547,181.214,187.671,181.517,189.146,179.534z"/>
	<path fill="none" stroke="#FFFFFF" stroke-width="5.9559" stroke-miterlimit="10" d="M201.641,175.812
		c-0.356-0.567-0.732-1.109-1.153-1.583c-0.917,0.533-1.983,0.967-3.111,1.333c-0.669,0.225-1.324,0.45-2.062,0.606
		c-1.65,0.332-3.111,0.342-4.444,0.175c-0.464,1.041-0.943,2.14-1.724,3.19c-1.475,1.983-3.6,1.68-5.567,0.654
		c-0.391,0.743-0.836,1.476-1.427,2.223c-0.8,1.006-1.827,1.954-2.999,2.799c1.114,2.466,3.185,4.826,6.985,6.222
		c9.485,3.483,16.836-1.899,17.632-7.341C204.132,181.614,203.223,178.342,201.641,175.812z"/>
	<path fill="none" stroke="#FFFFFF" stroke-width="5.9559" stroke-miterlimit="10" d="M199.77,138.48
		c-6.824-9.095-20.128,0.176-25.423,8.889c-1.055,1.744-1.802,3.468-2.101,5.017c-1.852,9.549,0.806,18.756-2.809,21.633
		c-0.268,0.229-0.586,0.415-0.942,0.557c-0.665,0.274-1.47,0.415-2.477,0.391c-8.943-0.269-4.464-12.612-4.464-12.612
		s-8.738,6.414-7.053,14.59c0.313,1.475,0.972,3.008,2.081,4.571c0.069,0.117,0.137,0.23,0.22,0.346
		c0.503,0.67,1.089,1.348,1.773,2.032c1.553,1.559,3.229,2.662,4.929,3.4c5.572,2.413,11.566,0.835,15.649-2.085
		c1.172-0.845,2.199-1.793,2.999-2.799c0.591-0.748,1.036-1.48,1.427-2.223c0.946-1.787,1.367-3.56,1.503-5.313
		c0.029-0.353,0.059-0.694,0.064-1.046c-3.399-2.783-4.708-6.789-4.708-6.789s1.992,0.625,4.297,0.859
		c-0.317-3.023-0.44-5.91,1.133-8.567c3.976-6.701,10.921-5.466,14.399-10.178C202.549,146.051,201.543,140.849,199.77,138.48z"/>
	<path fill="none" stroke="#FFFFFF" stroke-width="5.9559" stroke-miterlimit="10" d="M231.948,175.162c0,0-3.439,3.98-6.736,4.938
		c-1.514,0.44-2.994,0.249-4.118-1.26c-0.923-1.245-1.431-2.564-1.982-3.75c-0.601-1.275-1.251-2.409-2.531-3.122
		c-0.537-0.303-1.187-0.533-1.988-0.679c-0.644-0.103-1.265-0.034-1.871,0.152c-1.752,0.552-3.331,2.217-4.473,4.264
		c-1.362,2.432-2.11,5.406-1.778,7.687c0.795,5.452,8.151,10.834,17.627,7.352c3.253-1.192,5.241-3.097,6.453-5.163
		C233.341,180.809,231.948,175.162,231.948,175.162z"/>
	<path fill="none" stroke="#FFFFFF" stroke-width="5.9559" stroke-miterlimit="10" d="M202.354,155.957
		c-3.082-2.203-6.965-3.297-9.187-1.339c-3.419,3.034-1.231,5.954-1.559,9.847c-0.293,3.375-3.854,3.741-6.873,3.434
		c-2.305-0.234-4.297-0.859-4.297-0.859s1.309,4.005,4.708,6.789c0.512,0.425,1.088,0.801,1.7,1.144
		c1.158,0.66,2.48,1.172,4.024,1.372c1.333,0.167,2.794,0.157,4.444-0.175c0.738-0.156,1.393-0.381,2.062-0.606
		c1.128-0.366,2.194-0.801,3.111-1.333c2.789-1.602,4.67-3.844,5.681-6.203C202.105,164.495,200.98,159.478,202.354,155.957z"/>
	<path fill="none" stroke="#FFFFFF" stroke-width="5.9559" stroke-miterlimit="10" d="M247.11,162.043c0,0,4.474,12.347-4.46,12.611
		c-8.445,0.245-3.971-10.931-6.228-22.58c-0.297-1.548-1.046-3.272-2.1-5.016c-5.3-8.719-18.6-17.98-25.423-8.895
		c-1.778,2.369-2.784,7.576-0.498,10.672c0.245,0.333,0.507,0.625,0.782,0.909c2.31,2.315,5.651,2.935,8.737,4.625
		c1.803,0.997,3.512,2.345,4.875,4.64c0.913,1.539,1.236,3.151,1.304,4.826c0.073,1.748-0.146,3.561-0.337,5.426
		c-0.2,1.812-0.347,3.683-0.156,5.573c0.166,1.734,0.61,3.502,1.606,5.265c3.297-0.958,6.736-4.938,6.736-4.938
		s1.393,5.646-1.397,10.418c4.015,2.466,9.495,3.614,14.619,1.397c1.705-0.737,3.365-1.842,4.924-3.395
		c0.63-0.635,1.176-1.27,1.651-1.896c0.039-0.054,0.083-0.103,0.112-0.141c1.26-1.686,1.978-3.327,2.305-4.914
		C255.857,168.456,247.11,162.043,247.11,162.043z"/>
</g>
<g id="Testo">
	<g>
		<path fill="#FFFFFF" d="M-0.323,370.932l1.268-0.813l15.575,24.304l-1.268,0.813l-0.989-1.542
			c-0.864-1.349-1.799-2.28-2.807-2.796c-0.701-0.389-1.542-0.494-2.524-0.316c-0.709,0.101-2.23,0.897-4.561,2.391l-30.577,19.596
			c-2.376,1.523-3.781,2.601-4.215,3.232c-0.433,0.633-0.627,1.475-0.582,2.525c0.045,1.052,0.485,2.229,1.32,3.53l0.988,1.543
			l-1.268,0.813l-15.575-24.304l1.268-0.813l0.989,1.542c0.864,1.349,1.8,2.28,2.807,2.796c0.701,0.389,1.55,0.506,2.546,0.351
			c0.709-0.1,2.229-0.897,4.561-2.391l30.577-19.596c2.377-1.523,3.778-2.606,4.204-3.25c0.426-0.644,0.616-1.49,0.571-2.542
			c-0.045-1.051-0.485-2.229-1.32-3.531L-0.323,370.932z"/>
		<path fill="#FFFFFF" d="M-8.982,112.768l12.534,9.07c2.419,1.75,4.049,2.704,4.89,2.86c0.842,0.157,1.72-0.003,2.635-0.48
			c0.915-0.477,2.112-1.738,3.592-3.784l1.221,0.883l-16.564,22.891l-1.221-0.883c1.496-2.066,2.318-3.607,2.466-4.623
			c0.148-1.015,0.022-1.894-0.379-2.636c-0.4-0.742-1.81-1.988-4.229-3.739l-29.026-21.004c-2.418-1.75-4.049-2.704-4.89-2.86
			c-0.842-0.157-1.72,0.004-2.635,0.48c-0.915,0.478-2.112,1.738-3.592,3.783l-1.221-0.883l15.037-20.78
			c3.915-5.41,7.153-9.097,9.714-11.063c2.562-1.965,5.421-3.012,8.579-3.14c3.158-0.127,6.089,0.788,8.794,2.745
			c3.298,2.387,5.166,5.547,5.602,9.481c0.266,2.504-0.248,5.367-1.539,8.586l22.921,0.203c2.976,0.009,4.92-0.108,5.833-0.352
			c1.334-0.408,2.464-1.183,3.389-2.322l1.221,0.883l-10.192,14.084l-30.815-0.337L-8.982,112.768z M-30.917,96.896l19.593,14.178
			l1.36-1.88c2.211-3.056,3.586-5.546,4.124-7.469c0.537-1.923,0.389-3.847-0.445-5.774c-0.834-1.927-2.427-3.741-4.78-5.444
			c-3.408-2.466-6.503-3.491-9.284-3.074c-2.781,0.417-5.452,2.396-8.014,5.936L-30.917,96.896z"/>
		<path fill="#FFFFFF" d="M16.508,43.631L31.058,60.76l0.838-0.711c2.669-2.267,3.891-4.748,3.668-7.442
			c-0.224-2.695-1.558-5.817-4.003-9.367l1.179-1.001L51.454,64.27l-1.179,1.001c-2.287-2.188-4.479-3.71-6.575-4.565
			c-2.097-0.854-3.897-1.097-5.4-0.729s-3.258,1.405-5.265,3.11l10.068,11.854c1.968,2.317,3.27,3.651,3.906,4.001
			c0.636,0.351,1.363,0.463,2.183,0.337c0.819-0.126,1.828-0.698,3.028-1.718l2.513-2.135c3.931-3.338,6.307-6.924,7.13-10.757
			c0.822-3.832,0.169-8.049-1.959-12.652l1.148-0.975l9.467,14.982L34.15,96.916l-0.976-1.148l1.396-1.186
			c1.221-1.037,2.019-2.088,2.395-3.155c0.292-0.747,0.284-1.594-0.024-2.544c-0.194-0.69-1.188-2.09-2.979-4.2l-23.511-27.68
			C8.835,55.1,7.79,53.975,7.318,53.628c-0.822-0.548-1.679-0.782-2.572-0.701c-1.278,0.089-2.6,0.713-3.965,1.873l-1.396,1.186
			l-0.976-1.148L33.63,24.922l10.569,12.443l-1.179,1.001c-3.184-2.531-5.88-3.998-8.09-4.399c-2.21-0.401-4.573-0.069-7.086,0.997
			c-1.475,0.612-3.806,2.271-6.991,4.977L16.508,43.631z"/>
		<path fill="#FFFFFF" d="M101.228,28.116l-1.365-39.338l20.473-9.271l0.622,1.373l-1.632,0.739
			c-1.483,0.672-2.553,1.469-3.208,2.391c-0.461,0.627-0.693,1.431-0.694,2.415c-0.003,0.717,0.561,2.324,1.691,4.821l15.014,33.158
			c1.165,2.572,2.028,4.117,2.591,4.637c0.563,0.52,1.374,0.83,2.433,0.932c1.059,0.102,2.293-0.167,3.703-0.805l1.632-0.739
			l0.622,1.373L116.85,41.69l-0.622-1.372l1.632-0.739c1.483-0.672,2.553-1.469,3.208-2.391c0.461-0.625,0.688-1.443,0.678-2.452
			c0.003-0.716-0.566-2.336-1.708-4.858L103.159-7.396l1.488,54.612l-0.89,0.403L63.551,10.94l16.039,35.42
			c1.12,2.473,1.87,3.966,2.251,4.478c0.881,1.091,2.036,1.782,3.464,2.074c1.428,0.292,3.292-0.083,5.592-1.124l0.621,1.373
			l-17.209,7.792l-0.621-1.373l0.519-0.235c1.124-0.479,2.082-1.128,2.872-1.949c0.791-0.82,1.288-1.663,1.491-2.53
			c0.204-0.867,0.178-1.942-0.076-3.229c-0.074-0.294-0.62-1.566-1.639-3.816L62.445,16c-1.153-2.546-2.009-4.074-2.566-4.581
			c-0.558-0.507-1.366-0.812-2.425-0.913c-1.059-0.102-2.293,0.167-3.703,0.805l-1.595,0.722l-0.622-1.372l20.547-9.304
			L101.228,28.116z"/>
		<path fill="#FFFFFF" d="M212.673-32.235l1.439,16.304l-1.582,0.14c-1.019-3.507-2.292-6.126-3.821-7.858
			c-1.529-1.731-3.326-2.874-5.391-3.427c-2.066-0.553-5.342-0.632-9.831-0.235l-4.299,0.38l1.966,22.266l1.46-0.129
			c2.542-0.224,4.564-1.309,6.068-3.254c1.504-1.944,2.373-5.447,2.607-10.51l1.419-0.125l2.543,28.795l-1.419,0.125
			c-0.663-3.184-1.633-5.837-2.91-7.958c-0.861-1.422-2.007-2.513-3.437-3.273c-1.43-0.759-2.969-1.066-4.618-0.92l-1.46,0.129
			l1.479,16.75c0.21,2.38,0.405,3.82,0.586,4.322c0.29,0.819,0.813,1.414,1.567,1.783c0.754,0.37,2.268,0.454,4.539,0.253
			l3.245-0.286c2.622-0.232,5.089-1.069,7.401-2.514c2.311-1.443,4.06-3.158,5.248-5.143c1.187-1.985,2.146-4.699,2.878-8.143
			l1.541-0.136l-0.985,17.54l-48.262,4.262l-0.132-1.5l3.082-0.272c2.379-0.21,3.987-0.672,4.823-1.386
			c0.836-0.714,1.343-1.61,1.52-2.689c0.07-0.441-0.013-2.001-0.25-4.678l-1.236-13.992L160.65,3.954l-6.654,13.054
			c-1.047,2.027-1.642,3.319-1.783,3.877c-0.231,0.783-0.314,1.526-0.252,2.229c0.091,1.028,0.649,1.877,1.676,2.549
			c1.026,0.672,2.772,0.927,5.238,0.764l0.132,1.5l-17.845,1.576l-0.133-1.501c1.446-0.291,2.743-0.943,3.894-1.958
			c1.15-1.014,2.562-3.162,4.233-6.443l19.135-37.413c1.581-3.082,2.339-4.988,2.274-5.719c-0.057-0.649-0.321-1.245-0.792-1.79
			c-0.471-0.544-1.096-0.905-1.874-1.081c-0.779-0.177-2.439-0.153-4.98,0.072l-0.133-1.5L212.673-32.235z M178.189-0.62
			l-2.22-25.145L162.21,0.791L178.189-0.62z"/>
		<path fill="#FFFFFF" d="M245.155,26.577l0.444-1.439l1.75,0.54c1.53,0.472,2.778,0.595,3.743,0.367
			c0.965-0.228,1.77-0.696,2.415-1.407c0.402-0.472,1.023-2.07,1.863-4.793l10.709-34.703c0.832-2.697,1.209-4.427,1.133-5.189
			c-0.078-0.762-0.473-1.53-1.185-2.304c-0.713-0.774-1.808-1.389-3.287-1.845l-1.751-0.541l0.444-1.439l23.615,7.288
			c6.302,1.945,11.108,4.365,14.419,7.262c4.046,3.549,6.625,7.826,7.738,12.827c1.112,5.002,0.84,10.188-0.817,15.556
			c-1.145,3.709-2.796,6.942-4.953,9.699c-2.158,2.757-4.498,4.862-7.019,6.313c-2.522,1.452-5.212,2.412-8.068,2.879
			c-2.857,0.468-6.179,0.487-9.966,0.056c-1.678-0.177-4.216-0.79-7.614-1.838L245.155,26.577z M280.624-16.974l-12.703,41.16
			c-0.672,2.179-0.981,3.546-0.925,4.103c0.055,0.557,0.289,1.042,0.702,1.453c0.581,0.605,1.532,1.112,2.854,1.52
			c4.331,1.336,8.094,0.878,11.289-1.374c4.345-3.033,7.814-8.752,10.408-17.155c2.089-6.77,2.694-12.505,1.816-17.208
			c-0.71-3.685-2.211-6.505-4.504-8.463C287.942-14.317,284.963-15.663,280.624-16.974z"/>
		<path fill="#FFFFFF" d="M327.746,58.039l-0.715,1.326l-25.403-13.709l0.715-1.326l1.612,0.87c1.409,0.76,2.679,1.122,3.81,1.084
			c0.801,0.001,1.588-0.315,2.361-0.946c0.572-0.432,1.516-1.866,2.831-4.302l17.249-31.96c1.34-2.484,2.047-4.107,2.12-4.871
			c0.072-0.763-0.166-1.593-0.715-2.491c-0.549-0.898-1.504-1.714-2.865-2.449l-1.612-0.87l0.715-1.326l25.403,13.709l-0.715,1.326
			l-1.612-0.87c-1.41-0.761-2.679-1.122-3.81-1.084c-0.802,0-1.601,0.309-2.397,0.927c-0.572,0.432-1.516,1.866-2.831,4.302
			l-17.248,31.96c-1.341,2.484-2.042,4.111-2.102,4.88c-0.061,0.77,0.183,1.603,0.732,2.5c0.548,0.897,1.504,1.714,2.865,2.449
			L327.746,58.039z"/>
		<path fill="#FFFFFF" d="M409.057,52.009l-12.512,14.906l-1.154-0.968c2.027-5.244,2.539-10.096,1.533-14.554
			c-1.006-4.459-3.161-8.076-6.467-10.851c-3.16-2.653-6.536-3.972-10.127-3.957c-3.592,0.015-7.159,1.246-10.703,3.694
			c-3.543,2.448-6.72,5.345-9.529,8.692c-3.403,4.054-5.909,8.01-7.518,11.869c-1.609,3.858-1.95,7.399-1.023,10.623
			s2.856,6.065,5.787,8.526c1.019,0.855,2.155,1.623,3.409,2.303c1.253,0.681,2.616,1.285,4.088,1.811l7.382-8.793
			c1.396-1.663,2.184-2.835,2.366-3.516c0.181-0.681,0.079-1.519-0.307-2.517c-0.386-0.997-1.088-1.923-2.106-2.778l-1.091-0.917
			l0.968-1.154l20.55,17.25l-0.968,1.154c-1.647-1.205-2.912-1.904-3.795-2.096c-0.884-0.192-1.807-0.054-2.767,0.415
			c-0.519,0.238-1.424,1.126-2.715,2.665l-7.382,8.794c-3.715-1.063-7.291-2.514-10.726-4.353c-3.436-1.839-6.723-4.076-9.862-6.71
			c-4.012-3.368-6.886-6.71-8.62-10.027s-2.869-6.714-3.404-10.193c-0.535-3.479-0.441-6.811,0.283-9.995
			c0.953-4.091,2.922-7.913,5.906-11.468c5.34-6.361,12.086-9.859,20.238-10.494c8.151-0.634,15.616,1.893,22.394,7.582
			c2.1,1.762,3.852,3.517,5.257,5.263c0.774,0.934,1.859,2.65,3.253,5.149c1.393,2.499,2.276,3.905,2.651,4.219
			c0.581,0.488,1.301,0.729,2.158,0.722c0.856-0.007,1.989-0.429,3.4-1.265L409.057,52.009z"/>
		<path fill="#FFFFFF" d="M434.073,84.094l-12.313,41.985l19.407-13.667c2.708-1.906,4.265-3.584,4.673-5.033
			c0.536-1.972-0.101-4.196-1.91-6.672l1.231-0.867l10.502,14.914l-1.231,0.867c-1.589-1.737-2.808-2.796-3.656-3.177
			c-0.85-0.381-1.842-0.446-2.976-0.195c-1.135,0.251-2.768,1.127-4.897,2.627l-37.583,26.466l-0.797-1.132l16.087-56.991
			l-28.695,20.207c-2.597,1.829-3.932,3.657-4.005,5.485c-0.075,1.828,0.428,3.508,1.507,5.039l0.75,1.065l-1.232,0.868
			l-11.275-16.012l1.232-0.867c1.772,2.47,3.501,3.841,5.188,4.115c1.686,0.273,3.728-0.434,6.125-2.122l31.858-22.434l0.519-1.809
			c0.526-1.798,0.72-3.196,0.582-4.194c-0.139-0.998-0.671-2.201-1.595-3.608l1.231-0.868L434.073,84.094z"/>
		<path fill="#FFFFFF" d="M423.77,175.199l-1.376,0.613l-11.738-26.373l1.376-0.612l0.745,1.674
			c0.651,1.463,1.437,2.525,2.354,3.186c0.634,0.49,1.449,0.721,2.447,0.693c0.717,0.008,2.34-0.551,4.869-1.677l33.179-14.767
			c2.579-1.148,4.13-2.002,4.653-2.562c0.523-0.56,0.842-1.363,0.956-2.409c0.113-1.046-0.144-2.275-0.772-3.689l-0.745-1.674
			l1.376-0.613l11.738,26.373l-1.377,0.612l-0.745-1.674c-0.651-1.463-1.436-2.525-2.354-3.186c-0.635-0.49-1.456-0.733-2.464-0.73
			c-0.717-0.008-2.34,0.551-4.869,1.677l-33.18,14.767c-2.579,1.148-4.127,2.008-4.645,2.58c-0.519,0.572-0.834,1.381-0.947,2.427
			c-0.114,1.046,0.144,2.275,0.772,3.689L423.77,175.199z"/>
		<path fill="#FFFFFF" d="M489.732,214.797l-14.541,3.441l-0.337-1.426c3.153-1.64,5.343-3.147,6.564-4.524
			c1.223-1.377,2.057-3.067,2.504-5.069c0.237-1.117,0.06-2.929-0.534-5.438l-0.947-4.001l-41.442,9.808
			c-2.747,0.65-4.429,1.208-5.043,1.674c-0.615,0.466-1.075,1.203-1.381,2.209s-0.277,2.276,0.086,3.808l0.422,1.783l-1.466,0.347
			l-6.657-28.13l1.466-0.347l0.422,1.783c0.368,1.558,0.942,2.748,1.723,3.567c0.532,0.599,1.294,0.991,2.286,1.175
			c0.702,0.14,2.401-0.108,5.096-0.746l41.442-9.808l-0.919-3.883c-0.856-3.619-2.245-6.066-4.164-7.341
			c-2.684-1.792-6.078-2.522-10.184-2.192l-0.356-1.506l14.541-3.441L489.732,214.797z"/>
		<path fill="#FFFFFF" d="M452.289,257.358l-0.33-19.5l-5.413-2.229c-1.804-0.73-3.29-1.084-4.456-1.065
			c-1.548,0.026-2.677,0.669-3.389,1.931c-0.422,0.74-0.717,2.55-0.885,5.431l-1.507,0.025l-0.311-18.359l1.507-0.025
			c0.331,1.976,1.181,3.59,2.545,4.843c1.365,1.252,4.166,2.78,8.405,4.582l44.381,18.998l0.013,0.773l-44.931,20.672
			c-4.257,1.972-6.931,3.579-8.022,4.819c-0.825,0.937-1.292,2.248-1.399,3.933l-1.506,0.025l-0.452-26.705l1.507-0.025l0.019,1.099
			c0.036,2.144,0.359,3.645,0.972,4.503c0.444,0.589,1.073,0.877,1.888,0.864c0.488-0.008,0.989-0.098,1.502-0.27
			c0.243-0.059,1.254-0.483,3.032-1.273L452.289,257.358z M455.277,255.923l18.872-8.545l-19.154-8.146L455.277,255.923z"/>
		<path fill="#FFFFFF" d="M481.199,338.292l-14.648-2.948l0.289-1.437c3.55-0.172,6.169-0.628,7.854-1.368s3.149-1.928,4.392-3.561
			c0.683-0.915,1.278-2.636,1.786-5.164l0.812-4.031l-41.75-8.4c-2.769-0.557-4.528-0.752-5.281-0.585
			c-0.754,0.166-1.479,0.644-2.178,1.431s-1.203,1.952-1.514,3.496l-0.361,1.796l-1.477-0.297l5.702-28.339l1.477,0.297
			l-0.361,1.796c-0.315,1.569-0.291,2.89,0.075,3.96c0.233,0.767,0.762,1.44,1.587,2.022c0.579,0.421,2.227,0.905,4.94,1.451
			l41.751,8.401l0.787-3.912c0.733-3.646,0.494-6.448-0.717-8.409c-1.69-2.749-4.469-4.831-8.337-6.246l0.305-1.517l14.648,2.947
			L481.199,338.292z"/>
		<path fill="#FFFFFF" d="M415.646,358.016l-1.396-0.565l10.841-26.754l1.396,0.566l-0.688,1.697
			c-0.602,1.484-0.821,2.786-0.66,3.906c0.087,0.797,0.487,1.544,1.2,2.243c0.491,0.521,2.021,1.302,4.586,2.342l33.659,13.639
			c2.616,1.06,4.307,1.584,5.073,1.572s1.565-0.34,2.397-0.983c0.832-0.645,1.539-1.683,2.12-3.117l0.688-1.697l1.396,0.565
			l-10.841,26.754l-1.396-0.566l0.688-1.698c0.602-1.484,0.821-2.786,0.66-3.905c-0.087-0.798-0.482-1.558-1.185-2.281
			c-0.491-0.521-2.021-1.302-4.586-2.342l-33.659-13.639c-2.616-1.06-4.311-1.578-5.081-1.554c-0.771,0.024-1.573,0.358-2.405,1.003
			c-0.832,0.644-1.538,1.683-2.119,3.116L415.646,358.016z"/>
		<path fill="#FFFFFF" d="M441.922,421.807l-15.906-9.266l0.875-1.421c4.343,1.748,8.518,2.047,12.524,0.896
			c4.008-1.151,6.95-3.252,8.828-6.303c1.451-2.357,1.971-4.612,1.558-6.763c-0.413-2.151-1.44-3.731-3.081-4.742
			c-1.04-0.64-2.114-0.967-3.223-0.979c-1.499,0.001-3.235,0.414-5.209,1.239c-1.432,0.616-4.327,2.292-8.688,5.026
			c-6.091,3.836-10.929,5.974-14.514,6.412c-3.57,0.415-6.904-0.33-10.002-2.236c-3.93-2.419-6.367-6.031-7.313-10.837
			c-0.946-4.807,0.032-9.566,2.935-14.281c0.91-1.479,1.922-2.785,3.033-3.918s2.695-2.437,4.751-3.912
			c1.145-0.825,1.938-1.596,2.379-2.313c0.371-0.602,0.53-1.379,0.48-2.334c-0.049-0.955-0.419-1.932-1.111-2.932l0.79-1.282
			l17.752,10.928l-0.79,1.283c-5.619-2.057-10.633-2.442-15.042-1.156c-4.409,1.285-7.646,3.604-9.709,6.956
			c-1.593,2.589-2.158,5.085-1.694,7.491c0.463,2.404,1.632,4.184,3.504,5.336c1.109,0.684,2.365,1.05,3.769,1.101
			c1.403,0.052,2.942-0.236,4.618-0.861c1.677-0.626,4.204-2.002,7.585-4.128c4.736-2.982,8.42-4.953,11.052-5.915
			c2.632-0.961,5.17-1.383,7.615-1.264c2.444,0.118,4.766,0.854,6.961,2.205c3.745,2.306,6.088,5.644,7.03,10.017
			c0.941,4.373,0.125,8.651-2.451,12.835c-0.938,1.525-2.034,2.891-3.286,4.097c-0.946,0.915-2.275,1.922-3.987,3.02
			s-2.76,1.959-3.144,2.583c-0.37,0.601-0.477,1.188-0.32,1.763s0.847,1.446,2.072,2.614L441.922,421.807z"/>
	</g>
	<g>
		<path fill="#FFFFFF" d="M110.88,524.985l0.877-2.902c6.83,1.598,7.728,0.938,9.417-4.653l7.001-23.175
			c1.238-4.097,1.068-4.614-2.141-5.863l-4.088-1.421l0.774-2.561c5.592,0.758,11.464,0.901,17.908,0.846l-10.534,34.868
			c-1.664,5.506-1.35,6.625,5.18,9.063l-0.877,2.902L110.88,524.985z"/>
		<path fill="#FFFFFF" d="M183.08,514.637c7.669,2.228,11.406,8.015,10.795,14.273c-1.322,13.538-18.796,18.106-24.744,17.525
			c-3.906-0.382-7.172-2.269-8.52-3.61c-1.17-1.324-1.519-2.344-1.313-3.533c0.121-1.243,1.631-2.485,2.588-3.108
			c0.917-0.672,1.822-0.764,2.619,0.256c1.975,1.806,5.106,5.069,10.034,5.55c5.016,0.49,8.904-3.074,9.658-10.798
			c0.763-7.812-4.447-11.367-9.107-11.822c-1.82-0.178-3.772,0.08-5.187,0.345l-0.318-3.168c7.501-1.553,13.281-4.305,13.832-9.941
			c0.507-5.193-2.548-7.867-6.632-8.266c-4.083-0.398-7.565,2.219-10.349,5.487l-2.051-2.396l4.422-4.9
			c2.608-2.39,6.833-4.352,11.76-3.871l0.089,0.009c8.256,0.806,12.635,5.983,11.994,12.553c-0.221,2.264-1.446,4.251-3.231,5.555
			c-1.502,1.153-3.435,2.13-6.32,3.686L183.08,514.637z"/>
		<path fill="#FFFFFF" d="M242.174,530.381l1.4,14.647l-8.922,0.853l-1.4-14.647l-21.439,2.049l-0.301-3.151
			c7.073-13.174,14.646-26.26,21.715-37.597l5.282-0.505l3.215,33.646l7.635-0.729l0.45,4.705L242.174,530.381z M230.614,503.624
			l-0.177,0.017c-3.993,6.967-8.448,15.187-12.903,24.347l15.27-1.459L230.614,503.624z"/>
		<path fill="#FFFFFF" d="M282.714,503.41c7.939-0.844,13.589,3.095,15.394,9.117c3.905,13.026-10.532,23.87-16.255,25.586
			c-3.758,1.127-7.495,0.617-9.25-0.113c-1.584-0.782-2.293-1.594-2.553-2.772c-0.358-1.195,0.569-2.916,1.218-3.855
			c0.594-0.97,1.397-1.396,2.52-0.756c2.511,0.923,6.645,2.756,11.385,1.335c4.826-1.446,7.073-6.216,4.846-13.647
			c-2.253-7.517-8.419-8.834-12.904-7.489c-1.751,0.524-3.46,1.502-4.668,2.283l-1.494-2.811c6.352-4.277,10.657-9.013,9.031-14.437
			c-1.498-4.997-5.337-6.313-9.266-5.136s-6.159,4.919-7.497,8.997l-2.805-1.44l2.235-6.209c1.508-3.198,4.673-6.614,9.415-8.035
			l0.085-0.025c7.944-2.381,13.957,0.751,15.851,7.071c0.653,2.179,0.272,4.48-0.885,6.363c-0.953,1.636-2.371,3.271-4.451,5.803
			L282.714,503.41z"/>
	</g>
	<path fill="#FFFFFF" d="M53.029,460.829c0,7.131-5.783,12.914-12.924,12.914c-7.146,0-12.929-5.783-12.929-12.914
		c0-7.141,5.783-12.933,12.929-12.933C47.246,447.896,53.029,453.688,53.029,460.829z"/>
	<path fill="#FFFFFF" d="M381.691,459.959c0,7.143-5.792,12.925-12.933,12.925s-12.923-5.782-12.923-12.925
		c0-7.14,5.783-12.933,12.923-12.933S381.691,452.819,381.691,459.959z"/>
</g>
</svg>
